<svg viewBox="0 0 232 166" fill="none" xmlns="http://www.w3.org/2000/svg">
  <path fill-rule="evenodd" clip-rule="evenodd" d="M29.6227 120.68L29.4383 23.4892C29.435 21.6452 30.9301 20.152 32.7707 20.157L207.857 20.7124C209.676 20.7174 211.153 22.1873 211.169 24.008L212.003 120.77L29.6227 120.68ZM213.967 10.7939H28.234C25.5976 10.7939 18.4097 13.624 18.4097 19.9542V132.24C18.4097 140.875 25.6458 141.834 28.2805 141.834H214.542C222.306 141.834 223.934 135.934 223.934 133.535V20.4347C223.934 17.9888 223.12 10.7939 213.967 10.7939Z" fill="#D9E2E7"/>
  <path fill-rule="evenodd" clip-rule="evenodd" d="M214.542 141.833H28.2811C25.6464 141.833 18.4103 140.455 18.4103 132.239V120.394C18.4103 120.394 27.8226 120.455 30.4572 120.455L212.002 120.769H223.935V134.525C223.935 134.916 222.305 141.833 214.542 141.833Z" stroke="#2E324F" stroke-linecap="round" stroke-linejoin="round"/>
  <path fill-rule="evenodd" clip-rule="evenodd" d="M214.542 141.834H28.2811C25.6464 141.834 18.4103 140.875 18.4103 132.24V19.9558C18.4103 13.624 25.5983 10.7939 28.2329 10.7939H213.967C223.121 10.7939 223.935 17.9888 223.935 20.4347V133.537C223.935 135.934 222.305 141.834 214.542 141.834Z" stroke="#2E324F" stroke-linecap="round" stroke-linejoin="round"/>
  <path fill-rule="evenodd" clip-rule="evenodd" d="M105.335 141.751L105.239 146.683C105.239 146.683 105.239 149.799 100.448 152.639C95.6552 155.439 94.1701 154.847 91.1501 158.989C88.1317 163.131 88.9473 165.025 88.9473 165.025H150.619C150.619 165.025 151.146 160.962 148.415 158.515C145.684 156.069 140.795 153.665 137.967 151.771C135.14 149.878 134.326 147.629 134.23 146.683C134.133 145.735 134.087 141.593 134.087 141.593L105.335 141.751Z" fill="#D9E2E7"/>
  <path fill-rule="evenodd" clip-rule="evenodd" d="M105.287 141.642L134.215 141.333L134.624 148.012L105.287 143.688V141.642Z" fill="#2E324F"/>
  <path fill-rule="evenodd" clip-rule="evenodd" d="M109.552 155.872C101.311 155.872 95.2724 155.872 95.0814 155.775C94.8887 155.727 94.7923 155.489 94.8405 155.295C94.8887 155.104 95.0814 155.007 95.2724 155.057C96.3273 155.152 127.425 155.104 143.718 155.057C143.91 155.057 144.053 155.2 144.101 155.391C144.15 155.584 143.957 155.775 143.766 155.775C133.704 155.823 119.901 155.872 109.552 155.872Z" fill="#2E324F"/>
  <path fill-rule="evenodd" clip-rule="evenodd" d="M119.999 127.061C121.957 127.061 123.544 128.52 123.544 130.323C123.544 132.124 121.957 133.584 119.999 133.584C118.04 133.584 116.452 132.124 116.452 130.323C116.452 128.52 118.04 127.061 119.999 127.061Z" fill="#67EC88"/>
  <path fill-rule="evenodd" clip-rule="evenodd" d="M22.2438 33.4336C31.5581 33.4336 39.1116 40.9926 39.1116 50.3174C39.1116 59.6423 31.5581 67.2012 22.2438 67.2012C12.9279 67.2012 5.3761 59.6423 5.3761 50.3174C5.3761 40.9926 12.9279 33.4336 22.2438 33.4336Z" fill="#67EC88"/>
  <path fill-rule="evenodd" clip-rule="evenodd" d="M48.8862 136.893C52.3797 136.893 55.2121 139.728 55.2121 143.226C55.2121 146.721 52.3797 149.556 48.8862 149.556C45.3928 149.556 42.5604 146.721 42.5604 143.226C42.5604 139.728 45.3928 136.893 48.8862 136.893Z" fill="#67EC88"/>
  <path fill-rule="evenodd" clip-rule="evenodd" d="M103.035 109.841H48.8865C46.7785 109.841 45.0525 108.114 45.0525 106.004V32.2813C45.0525 30.1713 46.7785 28.4453 48.8865 28.4453H103.035C105.144 28.4453 106.869 30.1713 106.869 32.2813V106.004C106.869 108.162 105.191 109.841 103.035 109.841Z" fill="#D9E2E7"/>
  <path fill-rule="evenodd" clip-rule="evenodd" d="M199.016 110.465H129.63C127.522 110.465 125.796 108.737 125.796 106.627V32.9044C125.796 30.7943 127.522 29.0684 129.63 29.0684H199.016C201.126 29.0684 202.85 30.7943 202.85 32.9044V106.627C202.85 108.737 201.126 110.465 199.016 110.465Z" fill="#D9E2E7"/>
  <path fill-rule="evenodd" clip-rule="evenodd" d="M94.6971 50.1254H59.8602C59.5728 50.1254 59.3801 49.9326 59.3801 49.6449C59.3801 49.3589 59.5728 49.166 59.8602 49.166H94.6971C94.9844 49.166 95.1771 49.3589 95.1771 49.6449C95.1771 49.9326 94.9363 50.1254 94.6971 50.1254Z" fill="#2E324F"/>
  <path fill-rule="evenodd" clip-rule="evenodd" d="M94.6971 59.8618H59.8602C59.5728 59.8618 59.3801 59.6705 59.3801 59.3829C59.3801 59.0952 59.5728 58.9023 59.8602 58.9023H94.6971C94.9844 58.9023 95.1771 59.0952 95.1771 59.3829C95.1771 59.6705 94.9363 59.8618 94.6971 59.8618Z" fill="#2E324F"/>
  <path fill-rule="evenodd" clip-rule="evenodd" d="M93.7862 69.3588H60.2434C59.9561 69.3588 59.765 69.166 59.765 68.8783C59.765 68.5906 59.9561 68.3994 60.2434 68.3994H93.7862C94.0736 68.3994 94.2663 68.5906 94.2663 68.8783C94.2663 69.166 94.0271 69.3588 93.7862 69.3588Z" fill="#2E324F"/>
  <path fill-rule="evenodd" clip-rule="evenodd" d="M151.672 47.3911C146.689 47.3911 142.616 51.4682 142.616 56.4565C142.616 61.4448 146.689 65.522 151.672 65.522C156.656 65.522 160.729 61.4448 160.729 56.4565C160.681 51.4682 156.656 47.3911 151.672 47.3911ZM151.672 66.4814C146.162 66.4814 141.657 61.9736 141.657 56.4565C141.657 50.9411 146.162 46.4316 151.672 46.4316C157.183 46.4316 161.688 50.9411 161.688 56.4565C161.64 61.9736 157.183 66.4814 151.672 66.4814Z" fill="#2E324F"/>
  <path fill-rule="evenodd" clip-rule="evenodd" d="M179.993 46.6709C185.259 46.6709 189.528 50.9442 189.528 56.2169C189.528 61.4879 185.259 65.7612 179.993 65.7612C174.727 65.7612 170.458 61.4879 170.458 56.2169C170.458 50.9442 174.727 46.6709 179.993 46.6709Z" fill="#67EC88"/>
  <path fill-rule="evenodd" clip-rule="evenodd" d="M151.672 73.627C156.938 73.627 161.209 77.9003 161.209 83.1729C161.209 88.4439 156.938 92.7173 151.672 92.7173C146.406 92.7173 142.137 88.4439 142.137 83.1729C142.137 77.9003 146.406 73.627 151.672 73.627Z" fill="white"/>
  <path fill-rule="evenodd" clip-rule="evenodd" d="M179.993 73.3877C185.259 73.3877 189.528 77.661 189.528 82.932C189.528 88.2047 185.259 92.478 179.993 92.478C174.727 92.478 170.458 88.2047 170.458 82.932C170.458 77.661 174.727 73.3877 179.993 73.3877Z" fill="#2E324F"/>
  <path fill-rule="evenodd" clip-rule="evenodd" d="M180.136 66.1934C179.705 66.1934 179.274 66.1452 178.842 66.097C176.208 65.7611 173.811 64.4192 172.181 62.3075C170.553 60.1975 169.834 57.5603 170.169 54.9215C170.505 52.2826 171.847 49.8849 173.955 48.2537C174.146 48.1108 174.482 48.1107 174.626 48.3502C174.769 48.5414 174.769 48.8773 174.53 49.0219C172.613 50.5085 171.415 52.6185 171.08 55.0179C170.792 57.4156 171.415 59.8134 172.9 61.684C174.387 63.5546 176.495 64.8017 178.891 65.1376C181.286 65.4252 183.683 64.8017 185.552 63.3152C185.743 63.1722 186.078 63.1722 186.223 63.4116C186.366 63.6028 186.366 63.9387 186.127 64.0817C184.449 65.4734 182.341 66.1934 180.136 66.1934Z" fill="#2E324F"/>
  <path fill-rule="evenodd" clip-rule="evenodd" d="M203.569 17.4131L182.148 43.9377C182.148 43.9377 178.651 48.3989 182.485 51.9007C186.509 55.6419 190.535 51.756 190.535 51.756L214.302 27.438L203.569 17.4131Z" fill="white"/>
  <path fill-rule="evenodd" clip-rule="evenodd" d="M186.27 54.1535C185.024 54.1535 183.587 53.7228 182.197 52.4258C178.076 48.638 181.767 43.8409 181.813 43.7944L203.233 17.2681C203.377 17.0769 203.713 17.0287 203.904 17.2216C204.096 17.3646 204.145 17.7004 203.952 17.8917L182.581 44.4179C182.436 44.5609 179.418 48.5416 182.868 51.7075C186.558 55.0647 190.104 51.7075 190.247 51.5629L201.412 40.0997C201.605 39.9085 201.892 39.9085 202.083 40.0997C202.276 40.2926 202.276 40.5786 202.083 40.7714L190.918 52.2346C190.87 52.2828 188.905 54.1535 186.27 54.1535Z" fill="#2E324F"/>
  <path fill-rule="evenodd" clip-rule="evenodd" d="M217.226 24.7994L223.886 17.2205C223.886 17.2205 229.301 11.1779 223.695 5.99672C218.137 0.913616 212.146 7.14902 212.146 7.14902L205.629 14.2474L217.226 24.7994Z" fill="#67EC88"/>
  <path fill-rule="evenodd" clip-rule="evenodd" d="M197.504 16.6525L202.854 10.8262L220.671 27.2145L215.321 33.0408L197.504 16.6525Z" fill="#67EC88"/>
  <path fill-rule="evenodd" clip-rule="evenodd" d="M217.322 24.0798C217.226 24.0798 217.081 24.0316 216.986 23.9368L206.109 13.912C205.916 13.7191 205.916 13.4314 206.061 13.2402C206.252 13.0473 206.539 13.0473 206.732 13.192L217.609 23.2169C217.802 23.4081 217.802 23.6957 217.657 23.8886C217.561 24.0316 217.418 24.0798 217.322 24.0798Z" fill="#2E324F"/>
  <path fill-rule="evenodd" clip-rule="evenodd" d="M68.917 80.9189H93.8349V77.7529H68.917V80.9189Z" fill="#67EC88"/>
  <path fill-rule="evenodd" clip-rule="evenodd" d="M115.686 49.2617C115.302 49.2617 114.967 48.9258 114.967 48.5417V11.3704C114.967 10.9863 115.302 10.6504 115.686 10.6504C116.068 10.6504 116.405 10.9863 116.405 11.3704V48.5417C116.405 48.9258 116.068 49.2617 115.686 49.2617Z" fill="#2E324F"/>
  <path fill-rule="evenodd" clip-rule="evenodd" d="M134.23 30.5076H97.6205C97.2368 30.5076 96.9012 30.1718 96.9012 29.7877C96.9012 29.4052 97.2368 29.0693 97.6205 29.0693H134.23C134.614 29.0693 134.949 29.4052 134.949 29.7877C134.949 30.1718 134.614 30.5076 134.23 30.5076Z" fill="#2E324F"/>
  <path fill-rule="evenodd" clip-rule="evenodd" d="M115.925 0.481445L106.677 11.0334H125.03L115.925 0.481445Z" fill="#2E324F"/>
  <path fill-rule="evenodd" clip-rule="evenodd" d="M116.212 59.0468L125.126 48.0625H106.772L116.212 59.0468Z" fill="#2E324F"/>
  <path fill-rule="evenodd" clip-rule="evenodd" d="M144.964 29.0207L134.326 19.8105V38.0379L144.964 29.0207Z" fill="#2E324F"/>
  <path fill-rule="evenodd" clip-rule="evenodd" d="M86.1193 29.3076L97.1894 38.1336V19.9062L86.1193 29.3076Z" fill="#2E324F"/>
  <path d="M1.07581 165.025C1.72699 164.373 230.538 165.025 230.538 165.025" stroke="#2E324F" stroke-linecap="round" stroke-linejoin="round"/>
</svg>
