<svg width="1060" height="800" viewBox="0 0 1060 800" fill="none" xmlns="http://www.w3.org/2000/svg">
  <g clip-path="url(#clip0)">
    <path fill-rule="evenodd" clip-rule="evenodd"
      d="M1060 554.202C1020.27 589.112 989.558 635.945 972.738 689.473C961.436 725.441 955.933 762.582 953.279 800L949.891 800C952.545 762.288 958.097 724.807 969.513 688.479C986.841 633.356 1018.72 585.235 1060 549.721L1060 554.202"
      fill="white" />
    <path fill-rule="evenodd" clip-rule="evenodd"
      d="M1060 476.029C1058.62 477.006 1057.23 477.933 1055.85 478.927C981.694 532.243 930.059 610.81 906.527 706.104C898.861 737.187 893.485 769.082 889.301 800L885.898 800C890.084 768.838 895.506 736.668 903.239 705.308C926.964 609.211 979.057 529.995 1053.88 476.205C1055.91 474.741 1057.95 473.34 1060 471.921L1060 476.029"
      fill="white" />
    <path fill-rule="evenodd" clip-rule="evenodd"
      d="M811.746 800C813.779 792.785 815.784 785.585 817.752 778.482C838.824 702.751 860.611 624.444 902.736 556.304C942.614 491.829 997.179 442.797 1060 395.474L1060 399.693C998.319 446.33 944.779 494.745 905.618 558.061C863.736 625.796 842.016 703.876 821.009 779.377C819.122 786.168 817.198 793.078 815.26 800L811.746 800"
      fill="white" />
    <path fill-rule="evenodd" clip-rule="evenodd"
      d="M979.137 9.9891C1006.84 16.588 1034.13 27.0476 1060 40.5351L1060 44.2956C1033.92 30.5639 1006.35 19.9282 978.341 13.2492C894.693 -6.70775 805.475 3.26477 689.067 45.566C585.861 83.0819 494.169 125.794 416.532 172.531C352.75 210.926 301.116 258.36 246.452 308.583C232.303 321.567 217.679 335.005 202.943 348.154C187.67 361.801 171.892 375.39 156.632 388.535C135.27 406.926 113.207 425.953 92.1496 445.369C88.0984 449.133 83.8298 452.963 79.4679 456.886C51.9156 481.696 20.7016 509.814 8.88031 543.143C5.65487 552.263 3.99409 561.581 3.99409 570.865L3.99409 570.883C4.02744 637.152 87.0379 691.365 122.73 711.596C187.083 748.069 257.07 774.979 326.029 800L316.211 800C249.938 775.81 182.948 749.584 121.053 714.511C76.0797 689.016 0.639316 636.452 0.639319 570.883L0.639319 570.865C0.63932 561.208 2.33338 551.5 5.68821 542.034C17.8003 507.889 49.3571 479.481 77.2029 454.41C81.5528 450.483 85.8014 446.657 89.8552 442.91C110.942 423.444 133.039 404.417 154.401 385.992C169.662 372.864 185.422 359.279 200.695 345.658C215.399 332.53 230.022 319.092 244.155 306.109C298.949 255.771 350.7 208.221 414.774 169.665C492.606 122.816 584.494 80.0059 687.911 42.4073C804.969 -0.124785 894.789 -10.128 979.137 9.9891"
      fill="white" />
    <path fill-rule="evenodd" clip-rule="evenodd"
      d="M701.75 800C704.552 797.719 707.302 795.277 709.974 792.604C741.727 760.775 760.956 719.251 779.551 679.097C782.142 673.543 784.713 667.972 787.318 662.45C820.05 592.971 866.863 502.921 938.836 422.563C951.229 408.734 965.068 395.163 979.724 380.815C1009.44 351.67 1039.81 321.891 1060 288.009L1060 294.477C1039.68 326.731 1010.6 355.253 982.085 383.19C967.479 397.509 953.686 411.047 941.36 424.795C869.664 504.843 823.014 594.616 790.379 663.882C787.774 669.389 785.204 674.944 782.629 680.516C763.904 720.93 744.543 762.712 712.368 794.966C710.606 796.741 708.799 798.403 706.962 800L701.75 800"
      fill="white" />
    <path fill-rule="evenodd" clip-rule="evenodd"
      d="M962.203 61.6129C998.986 73.9768 1035.95 97.9078 1060 130.518L1060 136.351C1036.54 102.354 998.743 77.4464 961.129 64.7903C893.892 42.1631 815.653 45.4366 721.926 74.7748C634.714 102.094 542.191 145.017 454.376 198.936C377.028 246.421 316.878 306.594 250.36 382.329C247.396 385.699 244.302 389.184 241.11 392.801C198.317 441.102 139.699 507.255 139.699 571.713L139.699 571.73C139.699 581.928 141.229 591.863 144.228 601.249C164.775 665.43 229.566 702.408 296.538 732.82C360.291 761.768 427.75 782.145 494.938 800L481.975 800C418.666 782.88 355.291 763.186 295.124 735.866C227.467 705.143 161.958 667.696 141.002 602.259C137.907 592.548 136.327 582.286 136.327 571.73C136.327 571.713 136.327 571.713 136.327 571.713C136.327 505.984 195.42 439.278 238.572 390.586C241.765 386.969 244.855 383.484 247.803 380.13C314.533 304.152 374.896 243.781 452.598 196.084C540.645 142.019 633.425 98.9647 720.915 71.5814C815.344 42.0003 894.286 38.7415 962.203 61.6129"
      fill="white" />
    <path fill-rule="evenodd" clip-rule="evenodd"
      d="M969.321 216.448C969.321 255.07 948.609 300.993 907.769 352.94C846.919 430.332 794.191 512.729 746.271 590.236C743.389 594.896 740.505 599.62 737.623 604.358C719.044 634.92 699.813 666.504 672.995 690.19C635.347 723.421 586.529 731.712 552.203 732.804C542.714 733.096 532.338 733.016 520.486 732.526C432.213 718.615 342.167 696.932 282.864 633.191C261.564 610.272 250.752 583.376 250.752 553.257L250.752 553.241C250.752 497.74 286.706 440.728 313.754 402.656C404.384 275.058 550.74 177.464 725.818 127.862C787.239 110.465 875.398 92.7765 931.688 139.819C956.652 160.705 969.321 186.476 969.321 216.448ZM247.382 553.241L247.382 553.257C247.382 584.258 258.485 611.917 280.39 635.457C340.392 699.965 431.089 721.84 520.16 735.865C532.292 736.372 542.746 736.452 552.321 736.159C587.2 735.035 636.845 726.597 675.242 692.699C702.434 668.688 721.796 636.859 740.522 606.086C743.403 601.362 746.271 596.654 749.151 591.994C797.026 514.568 849.687 432.272 910.437 354.993C951.75 302.457 972.706 255.838 972.706 216.448C972.706 185.449 959.63 158.799 933.871 137.248C876.342 89.1761 787.059 107.029 724.891 124.637C549.079 174.435 402.073 272.485 310.986 400.718C283.678 439.147 247.382 496.797 247.382 553.241V553.241Z"
      fill="white" />
    <path opacity="0.7" fill-rule="evenodd" clip-rule="evenodd"
      d="M487.036 651.422C447.291 644.969 377.711 626.173 354.62 572.579C348.254 557.802 345.03 541.922 345.03 525.354C345.03 480.46 368.219 429.277 413.972 373.223C488.047 282.439 615.807 211.935 739.462 193.579C778.182 187.828 828.222 187.585 846.85 219.072C852.646 228.88 855.594 240.199 855.594 252.743C855.594 295.586 821.726 346.329 799.32 379.902C796.794 383.681 794.4 387.281 792.168 390.671C779.403 410.121 767.014 430.22 755.046 449.67C730.798 489.061 705.724 529.769 676.494 566.469C655.52 592.812 630.429 614.705 597.569 635.392C568.095 653.932 531.216 652.791 495.553 651.682C492.705 651.602 489.854 651.502 487.036 651.422ZM331.499 525.354L331.499 525.372C331.515 543.743 335.097 561.418 342.198 577.872C367.909 637.56 442.909 657.938 485.328 664.764L486.222 664.844C489.17 664.926 492.134 665.006 495.13 665.104C531.082 666.227 571.824 667.482 604.798 646.744C638.994 625.226 665.146 602.373 687.095 574.81C716.828 537.475 742.117 496.407 766.574 456.693C778.51 437.324 790.834 417.287 803.488 398.017C805.701 394.643 808.079 391.078 810.587 387.331C833.888 352.405 869.109 299.643 869.109 252.743C869.109 237.774 865.542 224.156 858.509 212.262C840.483 181.8 799.76 171.051 737.474 180.285C610.66 199.117 479.546 271.526 403.472 364.769C355.713 423.265 331.499 477.298 331.499 525.354V525.354Z"
      fill="white" />
    <path fill-rule="evenodd" clip-rule="evenodd"
      d="M703.005 343.511C703.005 376.368 679.997 421.293 671.333 438.222C650.722 478.472 592.929 570.804 501.744 558.649C457.16 546.432 447.763 515.01 447.763 490.802C447.747 467.689 456.557 440.273 471.928 415.562C491.776 383.647 520.73 356.248 555.675 336.329C573.683 326.062 635.9 293.711 680.598 308.161C695.464 312.967 703.005 324.857 703.005 343.511ZM444.379 490.802V490.802C444.379 516.184 454.212 549.105 501.075 561.925C594.623 574.42 653.406 480.636 674.346 439.735C683.106 422.631 706.376 377.182 706.376 343.511C706.376 323.229 698.056 310.262 681.641 304.951C635.624 290.079 572.3 322.986 553.997 333.411C518.565 353.608 489.189 381.399 469.046 413.8C453.367 439.018 444.379 467.085 444.379 490.802V490.802Z"
      fill="white" />
  </g>
  <defs>
    <clipPath id="clip0">
      <rect width="800" height="1059.36" fill="white" transform="translate(1060) rotate(90)" />
    </clipPath>
  </defs>
</svg>
