<svg viewBox="0 0 607 434" fill="none" xmlns="http://www.w3.org/2000/svg">
  <g clip-path="url(#clip0)">
    <path opacity="0.5"
      d="M462.982 141.355C434.652 141.355 406.959 149.756 383.403 165.495C359.848 181.234 341.489 203.605 330.647 229.778C319.806 255.951 316.97 284.752 322.497 312.537C328.024 340.323 341.666 365.845 361.698 385.877C381.73 405.909 407.253 419.551 435.039 425.078C462.824 430.604 491.624 427.767 517.798 416.925C543.971 406.084 566.341 387.724 582.08 364.169C597.819 340.613 606.219 312.919 606.218 284.589C606.217 246.601 591.126 210.17 564.264 183.308C537.402 156.447 500.97 141.356 462.982 141.355V141.355Z"
      fill="#31FF43" />
    <path opacity="0.5"
      d="M559.41 103.428C559.41 107.263 558.273 111.011 556.142 114.2C554.012 117.388 550.984 119.873 547.441 121.34C543.898 122.808 540 123.192 536.239 122.443C532.478 121.695 529.023 119.849 526.311 117.137C523.6 114.426 521.753 110.971 521.005 107.21C520.257 103.449 520.641 99.5505 522.108 96.0077C523.575 92.4649 526.06 89.4367 529.249 87.3061C532.437 85.1756 536.186 84.0383 540.02 84.0381C542.567 84.038 545.088 84.5394 547.441 85.5138C549.793 86.4882 551.931 87.9164 553.731 89.717C555.532 91.5175 556.96 93.6551 557.935 96.0077C558.909 98.3603 559.41 100.882 559.41 103.428V103.428Z"
      fill="#31FF43" />
    <path
      d="M41.1274 378.222C41.1274 381.643 40.1127 384.988 38.2118 387.833C36.3108 390.678 33.6089 392.896 30.4478 394.205C27.2866 395.514 23.8082 395.857 20.4523 395.189C17.0964 394.522 14.0138 392.874 11.5944 390.455C9.17495 388.035 7.52729 384.953 6.85977 381.597C6.19224 378.241 6.53484 374.763 7.84423 371.601C9.15363 368.44 11.371 365.738 14.216 363.837C17.061 361.936 20.4057 360.922 23.8273 360.922C28.4156 360.922 32.8159 362.745 36.0603 365.989C39.3047 369.233 41.1274 373.634 41.1274 378.222Z"
      fill="#31FF43" />
    <path
      d="M591.845 76.6697C591.845 79.6426 590.963 82.5487 589.312 85.0205C587.66 87.4923 585.312 89.4188 582.566 90.5565C579.819 91.6941 576.797 91.9919 573.881 91.412C570.965 90.8321 568.287 89.4007 566.185 87.2987C564.082 85.1967 562.651 82.5185 562.07 79.6028C561.49 76.6871 561.787 73.6648 562.925 70.9181C564.062 68.1713 565.988 65.8235 568.46 64.1715C570.931 62.5194 573.837 61.6373 576.81 61.6367C578.785 61.6362 580.74 62.0247 582.564 62.7799C584.388 63.5352 586.046 64.6425 587.442 66.0385C588.838 67.4345 589.946 69.0919 590.701 70.9161C591.457 72.7402 591.845 74.6953 591.845 76.6697V76.6697Z"
      fill="#31FF43" />
    <path opacity="0.4"
      d="M85.1254 179.13C67.8375 179.588 51.0737 185.162 36.9536 195.147C22.8336 205.132 11.9916 219.08 5.79865 235.227C-0.394261 251.374 -1.65994 268.995 2.16168 285.861C5.9833 302.727 14.7206 318.082 27.2686 329.982C39.8166 341.883 55.6118 349.795 72.6568 352.719C89.7017 355.643 107.231 353.446 123.027 346.408C138.824 339.369 152.179 327.804 161.403 313.175C170.627 298.546 175.305 281.511 174.847 264.223C174.233 241.041 164.436 219.053 147.609 203.095C130.783 187.137 108.307 178.517 85.1254 179.13V179.13Z"
      fill="#31FF43" />
    <path d="M37.7916 78.1923H30.1016L42.2676 56.6553H49.9576L37.7916 78.1923Z" fill="#1DD42E" />
    <path d="M51.5635 78.1923H43.8745L56.0395 56.6553H63.7295L51.5635 78.1923Z" fill="#1DD42E" />
    <path d="M65.3355 78.1923H57.6465L69.8105 56.6562H77.5005L65.3355 78.1923Z" fill="#1DD42E" />
    <path d="M450.281 409.427H440.723L455.843 382.663H465.4L450.281 409.427Z" fill="#1DD42E" />
    <path d="M467.397 409.427H457.84L472.96 382.663H482.517L467.397 409.427Z" fill="#1DD42E" />
    <path d="M484.51 409.427H474.952L490.077 382.663H499.635L484.51 409.427Z" fill="#1DD42E" />
    <path d="M501.63 409.427H492.073L507.192 382.663H516.751L501.63 409.427Z" fill="#1DD42E" />
    <path d="M518.75 409.427H509.191L524.31 382.663H533.868L518.75 409.427Z" fill="#1DD42E" />
    <path d="M21.4365 56.6722L4.82031 73.29L9.77598 78.2452L26.3921 61.6273L21.4365 56.6722Z" fill="#1DD42E" />
    <path d="M9.77497 56.6733L4.82031 61.6279L21.4341 78.2417L26.3888 73.2871L9.77497 56.6733Z" fill="#1DD42E" />
    <path
      d="M575.47 130.439C574.864 129.847 574.05 129.516 573.202 129.52C572.355 129.523 571.542 129.859 570.941 130.456C570.339 131.053 569.996 131.862 569.986 132.71C569.976 133.557 570.3 134.374 570.887 134.985C573.536 137.661 575.015 141.278 574.999 145.043C574.984 148.807 573.476 152.412 570.805 155.066C570.504 155.364 570.265 155.719 570.101 156.11C569.938 156.501 569.852 156.92 569.851 157.343C569.849 157.767 569.93 158.187 570.091 158.579C570.251 158.971 570.487 159.328 570.786 159.629C571.084 159.93 571.439 160.169 571.829 160.332C572.22 160.496 572.639 160.582 573.063 160.583C573.487 160.585 573.907 160.503 574.299 160.343C574.691 160.183 575.047 159.946 575.348 159.648C579.232 155.788 581.426 150.545 581.449 145.069C581.472 139.593 579.322 134.332 575.47 130.439V130.439Z"
      fill="#1DD42E" />
    <path
      d="M584.454 168.828C590.769 162.551 594.336 154.026 594.373 145.122C594.411 136.219 590.916 127.664 584.654 121.334C584.048 120.741 583.233 120.411 582.386 120.414C581.538 120.417 580.726 120.753 580.125 121.35C579.523 121.947 579.18 122.757 579.17 123.604C579.16 124.452 579.484 125.269 580.071 125.88C585.13 130.993 587.955 137.903 587.925 145.096C587.895 152.288 585.014 159.176 579.913 164.247C579.306 164.849 578.962 165.668 578.959 166.524C578.956 167.38 579.292 168.202 579.895 168.809C580.497 169.417 581.317 169.76 582.172 169.763C583.028 169.767 583.85 169.43 584.457 168.828H584.454Z"
      fill="#1DD42E" />
    <path
      d="M568.428 140.671C567.542 139.777 566.41 139.166 565.176 138.915C563.942 138.664 562.661 138.785 561.496 139.262C560.331 139.738 559.333 140.55 558.629 141.594C557.925 142.638 557.546 143.867 557.541 145.127C557.535 146.386 557.903 147.618 558.598 148.668C559.293 149.718 560.284 150.539 561.445 151.026C562.606 151.513 563.886 151.644 565.122 151.404C566.358 151.164 567.495 150.563 568.389 149.677C569.586 148.486 570.263 146.87 570.27 145.182C570.277 143.494 569.615 141.871 568.428 140.671V140.671Z"
      fill="#1DD42E" />
    <path
      d="M45.8893 102.531H43.0473L38.9723 96.7678C38.8145 96.5431 38.6049 96.3596 38.3612 96.2329C38.1175 96.1062 37.847 96.04 37.5723 96.0398L21.2663 96.0078C20.9913 96.0076 20.7203 96.0731 20.4757 96.1989C20.2311 96.3246 20.0201 96.507 19.8603 96.7308L15.7663 102.479L12.9213 102.472C10.7901 102.474 8.74656 103.32 7.23695 104.825C5.72734 106.329 4.87437 108.37 4.86433 110.501L4.81934 133.894C4.82222 136.025 5.66802 138.068 7.17211 139.578C8.6762 141.087 10.7164 141.94 12.8473 141.951L45.8163 142.012C47.947 142.01 49.9903 141.165 51.4999 139.661C53.0095 138.157 53.8628 136.117 53.8733 133.987L53.9163 110.593C53.9153 108.461 53.0704 106.416 51.5663 104.906C50.0621 103.395 48.0211 102.541 45.8893 102.531V102.531ZM29.3473 133.89C27.0029 133.885 24.7125 133.186 22.7657 131.879C20.819 130.573 19.3034 128.719 18.4105 126.551C17.5177 124.383 17.2878 121.999 17.7498 119.701C18.2119 117.402 19.3452 115.293 21.0064 113.638C22.6676 111.984 24.782 110.859 27.0824 110.407C29.3827 109.954 31.7656 110.194 33.9296 111.096C36.0937 111.998 37.9417 113.521 39.24 115.473C40.5383 117.425 41.2285 119.718 41.2233 122.063C41.2167 125.206 39.9618 128.218 37.7346 130.436C35.5075 132.654 32.4905 133.896 29.3473 133.89V133.89Z"
      fill="#1DD42E" />
    <path
      d="M29.3862 114.203C27.8364 114.2 26.3205 114.656 25.0301 115.514C23.7397 116.373 22.7329 117.594 22.1368 119.025C21.5408 120.455 21.3824 122.031 21.6816 123.551C21.9809 125.072 22.7244 126.469 23.8181 127.567C24.9117 128.665 26.3064 129.414 27.8258 129.72C29.3452 130.025 30.921 129.873 32.3539 129.282C33.7868 128.692 35.0124 127.69 35.8757 126.403C36.7391 125.116 37.2014 123.602 37.2042 122.052C37.2082 119.975 36.3867 117.981 34.9206 116.509C33.4545 115.037 31.4637 114.207 29.3862 114.203V114.203Z"
      fill="#1DD42E" />
    <path
      d="M564.475 384.384L564.406 374.953C564.402 374.519 564.226 374.105 563.916 373.801C563.607 373.496 563.189 373.328 562.755 373.331C561.924 373.337 561.102 373.507 560.337 373.831C559.571 374.155 558.877 374.626 558.294 375.218C557.71 375.811 557.249 376.512 556.937 377.282C556.625 378.053 556.468 378.877 556.474 379.708L556.508 384.227L546.145 384.303L544.439 384.315C543.679 384.315 542.94 384.571 542.342 385.04C541.743 385.51 541.32 386.166 541.139 386.905C540.957 387.643 541.029 388.421 541.342 389.114C541.655 389.808 542.191 390.376 542.865 390.728C542.326 391.02 541.876 391.454 541.564 391.982C541.252 392.511 541.09 393.114 541.094 393.727C541.099 394.341 541.27 394.942 541.59 395.465C541.909 395.989 542.365 396.416 542.909 396.7C542.339 397.01 541.87 397.478 541.557 398.046C541.245 398.615 541.102 399.262 541.145 399.909C541.189 400.557 541.418 401.178 541.804 401.7C542.191 402.222 542.718 402.621 543.325 402.852C542.587 403.148 541.976 403.692 541.597 404.391C541.218 405.09 541.095 405.899 541.249 406.679C541.403 407.459 541.825 408.16 542.441 408.662C543.058 409.164 543.83 409.434 544.625 409.427L546.332 409.414L561.689 409.302L563.089 409.29C564.786 409.278 566.409 408.592 567.601 407.383C568.792 406.175 569.455 404.542 569.443 402.845L569.354 390.532C569.341 389.111 568.854 387.734 567.97 386.62C567.087 385.507 565.857 384.72 564.475 384.384Z"
      fill="#1DD42E" />
    <path
      d="M579.015 386.618L574.201 386.654C573.888 386.657 573.579 386.721 573.291 386.843C573.003 386.965 572.742 387.142 572.523 387.365C572.304 387.588 572.13 387.852 572.013 388.142C571.896 388.431 571.836 388.742 571.839 389.054L571.952 404.288C571.957 404.919 572.212 405.522 572.661 405.964C573.11 406.407 573.716 406.653 574.347 406.649L579.164 406.612C579.476 406.61 579.784 406.547 580.072 406.425C580.359 406.304 580.62 406.127 580.839 405.905C581.058 405.683 581.231 405.42 581.349 405.131C581.466 404.842 581.525 404.532 581.523 404.22L581.41 388.982C581.408 388.67 581.345 388.36 581.224 388.072C581.102 387.784 580.925 387.523 580.703 387.303C580.48 387.084 580.217 386.91 579.927 386.793C579.638 386.675 579.328 386.616 579.015 386.618V386.618Z"
      fill="#1DD42E" />
    <path d="M528.165 80.2686H96.3833V363.562H528.165V80.2686Z" fill="#31FF43" />
    <g style="mix-blend-mode:multiply">
      <path d="M524.676 87.6689H100.159V92.7519H524.676V87.6689Z" fill="#E2E2E2" />
    </g>
    <path d="M503.63 57.0137H414.382V66.3267H503.63V57.0137Z" fill="#0B3356" />
    <path d="M528.166 75.4455L520.018 60.3115H106.176L97.4463 68.1865V87.6635H528.166V75.4455Z" fill="#0B3356" />
    <path d="M509.552 69.4434L517.777 77.6634" stroke="white" stroke-width="3" stroke-miterlimit="10"
      stroke-linecap="round" />
    <path d="M517.777 69.4424L509.552 77.6634" stroke="white" stroke-width="3" stroke-miterlimit="10"
      stroke-linecap="round" />
    <g style="mix-blend-mode:color-burn" opacity="0.4">
      <path
        d="M477.865 237.764C462.965 237.764 448.399 242.183 436.009 250.462C423.62 258.74 413.964 270.507 408.262 284.274C402.56 298.04 401.068 313.189 403.975 327.803C406.882 342.417 414.058 355.842 424.595 366.378C435.131 376.914 448.556 384.089 463.17 386.996C477.784 389.903 492.933 388.411 506.699 382.709C520.466 377.006 532.232 367.35 540.51 354.96C548.789 342.571 553.207 328.004 553.207 313.104C553.207 303.21 551.259 293.413 547.472 284.272C543.686 275.131 538.136 266.826 531.14 259.83C524.144 252.834 515.838 247.284 506.697 243.498C497.556 239.712 487.759 237.763 477.865 237.764ZM477.865 353.256C469.924 353.255 462.161 350.9 455.558 346.488C448.956 342.076 443.809 335.805 440.77 328.468C437.732 321.132 436.937 313.058 438.486 305.27C440.035 297.481 443.86 290.327 449.475 284.712C455.09 279.096 462.245 275.272 470.033 273.723C477.822 272.174 485.895 272.969 493.232 276.008C500.569 279.047 506.84 284.194 511.252 290.797C515.664 297.399 518.018 305.162 518.018 313.104C518.019 318.377 516.982 323.599 514.964 328.472C512.947 333.344 509.989 337.772 506.261 341.501C502.532 345.23 498.105 348.189 493.233 350.207C488.361 352.225 483.139 353.264 477.865 353.264V353.256Z"
        fill="#9B9B9B" />
    </g>
    <g style="mix-blend-mode:color-burn" opacity="0.4">
      <path
        d="M407.792 104.458C398.635 104.458 389.683 107.174 382.069 112.261C374.455 117.349 368.52 124.58 365.016 133.041C361.512 141.501 360.595 150.811 362.382 159.793C364.169 168.774 368.579 177.024 375.055 183.499C381.531 189.974 389.781 194.383 398.763 196.169C407.744 197.955 417.054 197.037 425.514 193.532C433.974 190.027 441.205 184.092 446.292 176.477C451.379 168.863 454.093 159.91 454.092 150.753C454.091 138.474 449.212 126.699 440.529 118.017C431.847 109.335 420.071 104.458 407.792 104.458V104.458ZM407.792 175.427C402.912 175.427 398.142 173.98 394.085 171.269C390.027 168.558 386.865 164.705 384.997 160.196C383.13 155.688 382.641 150.727 383.593 145.941C384.545 141.155 386.895 136.759 390.345 133.308C393.796 129.857 398.192 127.507 402.978 126.555C407.764 125.603 412.725 126.092 417.233 127.959C421.742 129.826 425.595 132.988 428.307 137.046C431.018 141.103 432.465 145.873 432.465 150.753C432.465 153.993 431.827 157.202 430.588 160.195C429.348 163.189 427.53 165.909 425.239 168.2C422.948 170.492 420.228 172.309 417.235 173.549C414.241 174.789 411.032 175.427 407.792 175.427Z"
        fill="#9B9B9B" />
    </g>
    <g style="mix-blend-mode:color-burn" opacity="0.4">
      <path
        d="M87.8543 170.405C77.7238 170.406 67.8209 173.41 59.398 179.039C50.975 184.667 44.4102 192.667 40.5337 202.026C36.6572 211.386 35.6431 221.684 37.6197 231.62C39.5963 241.556 44.4748 250.683 51.6383 257.846C58.8017 265.009 67.9284 269.887 77.8643 271.863C87.8001 273.839 98.0989 272.825 107.458 268.948C116.817 265.071 124.817 258.506 130.445 250.083C136.073 241.66 139.077 231.757 139.077 221.626C139.077 214.9 137.752 208.239 135.178 202.025C132.604 195.81 128.83 190.163 124.074 185.407C119.318 180.651 113.671 176.878 107.456 174.304C101.242 171.73 94.5809 170.405 87.8543 170.405V170.405ZM87.8543 248.925C82.4549 248.925 77.1767 247.324 72.6872 244.324C68.1978 241.325 64.6986 237.061 62.6324 232.073C60.5661 227.084 60.0255 221.595 61.0788 216.299C62.1322 211.004 64.7323 206.139 68.5503 202.321C72.3682 198.503 77.2326 195.903 82.5283 194.85C87.824 193.796 93.3131 194.337 98.3015 196.403C103.29 198.47 107.554 201.969 110.553 206.458C113.553 210.948 115.154 216.226 115.154 221.625C115.154 225.21 114.448 228.76 113.076 232.073C111.704 235.385 109.693 238.394 107.158 240.929C104.623 243.464 101.614 245.475 98.3015 246.847C94.9893 248.219 91.4394 248.925 87.8543 248.925V248.925Z"
        fill="#9B9B9B" />
    </g>
    <g style="mix-blend-mode:color-burn" opacity="0.4">
      <path
        d="M160.123 358.907C151.783 337.429 153.563 278.396 208.206 206.04C197.335 165.388 213.191 100.59 241.744 87.6689L291.544 88.8689C291.544 88.8689 341.344 231.302 331.087 358.903L160.123 358.907Z"
        fill="#9B9B9B" />
    </g>
    <path
      d="M456.373 65.2186C455.609 60.3266 453.419 56.2826 454.897 45.6906C455.397 42.0786 454.832 41.8466 455.177 38.8716C455.365 37.2716 456.461 35.7146 456.463 34.2646C456.463 29.7966 455.955 30.2306 455.996 27.7346C456.726 22.0716 466.14 30.7476 462.681 42.4156C463 48.7536 463.709 48.6436 464.281 48.1156C464.557 47.8556 467.481 45.4066 469.639 39.1826C470.727 36.0446 471.403 30.0576 472.764 26.6776C474.185 23.1586 474.915 19.7346 476.78 16.8956C478.926 13.6306 480.821 11.6806 482.655 14.0436C483.22 14.7706 482.939 17.3856 481.416 20.7806C480.282 23.3136 480.363 24.3026 479.145 27.5066C478.187 30.5976 476.2 39.8416 476.465 40.0126C476.641 40.1246 479.531 32.9936 483.485 25.7406C484.935 23.0776 486.112 21.2936 486.942 19.6276C488.362 16.7856 490.642 16.6846 491.242 17.3096C492.542 18.6616 492.403 20.5576 490.769 24.4966C489.861 26.6796 488.48 29.3616 487.121 32.0376C484.366 37.4546 482.257 42.2266 482.462 42.5006C482.5 42.5496 482.993 44.3936 483.611 43.4576C485.872 40.0376 491.153 29.0216 494.06 25.2066C496.17 22.4416 497.504 24.4286 497.392 26.8066C497.316 28.5914 496.742 30.3193 495.736 31.7956C495.084 32.8246 493.802 36.2696 492.497 38.6416C490.822 41.6846 488.591 45.7556 488.652 45.9476C488.666 45.9926 489.152 47.0966 489.799 46.0106C490.967 44.0386 492.499 40.5286 494.489 37.4336C495.146 35.643 496.133 33.9915 497.399 32.5646C498.39 31.5836 499.271 32.5266 499.499 33.2006C500.149 35.1006 499.915 35.9236 498.858 38.4816C498.028 40.4816 497.258 42.3496 496.787 43.1976C495.778 45.0036 494.229 47.9286 493.37 49.7116C491.892 52.5097 490.565 55.3848 489.393 58.3246C487.093 64.7906 479.529 74.0946 475.101 78.9126C474.092 82.7226 465.244 111.922 465.244 111.922C465.244 111.922 443.866 112.929 445.666 106.972C447.466 101.015 454.27 73.6376 456.373 65.2186Z"
      fill="#FFA383" />
    <path
      d="M334.61 198.02C342.179 201.264 388.075 181.22 406.185 178.792C411.05 177.981 428.195 115.937 436.44 95.3257C444.319 75.6257 486.371 100.137 483.893 111.577C481.406 123.057 444.904 212.802 437.876 222.352C430.848 231.902 355.793 262.364 349.34 284.441"
      fill="#FF692E" />
    <path
      d="M444.425 91.3476C447.8 85.9376 451.995 78.9146 452.897 74.7696C453.799 70.6246 478.402 79.1236 476.148 83.8086C472.882 90.5986 472.454 98.7326 472.54 101.801C472.673 106.576 442.264 94.8166 444.425 91.3476Z"
      fill="#EA4613" />
    <g style="mix-blend-mode:color-burn">
      <path d="M469.08 101.035C469.08 101.035 469.485 89.7147 474.094 82.7217Z" fill="#9B9B9B" />
    </g>
    <g style="mix-blend-mode:color-burn">
      <path d="M466.166 99.4126C466.166 99.4126 466.573 88.0936 471.18 81.0986Z" fill="#9B9B9B" />
    </g>
    <g style="mix-blend-mode:color-burn">
      <path d="M462.334 98.3316C462.334 98.3316 462.658 87.3706 468.009 80.0186Z" fill="#9B9B9B" />
    </g>
    <g style="mix-blend-mode:color-burn">
      <path d="M459.134 97.0372C459.134 97.0372 459.568 86.0802 464.994 78.7822Z" fill="#9B9B9B" />
    </g>
    <g style="mix-blend-mode:color-burn">
      <path d="M454.767 95.358C454.767 95.358 456.794 83.532 462.067 77.585Z" fill="#9B9B9B" />
    </g>
    <g style="mix-blend-mode:color-burn">
      <path d="M451.834 94.2095C451.834 94.2095 453.863 82.3825 459.134 76.4365Z" fill="#9B9B9B" />
    </g>
    <g style="mix-blend-mode:color-burn">
      <path d="M447.859 92.1821C447.859 92.1821 450.833 81.1671 456.373 75.8291Z" fill="#9B9B9B" />
    </g>
    <path
      d="M334.424 207.496C328.524 193.458 341.969 119.243 328.924 90.6584C320.954 73.2034 302.102 62.7264 285.592 69.4314C272.94 69.0314 264.751 78.3824 258.473 89.6824C246.55 111.15 258.173 134.918 251.399 141.012C240.256 151.03 231.36 158.7 231.676 170.297C232.146 187.497 244.621 192.949 241.948 205.78C234.394 242.035 334.424 207.496 334.424 207.496Z"
      fill="#2993E2" />
    <g style="mix-blend-mode:multiply">
      <path
        d="M256.057 144.496C252.871 159.002 261.984 166.449 263.252 174.46C264.427 181.886 263.098 192.394 256.109 196.768L270.897 193.609L274.936 162.728L264.363 143.523L256.057 144.496Z"
        fill="#E2E2E2" />
    </g>
    <path
      d="M305.363 192.073C322.856 200.073 350.163 218.45 354.95 233.073C359.737 247.696 342.633 308.893 341.866 326.34C341.099 343.787 340.65 353.888 340.232 363.377C339.597 377.763 220.296 373.426 220.971 358.122C221.389 348.633 221.834 338.533 222.602 321.086C223.37 303.639 211.712 241.177 217.768 227.029C223.824 212.881 252.641 196.976 270.768 190.547L305.363 192.073Z"
      fill="#FF692E" />
    <path
      d="M337.485 134.353C336.249 141.282 330.449 149.981 325.392 147.059C321.32 144.702 317.969 140.926 319.198 133.997C320.427 127.068 324.232 123.808 329.822 122.935C335.844 121.996 338.71 127.421 337.485 134.353Z"
      fill="#E5886E" />
    <path
      d="M336.227 125.48C335.178 124.047 329.227 123.042 327.268 128.203L328.129 123.29C329.481 122.789 330.945 122.667 332.362 122.937C333.153 123.051 333.91 123.338 334.577 123.778C335.245 124.217 335.808 124.798 336.227 125.48V125.48Z"
      fill="#FFA383" />
    <path
      d="M247.535 130.39C248.154 137.401 253.167 146.577 258.465 144.111C262.724 142.12 266.395 138.655 265.78 131.644C265.165 124.633 261.662 121.051 256.172 119.691C250.256 118.225 246.919 123.377 247.535 130.39Z"
      fill="#E5886E" />
    <path
      d="M249.566 121.663C250.747 120.328 256.758 119.849 258.256 125.163L257.832 120.192C256.528 119.576 255.08 119.327 253.644 119.47C252.845 119.513 252.065 119.732 251.361 120.111C250.656 120.49 250.043 121.02 249.566 121.663Z"
      fill="#FFA383" />
    <path
      d="M268.141 163.805C270 171.53 266.2 188.525 265.503 192.783C263.911 193.375 253.258 198.189 253.258 198.189C250.222 208.689 258.887 217.1 266.99 228.147C276.158 240.647 286.719 258.747 285.939 272.821L289.316 272.971C297.016 243.693 315.956 207.798 311.524 195.162C310.981 193.497 307.951 179.043 311.158 166.627L268.141 163.805Z"
      fill="#FFA383" />
    <path
      d="M268.61 168.337C268.724 170.78 268.633 173.228 268.338 175.656C268.338 175.656 280.149 190.963 289.048 191.356C297.947 191.749 309.928 178.613 309.928 178.613C309.928 178.613 310.139 169.473 310.716 165.681L268.61 168.337Z"
      fill="#E5886E" />
    <path
      d="M328.299 119.414C328.096 124.028 326.985 128.557 325.032 132.742C323.078 136.927 320.319 140.686 316.912 143.805C313.506 146.924 309.518 149.341 305.177 150.919C300.836 152.497 296.227 153.204 291.613 153C286.999 152.797 282.47 151.686 278.285 149.733C274.1 147.779 270.341 145.02 267.222 141.613C264.104 138.207 261.686 134.219 260.109 129.878C258.531 125.537 257.824 120.928 258.027 116.314C259.174 90.2633 275.454 78.4283 294.864 79.2823C314.274 80.1363 329.421 93.9093 328.299 119.414Z"
      fill="#FFA383" />
    <path
      d="M328.299 119.414C327.47 138.207 326.776 153.939 319.163 163.838C314.574 169.8 302.902 179.885 294.663 182.206C292.618 182.777 286.863 182.191 284.881 181.393C276.951 178.186 267.081 167.423 263.214 161.374C256.502 150.843 257.195 135.112 258.023 116.319"
      fill="#FFA383" />
    <path
      d="M313.856 133.412C313.716 136.603 311.679 139.112 309.307 139.012C306.935 138.912 305.123 136.229 305.262 133.038C305.401 129.847 307.436 127.338 309.815 127.438C312.194 127.538 313.995 130.214 313.856 133.412Z"
      fill="#0E263F" />
    <path
      d="M280.61 131.746C280.47 134.938 278.428 137.446 276.053 137.346C273.678 137.246 271.871 134.563 272.01 131.372C272.149 128.181 274.19 125.672 276.561 125.772C278.932 125.872 280.75 128.549 280.61 131.746Z"
      fill="#0E263F" />
    <path d="M299.704 117.063C299.704 117.063 315.45 117.143 322.367 122.163" stroke="#0E263F" stroke-width="5"
      stroke-miterlimit="10" stroke-linecap="round" />
    <path d="M286.162 117.563C286.162 117.563 271.444 117.002 263.94 122.063" stroke="#0E263F" stroke-width="5"
      stroke-miterlimit="10" stroke-linecap="round" />
    <path
      d="M285.588 151.657C287.662 150.899 295 151.157 296.696 152.147C298.392 153.137 292.932 154.121 291.048 154.037C289.164 153.953 283.921 152.371 285.588 151.657Z"
      fill="#E5886E" />
    <path opacity="0.5"
      d="M295.462 172.422C291.749 171.754 287.964 171.587 284.208 171.927C282.398 172.166 286.581 170.533 289.852 170.677C292.844 170.809 297.178 172.878 295.462 172.422Z"
      fill="#E5886E" />
    <path
      d="M280.21 159.163C286.971 161.501 295.31 161.478 301.743 160.997C302.543 160.938 302.187 161.059 301.399 161.966C300.118 163.447 296.015 167.993 290.536 167.706C285.269 167.431 280.746 160.853 279.604 158.952C279.162 158.221 279.602 158.952 280.21 159.163Z"
      fill="white" />
    <path
      d="M257.635 139.239C254.974 137.281 253.327 134.823 255.277 131.889C255.88 131.023 256.61 130.254 257.443 129.607C262.316 125.647 259.779 134.521 259.779 134.521L257.635 139.239Z"
      fill="#FFA383" />
    <path
      d="M278.526 157.826C282.826 158.548 288.161 156.136 290.58 158.807C293.941 156.668 299.713 160.482 304.11 160.476C304.193 160.476 304.329 160.634 304.025 160.725C301.701 161.425 288.684 164.02 278.444 158.291C277.941 158.01 277.983 157.735 278.526 157.826Z"
      fill="#EA4939" />
    <path
      d="M278.796 158.374C278.796 158.374 282.196 163.989 284.648 166.26C287.002 168.435 293.671 169.191 296.412 167.344C298.893 165.677 303.064 160.715 303.064 160.715L302.04 161.008C299.678 162.399 298.24 163.871 295.513 164.79C292.844 165.712 289.949 165.751 287.255 164.902C283.776 163.793 283.027 161.193 280.612 159.246L279.429 158.535L278.796 158.374Z"
      fill="#EA4939" />
    <path
      d="M281.192 159.618C283.029 161.018 286.454 162.294 290.792 162.629C294.453 162.777 298.112 162.314 301.62 161.26C298.112 161.722 294.573 161.912 291.035 161.828C287.659 161.609 284.338 160.863 281.192 159.618Z"
      fill="#E2E2E2" />
    <path
      d="M257.635 139.238C257.607 128.506 261.525 113.268 268.383 107.138C274.075 102.048 283.283 96.5973 281.937 87.3523C281.494 90.8451 282.072 94.3913 283.6 97.5632C285.128 100.735 287.541 103.397 290.548 105.228C298.193 110.2 334.348 110.728 323.513 139.966L327.57 135.956L328.149 121.031L318.111 106.214L280.938 80.6553L261.038 106.815L255.977 125.063L257.635 139.238Z"
      fill="#E5886E" />
    <path
      d="M326.89 140.563C327.148 130.91 328.129 123.289 320.585 115.996C309.969 105.731 299.968 108.707 291.4 102.301C287.767 99.649 284.945 96.037 283.25 91.8704C281.555 87.7037 281.055 83.1473 281.806 78.7123L294.623 77.4473L307.606 79.8473L322.321 91.5473L329.474 108.647C329.474 108.647 330.883 114.634 329.96 124.519C329.528 129.964 328.499 135.344 326.89 140.563V140.563Z"
      fill="#2993E2" />
    <path
      d="M284.185 78.7637C259.637 86.3697 257.891 98.5247 255.848 112.687C254.676 121.569 255.283 130.596 257.634 139.242C257.14 133.062 258.62 110.136 270.685 101.804C282.75 93.4717 281.936 87.3567 281.936 87.3567L284.185 78.7637Z"
      fill="#2993E2" />
    <g style="mix-blend-mode:multiply">
      <path
        d="M281.937 87.3536C281.937 87.3536 280.137 75.5596 285.589 69.4316C285.589 69.4316 280.91 69.8316 279.033 75.9386C277.288 81.6066 281.937 87.3536 281.937 87.3536Z"
        fill="#E2E2E2" />
    </g>
    <path
      d="M247.401 201.317C245.74 211.247 251.955 218.651 261.667 231.96C271.379 245.269 282.034 259.31 282.825 272.685C283.734 288.053 276.708 363.039 276.708 363.039L283.87 363.353L289.316 272.971C289.651 262.404 282.49 251.057 277.149 242.054C271.808 233.051 258.933 217.91 256.189 212.228C253.445 206.546 252.183 202.694 253.258 198.189C253.258 198.189 249.51 196.927 247.401 201.317Z"
      fill="#EA4613" />
    <path
      d="M288.854 271.57C290.265 266.537 295.182 253.218 296.971 249.156C298.76 245.094 301.916 253.097 301.916 253.097C301.916 253.097 288.796 286.286 287.851 297.285C286.906 308.284 286.775 280.449 286.775 280.449L288.854 271.57Z"
      fill="#EA4613" />
    <path
      d="M349.34 284.441C350.94 276.331 357.129 260.812 354.626 247.172C352.123 233.532 358.97 245.544 363.657 247.646C368.344 249.748 432.357 232.74 437.875 222.352C436.562 224.159 434.87 225.657 432.916 226.741C425.507 231.311 410.98 238.848 395.825 247.406C361.36 266.864 350.686 277.787 349.34 284.441Z"
      fill="#EA4613" />
    <path
      d="M383.91 184.715C388.21 183.347 405.103 180.372 411.231 187.399C417.359 194.426 417.72 187.775 415.197 184.799C412.674 181.823 410.105 174.114 410.497 171.584C408.771 175.751 407.812 177.357 406.697 178.527C404.745 179.464 403.8 178.208 383.91 184.715Z"
      fill="#EA4613" />
    <path
      d="M438.529 91.8779C436.996 94.1109 447.092 102.336 461.329 106.843C475.566 111.35 483.237 111.975 483.997 110.312C483.997 110.312 484.597 111.612 478.511 127.431C478.511 127.431 481.545 116.354 475.026 115.803C467.313 115.152 450.026 110.766 440.333 99.2399C438.162 96.6579 436.506 97.7239 433.359 103.684C436.288 95.7029 437.11 93.0639 438.529 91.8779Z"
      fill="#EA4613" />
    <path
      d="M247.461 270.382C247.461 270.382 236.613 295.792 240.668 301.739C244.723 307.686 253.478 309.139 253.478 313.199C253.478 317.259 243.912 312.281 244.453 316.336C244.829 319.166 274.243 344.836 280.764 354.809C283.586 359.123 279.864 370.276 280.675 371.909L277.32 371.764C267.82 363.736 233.91 328.229 233.91 328.229C233.91 328.229 224.078 292.278 225.345 289.847C226.612 287.416 234.18 268.762 234.991 267.409C235.802 266.056 247.461 270.382 247.461 270.382Z"
      fill="#EA4613" />
    <path
      d="M220.529 222.352C209.544 231.224 165.29 306.297 171.199 331.202C176.245 352.467 231.663 397.517 240.038 399.682C254.563 403.434 293.977 364.361 274.938 353.908C255.899 343.455 231.91 312.823 230.745 308.864C229.58 304.905 250.129 264.532 250.129 264.532"
      fill="#FF692E" />
    <path
      d="M346.218 299.856C342.304 308.766 326.065 327.956 327.157 334.985C328.249 342.014 341.514 347.985 340.423 359.056C340.423 359.056 340.502 324.443 346.218 299.856Z"
      fill="#EA4613" />
    <g style="mix-blend-mode:multiply">
      <path
        d="M288.467 236.053C289.053 242.361 293.56 257.853 293.56 257.853L296.654 250.245C296.654 250.245 289.683 246.686 288.467 236.053Z"
        fill="#E2E2E2" />
    </g>
    <path
      d="M293.561 257.858C300.226 263.086 328.473 267.501 338.925 251.458C349.377 235.415 345.286 222.349 345.286 222.349L296.655 250.249L293.561 257.858Z"
      fill="#EA4613" />
    <path
      d="M170.66 323.272C171.2 331.201 246.24 401.272 260.438 391.284C260.438 391.284 249.41 401.123 240.037 399.684C233.91 398.963 190.311 364.106 176.611 342.248C168.677 330.121 170.388 324.956 170.66 323.272Z"
      fill="#EA4613" />
    <g style="mix-blend-mode:soft-light">
      <path
        d="M363.734 196.764C363.734 198.51 363.216 200.217 362.246 201.669C361.276 203.121 359.897 204.253 358.283 204.921C356.67 205.59 354.894 205.765 353.182 205.424C351.469 205.083 349.895 204.242 348.66 203.007C347.426 201.772 346.585 200.199 346.244 198.486C345.903 196.773 346.078 194.998 346.746 193.384C347.415 191.771 348.546 190.392 349.999 189.422C351.451 188.451 353.158 187.934 354.904 187.934C357.246 187.934 359.492 188.864 361.148 190.52C362.804 192.176 363.734 194.422 363.734 196.764V196.764Z"
        fill="#EDEDED" />
    </g>
    <g style="mix-blend-mode:soft-light">
      <path
        d="M389.683 223.98C389.683 225.727 389.165 227.434 388.195 228.886C387.224 230.338 385.845 231.469 384.232 232.138C382.618 232.806 380.843 232.98 379.13 232.64C377.417 232.299 375.844 231.458 374.609 230.223C373.375 228.988 372.534 227.415 372.193 225.702C371.852 223.989 372.027 222.213 372.696 220.6C373.364 218.987 374.496 217.608 375.948 216.637C377.4 215.667 379.107 215.149 380.853 215.149C383.195 215.15 385.441 216.08 387.097 217.736C388.753 219.392 389.683 221.638 389.683 223.98V223.98Z"
        fill="#EDEDED" />
    </g>
    <g style="mix-blend-mode:soft-light">
      <path
        d="M402.438 186.177C402.438 187.923 401.92 189.63 400.95 191.082C399.979 192.534 398.6 193.666 396.987 194.334C395.373 195.002 393.598 195.177 391.885 194.836C390.172 194.495 388.599 193.654 387.364 192.419C386.129 191.184 385.289 189.611 384.948 187.898C384.607 186.185 384.782 184.41 385.451 182.796C386.119 181.183 387.251 179.804 388.703 178.834C390.155 177.864 391.862 177.346 393.608 177.346C395.95 177.346 398.196 178.276 399.852 179.933C401.508 181.589 402.438 183.835 402.438 186.177V186.177Z"
        fill="#EDEDED" />
    </g>
    <g style="mix-blend-mode:soft-light">
      <path
        d="M434.33 223.98C434.33 225.727 433.812 227.434 432.841 228.886C431.871 230.339 430.492 231.471 428.878 232.139C427.265 232.807 425.489 232.982 423.776 232.642C422.063 232.301 420.49 231.46 419.255 230.226C418.02 228.991 417.178 227.417 416.837 225.704C416.496 223.992 416.671 222.216 417.339 220.602C418.007 218.989 419.139 217.609 420.591 216.639C422.043 215.668 423.75 215.15 425.496 215.149C426.656 215.149 427.805 215.378 428.876 215.821C429.948 216.265 430.922 216.916 431.742 217.736C432.562 218.556 433.213 219.529 433.657 220.601C434.101 221.672 434.329 222.821 434.33 223.98V223.98Z"
        fill="#EDEDED" />
    </g>
    <g style="mix-blend-mode:soft-light">
      <path
        d="M447.859 196.769C452.736 196.769 456.689 192.816 456.689 187.939C456.689 183.063 452.736 179.109 447.859 179.109C442.983 179.109 439.029 183.063 439.029 187.939C439.029 192.816 442.983 196.769 447.859 196.769Z"
        fill="#EDEDED" />
    </g>
    <g style="mix-blend-mode:soft-light">
      <path
        d="M355.048 273.933C355.048 275.679 354.53 277.387 353.56 278.839C352.59 280.291 351.21 281.423 349.597 282.091C347.983 282.76 346.207 282.935 344.494 282.594C342.781 282.253 341.208 281.412 339.973 280.177C338.738 278.942 337.897 277.368 337.556 275.655C337.215 273.942 337.39 272.167 338.058 270.553C338.727 268.939 339.859 267.56 341.311 266.59C342.763 265.62 344.471 265.102 346.217 265.102C348.559 265.102 350.805 266.032 352.461 267.688C354.117 269.344 355.048 271.591 355.048 273.933V273.933Z"
        fill="#EDEDED" />
    </g>
    <g style="mix-blend-mode:soft-light">
      <path
        d="M313.043 303.186C313.043 304.932 312.524 306.639 311.554 308.09C310.583 309.542 309.204 310.673 307.59 311.341C305.977 312.009 304.201 312.184 302.489 311.842C300.776 311.501 299.203 310.66 297.968 309.425C296.734 308.19 295.893 306.617 295.553 304.904C295.212 303.191 295.387 301.416 296.056 299.803C296.724 298.189 297.856 296.811 299.308 295.84C300.76 294.87 302.467 294.353 304.213 294.353C305.373 294.352 306.522 294.581 307.593 295.024C308.665 295.468 309.639 296.119 310.459 296.939C311.279 297.76 311.929 298.733 312.373 299.805C312.816 300.877 313.044 302.026 313.043 303.186Z"
        fill="#EDEDED" />
    </g>
    <g style="mix-blend-mode:soft-light">
      <path
        d="M339.102 340.824C339.102 342.57 338.584 344.277 337.614 345.729C336.644 347.181 335.265 348.312 333.652 348.98C332.038 349.648 330.263 349.823 328.551 349.482C326.838 349.142 325.265 348.301 324.03 347.066C322.796 345.831 321.955 344.258 321.614 342.546C321.273 340.833 321.448 339.058 322.116 337.445C322.784 335.832 323.916 334.453 325.368 333.483C326.819 332.512 328.526 331.994 330.272 331.994C331.432 331.994 332.58 332.222 333.652 332.666C334.723 333.109 335.697 333.76 336.517 334.58C337.337 335.4 337.987 336.373 338.431 337.445C338.874 338.516 339.103 339.665 339.102 340.824Z"
        fill="#EDEDED" />
    </g>
    <g style="mix-blend-mode:soft-light">
      <path
        d="M308.536 372.174C308.536 373.92 308.018 375.628 307.047 377.08C306.077 378.532 304.698 379.664 303.084 380.332C301.471 381.001 299.695 381.176 297.982 380.835C296.269 380.495 294.696 379.654 293.46 378.419C292.225 377.184 291.384 375.61 291.043 373.897C290.702 372.184 290.877 370.409 291.545 368.795C292.214 367.181 293.345 365.802 294.798 364.832C296.25 363.861 297.957 363.343 299.704 363.343C300.863 363.343 302.012 363.571 303.083 364.015C304.155 364.458 305.128 365.109 305.949 365.929C306.769 366.749 307.419 367.723 307.863 368.794C308.307 369.866 308.536 371.014 308.536 372.174Z"
        fill="#EDEDED" />
    </g>
    <g style="mix-blend-mode:soft-light">
      <path
        d="M264.21 346.435C264.21 348.141 263.715 349.81 262.785 351.241C261.856 352.672 260.532 353.803 258.974 354.497C257.415 355.191 255.689 355.419 254.004 355.153C252.318 354.887 250.746 354.139 249.477 352.998C248.209 351.858 247.297 350.374 246.854 348.726C246.41 347.079 246.454 345.338 246.979 343.715C247.503 342.091 248.487 340.655 249.811 339.579C251.135 338.503 252.743 337.833 254.439 337.652C254.753 337.619 259.116 342.486 264.21 346.435Z"
        fill="#EDEDED" />
    </g>
    <g style="mix-blend-mode:soft-light">
      <path
        d="M243.011 396.17C243.01 397.916 242.492 399.623 241.522 401.075C240.552 402.527 239.173 403.659 237.559 404.327C235.946 404.995 234.17 405.17 232.458 404.829C230.745 404.488 229.172 403.647 227.937 402.413C226.702 401.178 225.861 399.605 225.52 397.892C225.18 396.179 225.354 394.404 226.023 392.79C226.691 391.177 227.822 389.798 229.274 388.827C230.726 387.857 232.433 387.339 234.18 387.339C235.339 387.339 236.488 387.567 237.559 388.011C238.631 388.455 239.604 389.105 240.424 389.925C241.244 390.745 241.895 391.719 242.339 392.79C242.782 393.862 243.011 395.01 243.011 396.17V396.17Z"
        fill="#EDEDED" />
    </g>
    <g style="mix-blend-mode:soft-light">
      <path
        d="M215.378 350.515C215.378 352.261 214.86 353.968 213.89 355.42C212.919 356.872 211.54 358.004 209.927 358.672C208.313 359.34 206.538 359.515 204.825 359.174C203.112 358.833 201.539 357.992 200.304 356.757C199.069 355.522 198.228 353.949 197.888 352.236C197.547 350.523 197.722 348.748 198.39 347.134C199.059 345.521 200.191 344.142 201.643 343.172C203.095 342.201 204.802 341.684 206.548 341.684C208.89 341.684 211.136 342.614 212.792 344.271C214.448 345.927 215.378 348.173 215.378 350.515V350.515Z"
        fill="#EDEDED" />
    </g>
    <g style="mix-blend-mode:soft-light">
      <path
        d="M231.663 309.176C231.663 310.922 231.146 312.629 230.175 314.081C229.205 315.534 227.826 316.665 226.212 317.334C224.599 318.002 222.823 318.177 221.11 317.836C219.398 317.495 217.824 316.654 216.589 315.419C215.354 314.184 214.514 312.611 214.173 310.898C213.832 309.185 214.007 307.409 214.676 305.796C215.344 304.182 216.476 302.803 217.928 301.833C219.381 300.863 221.088 300.346 222.834 300.346C225.176 300.346 227.422 301.276 229.078 302.932C230.733 304.588 231.663 306.834 231.663 309.176V309.176Z"
        fill="#EDEDED" />
    </g>
    <g style="mix-blend-mode:soft-light">
      <path
        d="M187.979 300.449C187.979 302.196 187.461 303.903 186.491 305.355C185.52 306.807 184.141 307.939 182.527 308.607C180.913 309.276 179.138 309.45 177.425 309.109C175.712 308.768 174.138 307.927 172.903 306.692C171.668 305.457 170.827 303.883 170.487 302.17C170.146 300.457 170.321 298.681 170.99 297.068C171.659 295.454 172.791 294.075 174.243 293.105C175.695 292.135 177.403 291.617 179.149 291.617C180.309 291.617 181.458 291.845 182.529 292.289C183.601 292.733 184.574 293.384 185.394 294.204C186.214 295.024 186.865 295.998 187.308 297.069C187.752 298.141 187.98 299.289 187.979 300.449Z"
        fill="#EDEDED" />
    </g>
    <g style="mix-blend-mode:soft-light">
      <path
        d="M243.011 267.148C243.01 268.895 242.492 270.602 241.522 272.054C240.552 273.506 239.173 274.637 237.559 275.305C235.946 275.974 234.17 276.148 232.458 275.808C230.745 275.467 229.172 274.626 227.937 273.391C226.702 272.156 225.861 270.583 225.52 268.87C225.18 267.158 225.354 265.382 226.023 263.769C226.691 262.155 227.822 260.776 229.274 259.806C230.726 258.836 232.433 258.318 234.18 258.317C235.339 258.317 236.488 258.546 237.559 258.989C238.631 259.433 239.604 260.084 240.424 260.904C241.244 261.724 241.895 262.697 242.339 263.769C242.782 264.84 243.011 265.989 243.011 267.148V267.148Z"
        fill="#EDEDED" />
    </g>
    <g style="mix-blend-mode:soft-light">
      <path
        d="M206.548 257.864C206.548 259.611 206.03 261.318 205.06 262.77C204.09 264.223 202.71 265.355 201.097 266.023C199.483 266.691 197.707 266.866 195.994 266.526C194.281 266.185 192.708 265.344 191.473 264.109C190.238 262.874 189.397 261.3 189.056 259.587C188.715 257.874 188.89 256.098 189.558 254.485C190.227 252.871 191.359 251.492 192.811 250.522C194.263 249.551 195.971 249.033 197.717 249.033C198.877 249.033 200.025 249.261 201.097 249.705C202.168 250.149 203.142 250.799 203.962 251.619C204.782 252.44 205.433 253.413 205.876 254.485C206.32 255.556 206.548 256.704 206.548 257.864V257.864Z"
        fill="#EDEDED" />
    </g>
    <g style="mix-blend-mode:soft-light">
      <path
        d="M239.138 218.389C239.137 220.135 238.619 221.843 237.649 223.295C236.678 224.747 235.298 225.879 233.684 226.547C232.071 227.215 230.295 227.39 228.582 227.049C226.869 226.707 225.295 225.866 224.06 224.63C222.826 223.395 221.985 221.821 221.645 220.108C221.305 218.394 221.48 216.619 222.149 215.005C222.818 213.392 223.951 212.013 225.403 211.043C226.856 210.073 228.564 209.556 230.311 209.557C232.652 209.558 234.897 210.489 236.553 212.145C238.208 213.801 239.138 216.047 239.138 218.389V218.389Z"
        fill="#EDEDED" />
    </g>
    <g style="mix-blend-mode:soft-light">
      <path
        d="M274.677 291.619C274.677 293.366 274.159 295.073 273.188 296.525C272.218 297.978 270.839 299.109 269.225 299.778C267.611 300.446 265.836 300.621 264.123 300.28C262.41 299.94 260.836 299.099 259.601 297.864C258.366 296.629 257.525 295.055 257.184 293.342C256.844 291.629 257.018 289.853 257.687 288.24C258.355 286.626 259.487 285.247 260.939 284.276C262.392 283.306 264.099 282.788 265.846 282.788C267.005 282.788 268.154 283.016 269.225 283.46C270.297 283.904 271.27 284.554 272.09 285.374C272.91 286.194 273.561 287.168 274.005 288.239C274.448 289.311 274.677 290.459 274.677 291.619Z"
        fill="#EDEDED" />
    </g>
    <g style="mix-blend-mode:soft-light">
      <path
        d="M273.849 249.404C272.903 250.16 271.811 250.713 270.642 251.029C269.473 251.345 268.251 251.417 267.053 251.241C265.855 251.065 264.706 250.645 263.677 250.006C262.648 249.367 261.762 248.523 261.073 247.527C260.384 246.531 259.908 245.403 259.673 244.215C259.438 243.027 259.45 241.803 259.708 240.62C259.967 239.437 260.465 238.319 261.174 237.337C261.882 236.355 262.785 235.529 263.826 234.91C265.986 238.309 269.682 243.443 273.849 249.404Z"
        fill="#EDEDED" />
    </g>
    <g style="mix-blend-mode:soft-light">
      <path
        d="M429.659 147.64C429.659 149.386 429.141 151.094 428.171 152.546C427.2 153.999 425.821 155.131 424.207 155.799C422.594 156.468 420.818 156.643 419.105 156.302C417.391 155.961 415.818 155.12 414.583 153.885C413.348 152.649 412.507 151.076 412.166 149.363C411.826 147.649 412.001 145.874 412.669 144.26C413.338 142.646 414.47 141.267 415.923 140.297C417.375 139.327 419.083 138.809 420.83 138.81C423.171 138.81 425.417 139.74 427.073 141.396C428.728 143.052 429.659 145.298 429.659 147.64V147.64Z"
        fill="#EDEDED" />
    </g>
    <g style="mix-blend-mode:soft-light">
      <path
        d="M476.841 140.564C476.841 142.311 476.323 144.018 475.353 145.471C474.383 146.923 473.003 148.055 471.39 148.723C469.776 149.392 468.001 149.566 466.288 149.226C464.575 148.885 463.001 148.044 461.766 146.809C460.531 145.574 459.69 144.001 459.349 142.288C459.008 140.575 459.183 138.799 459.851 137.186C460.519 135.572 461.651 134.193 463.103 133.222C464.555 132.252 466.263 131.734 468.009 131.733C469.169 131.733 470.317 131.962 471.389 132.405C472.461 132.849 473.434 133.5 474.254 134.32C475.074 135.14 475.725 136.113 476.169 137.185C476.613 138.256 476.841 139.405 476.841 140.564Z"
        fill="#EDEDED" />
    </g>
    <g style="mix-blend-mode:soft-light">
      <path
        d="M454.391 109C454.391 110.746 453.873 112.453 452.903 113.905C451.933 115.357 450.554 116.489 448.94 117.157C447.327 117.825 445.551 118 443.839 117.659C442.126 117.318 440.553 116.478 439.318 115.243C438.083 114.008 437.242 112.435 436.901 110.722C436.56 109.009 436.735 107.234 437.403 105.62C438.072 104.007 439.203 102.628 440.655 101.657C442.107 100.687 443.814 100.169 445.56 100.169C445.928 100.169 446.296 100.192 446.66 100.238C448.447 101.401 450.326 102.415 452.277 103.272C453.644 104.867 454.394 106.899 454.391 109Z"
        fill="#EDEDED" />
    </g>
    <g style="mix-blend-mode:multiply" opacity="0.5">
      <path
        d="M349.34 284.441C350.94 276.331 357.129 260.812 354.626 247.172C352.123 233.532 358.97 245.544 363.657 247.646C368.344 249.748 432.357 232.74 437.875 222.352C436.562 224.159 434.87 225.657 432.916 226.741C425.507 231.311 410.98 238.848 395.825 247.406C361.36 266.864 350.686 277.787 349.34 284.441Z"
        fill="#EA4613" />
    </g>
    <g style="mix-blend-mode:multiply" opacity="0.5">
      <path
        d="M383.91 184.715C388.21 183.347 405.103 180.372 411.231 187.399C417.359 194.426 417.72 187.775 415.197 184.799C412.674 181.823 410.105 174.114 410.497 171.584C408.771 175.751 407.812 177.357 406.697 178.527C404.745 179.464 403.8 178.208 383.91 184.715Z"
        fill="#EA4613" />
    </g>
    <g style="mix-blend-mode:multiply" opacity="0.5">
      <path
        d="M438.529 91.8779C436.996 94.1109 447.092 102.336 461.329 106.843C475.566 111.35 483.237 111.975 483.997 110.312C483.997 110.312 484.597 111.612 478.511 127.431C478.511 127.431 481.545 116.354 475.026 115.803C467.313 115.152 450.026 110.766 440.333 99.2399C438.162 96.6579 436.506 97.7239 433.359 103.684C436.288 95.7029 437.11 93.0639 438.529 91.8779Z"
        fill="#EA4613" />
    </g>
    <g style="mix-blend-mode:multiply" opacity="0.5">
      <path
        d="M247.462 270.382C247.462 270.382 236.614 295.792 240.669 301.739C244.724 307.686 253.479 309.139 253.479 313.199C253.479 317.259 243.913 312.281 244.454 316.336C244.83 319.166 274.244 344.836 280.765 354.809C283.587 359.123 279.865 370.276 280.676 371.909L277.321 371.764C281.838 362.558 281.034 356.972 273.376 353.007C252.022 340.823 231.562 310.487 231.562 310.487C231.235 308.38 231.36 306.227 231.929 304.172C236.973 290.656 247.462 270.382 247.462 270.382Z"
        fill="#EA4613" />
    </g>
    <g style="mix-blend-mode:multiply" opacity="0.5">
      <path
        d="M346.218 299.856C342.304 308.766 326.065 327.956 327.157 334.985C328.249 342.014 341.514 347.985 340.423 359.056C340.423 359.056 340.502 324.443 346.218 299.856Z"
        fill="#EA4613" />
    </g>
    <g style="mix-blend-mode:multiply" opacity="0.5">
      <path
        d="M293.561 257.858C300.226 263.086 328.473 267.501 338.925 251.458C349.377 235.415 345.286 222.349 345.286 222.349L296.655 250.249L293.561 257.858Z"
        fill="#EA4613" />
    </g>
    <g style="mix-blend-mode:multiply" opacity="0.5">
      <path
        d="M170.66 323.272C171.2 331.201 246.24 401.272 260.438 391.284C260.438 391.284 249.41 401.123 240.037 399.684C233.91 398.963 190.311 364.106 176.611 342.248C168.677 330.121 170.388 324.956 170.66 323.272Z"
        fill="#EA4613" />
    </g>
    <path
      d="M331.788 99.2432C335.309 115.061 332.571 117.752 340.132 130.914C345.897 140.943 358.101 161.606 346.255 176.414C342.261 181.414 335.142 185.259 334.667 192.314C334.308 197.657 338.267 202.861 340.367 207.593C344.678 217.293 349.035 230.312 342.767 239.969C340.084 243.977 336.581 247.372 332.491 249.928C328.401 252.485 323.815 254.146 319.036 254.801C307.928 256.188 295.179 253.483 290.202 242.183C284.785 229.883 293.058 220.298 301.286 212.383C304.996 208.812 309.563 205.763 310.097 200.129C310.646 194.343 307.547 190.251 304.675 185.476C291.329 163.276 326.375 148.556 326.939 129.695C327.199 121.064 323.222 117.326 327.276 109.495C327.275 109.493 331.783 99.2292 331.788 99.2432Z"
      fill="#2993E2" />
    <g style="mix-blend-mode:multiply">
      <path
        d="M301.997 178.792C314.704 186.07 324.241 189.437 324.308 194.56C324.375 199.683 295.028 214.373 289.254 229.129L289.282 228.499C289.282 228.499 287.845 221.383 294.728 211.406C298.542 205.881 304.008 201.656 305.544 194.724C306.382 190.95 302.2 184.446 301.997 178.792Z"
        fill="#E2E2E2" />
    </g>
    <path
      d="M302.903 299.103C302.837 300.129 302.473 301.113 301.855 301.934C301.237 302.755 300.392 303.378 299.424 303.725C298.457 304.073 297.409 304.129 296.41 303.889C295.41 303.648 294.503 303.12 293.8 302.37C293.097 301.621 292.628 300.682 292.452 299.669C292.276 298.656 292.399 297.614 292.808 296.671C293.216 295.728 293.892 294.925 294.751 294.36C295.61 293.796 296.615 293.495 297.643 293.495C299.084 293.542 300.447 294.159 301.434 295.211C302.42 296.262 302.948 297.662 302.903 299.103V299.103Z"
      fill="#1DD42E" />
    <path
      d="M300.332 346.432C300.266 347.458 299.902 348.442 299.283 349.264C298.665 350.085 297.82 350.707 296.852 351.055C295.885 351.402 294.837 351.458 293.837 351.218C292.838 350.977 291.931 350.449 291.227 349.699C290.524 348.949 290.056 348.01 289.879 346.997C289.703 345.984 289.827 344.942 290.235 343.999C290.644 343.055 291.319 342.252 292.179 341.688C293.038 341.123 294.043 340.822 295.071 340.822C296.512 340.87 297.876 341.488 298.862 342.539C299.848 343.591 300.377 344.991 300.332 346.432V346.432Z"
      fill="#1DD42E" />
    <path
      d="M294.364 300.563C294.364 300.024 295.47 301.586 297.643 301.586C299.911 301.586 300.923 300.149 300.923 300.563C300.923 302.012 299.455 303.187 297.643 303.187C295.831 303.187 294.364 302.009 294.364 300.563Z"
      fill="#1DD42E" />
    <path
      d="M291.792 347.888C291.792 347.349 292.899 348.913 295.071 348.913C297.338 348.913 298.35 347.474 298.35 347.888C298.35 349.339 296.883 350.513 295.071 350.513C293.259 350.513 291.792 349.339 291.792 347.888Z"
      fill="#1DD42E" />
    <g style="mix-blend-mode:soft-light">
      <path
        d="M294.364 300.563C294.364 300.024 295.47 301.586 297.643 301.586C299.911 301.586 300.923 300.149 300.923 300.563C300.923 302.012 299.455 303.187 297.643 303.187C295.831 303.187 294.364 302.009 294.364 300.563Z"
        fill="#EDEDED" />
    </g>
    <g style="mix-blend-mode:soft-light">
      <path
        d="M291.792 347.888C291.792 347.349 292.899 348.913 295.071 348.913C297.338 348.913 298.35 347.474 298.35 347.888C298.35 349.339 296.883 350.513 295.071 350.513C293.259 350.513 291.792 349.339 291.792 347.888Z"
        fill="#EDEDED" />
    </g>
    <g style="mix-blend-mode:multiply" opacity="0.6">
      <path d="M528.166 333.297H100.159V363.563H528.166V333.297Z" fill="#0B3356" />
    </g>
    <path d="M152.761 330.387H100.159V333.297H152.761V330.387Z" fill="#EA4939" />
    <g style="mix-blend-mode:multiply" opacity="0.4">
      <path d="M524.675 330.387H166.684V333.297H524.675V330.387Z" fill="#0B3356" />
    </g>
    <path opacity="0.5" d="M166.684 330.387H153.563V333.297H166.684V330.387Z" fill="white" />
    <path d="M506.041 340.863H502.265V344.636" stroke="white" stroke-width="3" stroke-linejoin="round" />
    <path d="M513.91 344.638V340.863H510.136" stroke="white" stroke-width="3" stroke-linejoin="round" />
    <path d="M510.13 352.516H513.91V348.74" stroke="white" stroke-width="3" stroke-linejoin="round" />
    <path d="M502.264 348.739V352.516H506.039" stroke="white" stroke-width="3" stroke-linejoin="round" />
    <path d="M493.149 344.854H482.864V352.516H493.149V344.854Z" stroke="white" stroke-width="3" stroke-linecap="round"
      stroke-linejoin="round" />
    <path
      d="M91.6245 57.0137V368.22H533.211V57.0137H494.569L493.47 66.3267H524.675V358.907H100.16V66.3267H438L437.863 57.0137H91.6245Z"
      fill="#0B3356" />
    <path
      d="M556.697 290.836C552.566 296.357 500.875 309.511 493.273 308.668C485.671 307.825 474.507 273.08 478.832 264.041C483.157 255.002 538.679 241.177 544.891 245.017C551.103 248.857 560.827 285.317 556.697 290.836Z"
      fill="white" />
    <path
      d="M525.997 272.874L511.331 266.723C510.939 266.559 510.51 266.508 510.091 266.574C509.672 266.64 509.28 266.822 508.958 267.098C508.637 267.375 508.398 267.735 508.27 268.139C508.141 268.544 508.128 268.976 508.231 269.387L512.878 287.892C512.981 288.304 513.197 288.679 513.502 288.975C513.806 289.271 514.187 289.476 514.601 289.568C515.016 289.66 515.448 289.634 515.849 289.494C516.25 289.355 516.604 289.106 516.872 288.776L526.892 276.423C527.115 276.147 527.272 275.823 527.348 275.476C527.425 275.129 527.419 274.769 527.332 274.425C527.245 274.08 527.08 273.761 526.848 273.492C526.616 273.222 526.324 273.011 525.997 272.874V272.874Z"
      fill="#1DD42E" />
    <path
      d="M231.71 152.38H208.065C205.257 152.389 202.566 153.509 200.58 155.495C198.595 157.481 197.475 160.171 197.465 162.98V173.707C197.475 176.515 198.594 179.206 200.58 181.192C202.566 183.178 205.257 184.298 208.065 184.307H225.717L229.08 188.664C229.24 188.87 229.451 189.032 229.692 189.133C229.933 189.235 230.196 189.272 230.455 189.242C230.715 189.212 230.962 189.115 231.174 188.961C231.385 188.807 231.553 188.602 231.661 188.364L233.601 184.129C236.04 183.68 238.244 182.393 239.835 180.491C241.425 178.588 242.301 176.19 242.31 173.711V162.984C242.302 160.175 241.183 157.483 239.197 155.496C237.211 153.509 234.519 152.389 231.71 152.38ZM208.064 171.64C207.486 171.64 206.92 171.468 206.439 171.146C205.958 170.825 205.583 170.368 205.362 169.833C205.141 169.299 205.083 168.711 205.196 168.143C205.308 167.576 205.587 167.054 205.996 166.645C206.405 166.236 206.926 165.957 207.494 165.844C208.061 165.731 208.649 165.789 209.184 166.01C209.719 166.231 210.176 166.606 210.497 167.087C210.819 167.568 210.991 168.133 210.991 168.712C210.992 169.096 210.916 169.477 210.769 169.832C210.623 170.188 210.407 170.511 210.135 170.782C209.864 171.054 209.541 171.27 209.186 171.417C208.83 171.564 208.45 171.64 208.065 171.64H208.064ZM219.948 171.64C219.37 171.64 218.804 171.469 218.323 171.147C217.841 170.826 217.466 170.369 217.245 169.835C217.023 169.3 216.965 168.712 217.077 168.144C217.19 167.577 217.468 167.055 217.877 166.646C218.286 166.237 218.807 165.958 219.375 165.844C219.942 165.731 220.531 165.789 221.065 166.01C221.6 166.231 222.057 166.606 222.379 167.087C222.701 167.568 222.873 168.133 222.873 168.712C222.873 169.488 222.565 170.232 222.017 170.781C221.469 171.33 220.725 171.639 219.949 171.64H219.948ZM231.833 171.64C231.255 171.64 230.689 171.469 230.207 171.148C229.726 170.827 229.351 170.37 229.129 169.835C228.907 169.301 228.849 168.713 228.961 168.145C229.074 167.577 229.352 167.056 229.761 166.646C230.17 166.237 230.691 165.958 231.259 165.844C231.826 165.731 232.414 165.789 232.949 166.01C233.484 166.231 233.941 166.606 234.263 167.087C234.585 167.568 234.757 168.133 234.757 168.712C234.758 169.488 234.45 170.232 233.902 170.781C233.354 171.33 232.61 171.639 231.834 171.64H231.833Z"
      fill="white" />
    <path
      d="M388.166 302.928L388.314 302.982L405.31 308.971L415.145 293.871L415.232 293.738C415.871 292.775 416.314 291.694 416.533 290.56C416.753 289.425 416.745 288.257 416.512 287.125C416.278 285.993 415.822 284.919 415.17 283.964C414.519 283.009 413.685 282.192 412.716 281.561C411.748 280.93 410.664 280.498 409.527 280.288C408.39 280.078 407.223 280.096 406.093 280.339C404.963 280.583 403.892 281.048 402.943 281.708C401.994 282.368 401.185 283.209 400.562 284.183L398.151 287.883L393.987 286.416C392.901 286.026 391.748 285.854 390.596 285.911C389.443 285.967 388.313 286.252 387.27 286.747C386.228 287.242 385.294 287.938 384.521 288.796C383.749 289.654 383.154 290.655 382.77 291.744C382.387 292.832 382.222 293.986 382.286 295.138C382.35 296.291 382.641 297.419 383.142 298.458C383.644 299.498 384.346 300.428 385.208 301.195C386.071 301.962 387.076 302.551 388.167 302.928H388.166Z"
      fill="white" />
    <path
      d="M483.84 188.697L483.898 188.787L490.649 199.056L502.222 194.924L502.322 194.889C503.788 194.338 504.978 193.233 505.636 191.812C506.295 190.392 506.369 188.769 505.843 187.295C505.317 185.82 504.232 184.611 502.823 183.928C501.415 183.245 499.794 183.143 498.31 183.643L495.475 184.655L493.82 182.14C493.39 181.485 492.834 180.921 492.186 180.481C491.537 180.04 490.809 179.732 490.041 179.573C489.273 179.414 488.482 179.408 487.712 179.555C486.942 179.702 486.208 180 485.553 180.43C484.898 180.861 484.334 181.416 483.894 182.064C483.453 182.713 483.145 183.442 482.986 184.209C482.827 184.977 482.821 185.769 482.968 186.539C483.115 187.309 483.413 188.042 483.843 188.697H483.84Z"
      fill="white" />
    <path
      d="M146.232 128.695L146.332 128.732L157.915 132.837L164.642 122.554L164.702 122.464C165.569 121.138 165.873 119.523 165.549 117.973C165.225 116.423 164.298 115.066 162.973 114.199C161.647 113.332 160.032 113.028 158.482 113.352C156.932 113.677 155.575 114.603 154.708 115.929L153.06 118.448L150.221 117.448C149.482 117.186 148.699 117.072 147.916 117.112C147.133 117.153 146.366 117.348 145.659 117.685C144.951 118.022 144.317 118.495 143.792 119.077C143.267 119.66 142.862 120.34 142.6 121.079C142.338 121.817 142.224 122.601 142.265 123.383C142.306 124.166 142.5 124.933 142.837 125.641C143.174 126.349 143.648 126.983 144.23 127.508C144.812 128.033 145.492 128.438 146.231 128.7L146.232 128.695Z"
      fill="white" />
    <path opacity="0.2"
      d="M194.063 409.94C194.063 423.34 163.332 434.211 125.423 434.211C87.5142 434.211 56.7852 423.344 56.7852 409.94C56.7852 396.536 87.5152 385.671 125.423 385.671C163.331 385.671 194.063 396.535 194.063 409.94Z"
      fill="#31FF43" />
    <path d="M128.59 231.513H120.749V246.84H128.59V231.513Z" fill="#123456" />
    <path d="M132.462 151.078H111.61L108.068 167.606H136.007L132.462 151.078Z" fill="#0B3356" />
    <path
      d="M126.527 154.815H117.339C116.235 154.815 115.339 155.711 115.339 156.815V160.096C115.339 161.201 116.235 162.096 117.339 162.096H126.527C127.632 162.096 128.527 161.201 128.527 160.096V156.815C128.527 155.711 127.632 154.815 126.527 154.815Z"
      fill="black" />
    <path
      d="M170.545 163.268H76.6562C73.8948 163.268 71.6562 165.506 71.6562 168.268V224.618C71.6562 227.379 73.8948 229.618 76.6562 229.618H170.545C173.307 229.618 175.545 227.379 175.545 224.618V168.268C175.545 165.506 173.307 163.268 170.545 163.268Z"
      fill="#0B3356" />
    <path
      d="M170.545 165.992H76.6562C73.8948 165.992 71.6562 168.231 71.6562 170.992V227.34C71.6562 230.102 73.8948 232.34 76.6562 232.34H170.545C173.307 232.34 175.545 230.102 175.545 227.34V170.992C175.545 168.231 173.307 165.992 170.545 165.992Z"
      fill="#0A1D35" />
    <path
      d="M131.003 181.457H83.1494C80.388 181.457 78.1494 183.696 78.1494 186.457V218.303C78.1494 221.064 80.388 223.303 83.1494 223.303H131.003C133.765 223.303 136.003 221.064 136.003 218.303V186.457C136.003 183.696 133.765 181.457 131.003 181.457Z"
      fill="#0A1D35" />
    <path
      d="M131.003 183.844H83.1494C80.388 183.844 78.1494 186.082 78.1494 188.844V220.693C78.1494 223.454 80.388 225.693 83.1494 225.693H131.003C133.765 225.693 136.003 223.454 136.003 220.693V188.844C136.003 186.082 133.765 183.844 131.003 183.844Z"
      fill="#69CDFF" />
    <g style="mix-blend-mode:soft-light">
      <path d="M96.8492 225.692H90.9492L104.129 183.843H110.029L96.8492 225.692Z" fill="white" />
    </g>
    <g style="mix-blend-mode:soft-light">
      <path d="M84.3555 225.692H83.2725L96.4525 183.843H97.5355L84.3555 225.692Z" fill="white" />
    </g>
    <g style="mix-blend-mode:soft-light">
      <path d="M117.01 225.692H100.486L113.666 183.843H130.191L117.01 225.692Z" fill="white" />
    </g>
    <path
      d="M151.494 172.937H148.159C147.055 172.937 146.159 173.832 146.159 174.937V174.986C146.159 176.09 147.055 176.986 148.159 176.986H151.494C152.599 176.986 153.494 176.09 153.494 174.986V174.937C153.494 173.832 152.599 172.937 151.494 172.937Z"
      fill="#E2E2E2" />
    <path
      d="M162.266 172.937H158.931C157.827 172.937 156.931 173.832 156.931 174.937V174.986C156.931 176.09 157.827 176.986 158.931 176.986H162.266C163.371 176.986 164.266 176.09 164.266 174.986V174.937C164.266 173.832 163.371 172.937 162.266 172.937Z"
      fill="#E2E2E2" />
    <path
      d="M151.494 179.794H148.159C147.055 179.794 146.159 180.689 146.159 181.794V181.843C146.159 182.948 147.055 183.843 148.159 183.843H151.494C152.599 183.843 153.494 182.948 153.494 181.843V181.794C153.494 180.689 152.599 179.794 151.494 179.794Z"
      fill="#E2E2E2" />
    <path
      d="M162.266 179.794H158.931C157.827 179.794 156.931 180.689 156.931 181.794V181.843C156.931 182.948 157.827 183.843 158.931 183.843H162.266C163.371 183.843 164.266 182.948 164.266 181.843V181.794C164.266 180.689 163.371 179.794 162.266 179.794Z"
      fill="#E2E2E2" />
    <path
      d="M151.494 186.653H148.159C147.055 186.653 146.159 187.549 146.159 188.653V188.702C146.159 189.807 147.055 190.702 148.159 190.702H151.494C152.599 190.702 153.494 189.807 153.494 188.702V188.653C153.494 187.549 152.599 186.653 151.494 186.653Z"
      fill="#E2E2E2" />
    <path
      d="M162.266 186.653H158.931C157.827 186.653 156.931 187.549 156.931 188.653V188.702C156.931 189.807 157.827 190.702 158.931 190.702H162.266C163.371 190.702 164.266 189.807 164.266 188.702V188.653C164.266 187.549 163.371 186.653 162.266 186.653Z"
      fill="#E2E2E2" />
    <path
      d="M166.21 210.617C166.21 212.894 165.535 215.12 164.27 217.012C163.005 218.905 161.207 220.381 159.104 221.252C157 222.123 154.686 222.35 152.453 221.906C150.22 221.462 148.169 220.365 146.559 218.755C144.95 217.145 143.853 215.094 143.409 212.861C142.966 210.628 143.194 208.314 144.065 206.21C144.937 204.107 146.412 202.31 148.305 201.045C150.198 199.78 152.424 199.105 154.7 199.105C156.212 199.106 157.709 199.403 159.105 199.982C160.502 200.561 161.771 201.409 162.84 202.478C163.909 203.547 164.756 204.816 165.335 206.212C165.913 207.609 166.211 209.106 166.21 210.617V210.617Z"
      fill="#0A1D35" />
    <path
      d="M164.266 210.617C164.266 212.51 163.705 214.36 162.654 215.934C161.602 217.508 160.107 218.734 158.359 219.458C156.61 220.183 154.686 220.372 152.829 220.003C150.973 219.634 149.267 218.722 147.929 217.384C146.591 216.045 145.679 214.34 145.31 212.483C144.941 210.627 145.131 208.703 145.855 206.954C146.58 205.205 147.806 203.711 149.38 202.659C150.954 201.608 152.805 201.047 154.697 201.047C155.954 201.047 157.199 201.294 158.36 201.775C159.521 202.256 160.576 202.961 161.464 203.85C162.353 204.739 163.058 205.794 163.538 206.955C164.019 208.116 164.267 209.36 164.266 210.617V210.617Z"
      fill="#0B3356" />
    <path
      d="M161.61 210.617C161.61 211.985 161.204 213.321 160.444 214.458C159.685 215.595 158.605 216.481 157.341 217.004C156.078 217.527 154.688 217.664 153.346 217.397C152.005 217.13 150.773 216.471 149.807 215.504C148.84 214.537 148.181 213.305 147.915 211.964C147.648 210.623 147.785 209.233 148.309 207.969C148.832 206.706 149.719 205.626 150.856 204.867C151.993 204.107 153.33 203.702 154.697 203.702C155.605 203.702 156.504 203.881 157.343 204.229C158.182 204.576 158.944 205.085 159.586 205.728C160.228 206.37 160.737 207.132 161.085 207.971C161.432 208.81 161.61 209.709 161.61 210.617V210.617Z"
      fill="#0A1D35" />
    <path d="M137.988 245.235H111.353V248.443H137.988V245.235Z" fill="#123456" />
    <path
      d="M139.591 246.84C139.59 247.157 139.495 247.465 139.319 247.728C139.143 247.99 138.892 248.195 138.6 248.315C138.307 248.435 137.986 248.466 137.676 248.404C137.366 248.342 137.081 248.189 136.858 247.965C136.635 247.741 136.483 247.456 136.421 247.146C136.36 246.835 136.392 246.514 136.513 246.222C136.635 245.93 136.84 245.68 137.103 245.505C137.366 245.329 137.675 245.235 137.991 245.235C138.202 245.235 138.41 245.277 138.605 245.358C138.799 245.438 138.976 245.557 139.124 245.706C139.273 245.855 139.391 246.032 139.471 246.227C139.551 246.421 139.592 246.63 139.591 246.84V246.84Z"
      fill="#123456" />
    <path
      d="M113.236 246.84C113.235 247.157 113.14 247.465 112.964 247.728C112.788 247.99 112.537 248.195 112.245 248.315C111.953 248.435 111.631 248.466 111.321 248.404C111.011 248.342 110.726 248.189 110.503 247.965C110.28 247.741 110.128 247.456 110.067 247.146C110.005 246.835 110.037 246.514 110.158 246.222C110.28 245.93 110.485 245.68 110.748 245.505C111.011 245.329 111.32 245.235 111.636 245.235C112.061 245.237 112.468 245.406 112.768 245.707C113.068 246.008 113.236 246.416 113.236 246.84V246.84Z"
      fill="#123456" />
    <path d="M137.988 252.747H111.353V255.955H137.988V252.747Z" fill="#123456" />
    <path
      d="M139.591 254.351C139.591 254.667 139.497 254.977 139.321 255.24C139.146 255.503 138.896 255.708 138.603 255.829C138.311 255.95 137.989 255.982 137.679 255.92C137.369 255.858 137.084 255.706 136.86 255.482C136.636 255.259 136.484 254.973 136.422 254.663C136.36 254.353 136.392 254.031 136.513 253.739C136.634 253.446 136.839 253.196 137.102 253.021C137.365 252.845 137.675 252.751 137.991 252.751C138.415 252.751 138.822 252.92 139.122 253.22C139.423 253.52 139.591 253.927 139.591 254.351V254.351Z"
      fill="#123456" />
    <path
      d="M113.236 254.351C113.236 254.667 113.142 254.977 112.966 255.24C112.791 255.503 112.541 255.708 112.248 255.829C111.956 255.95 111.634 255.982 111.324 255.92C111.014 255.858 110.729 255.706 110.505 255.482C110.281 255.259 110.129 254.973 110.067 254.663C110.005 254.353 110.037 254.031 110.158 253.739C110.279 253.446 110.484 253.196 110.747 253.021C111.01 252.845 111.32 252.751 111.636 252.751C112.06 252.751 112.467 252.92 112.767 253.22C113.068 253.52 113.236 253.927 113.236 254.351V254.351Z"
      fill="#123456" />
    <path d="M137.047 246.84H112.294V254.351H137.047V246.84Z" fill="#123456" />
    <path d="M120.75 254.352L71.6562 408.576" stroke="#153556" stroke-width="5" stroke-miterlimit="10"
      stroke-linecap="round" />
    <path d="M179.243 408.576L130.149 254.352" stroke="#153556" stroke-width="5" stroke-miterlimit="10"
      stroke-linecap="round" />
    <path d="M125.423 255.769V420.871" stroke="#153556" stroke-width="5" stroke-miterlimit="10"
      stroke-linecap="round" />
  </g>
  <defs>
    <clipPath id="clip0">
      <rect width="606.22" height="433.769" fill="white" />
    </clipPath>
  </defs>
</svg>
