<svg viewBox="0 0 348 190" version="1.1" xmlns="http://www.w3.org/2000/svg" xmlns:xlink="http://www.w3.org/1999/xlink">
  <title>pic-3</title>
  <g id="MW-14602-Упоминания-SR-desktop-на-страницах-SRO" stroke="none" stroke-width="1" fill="none" fill-rule="evenodd">
    <g id="MW-14602-—-XL" transform="translate(-1166.000000, -1334.000000)">
      <g id="Group-24" transform="translate(406.000000, 1214.000000)">
        <g id="pic-3" transform="translate(760.000000, 120.000000)">
          <rect id="Mask" x="0" y="0" width="348" height="190"></rect>
          <polygon id="Fill-2" fill="#D9E2E7" points="48.7341064 31.565233 48.7341064 177.691325 149.712015 177.576829 149.597519 51.3253798 132.911134 32.0249761"></polygon>
          <polygon id="Fill-3" fill="#67EC88" points="27.2893064 139.686328 27.3408643 171.007344 39.0585681 171.007344 62.0861996 188.035002 62.2893064 117.035002 39.261675 139.686328"></polygon>
          <polygon id="Fill-4" fill="#67EC88" points="132.91131 32.0253284 132.738686 50.0328147 149.108007 50.2036771"></polygon>
          <line x1="2.55317431" y1="177.460925" x2="46.5671193" y2="177.460925" id="Stroke-21" stroke="#2E324F" stroke-linecap="round" stroke-linejoin="round"></line>
          <path d="M48.5431633,101.143215 C49.0029064,100.22549 74.9264294,86.477233 74.9264294,86.477233 L48.6576587,94.7103339 L48.5431633,101.143215 Z" id="Fill-5" fill="#2E324F"></path>
          <polygon id="Fill-7" fill="#2E324F" points="132.709974 50.0606459 149.10924 50.2050862 149.022928 56.9532697"></polygon>
          <polygon id="Fill-9" fill="#2E324F" points="62.3251626 117.71371 67.2665688 177.656373 62.2665688 177.71371"></polygon>
          <polygon id="Fill-11" fill="#D9E2E7" points="185.899787 144.548602 185.899787 174.0824 194.342503 174.0824 193.999017 144.548602"></polygon>
          <polygon id="Fill-13" fill="#FFFFFF" points="24.1500037 58.6770422 63.2087927 46.7290055 74.9260771 86.4782899 35.6382972 98.1955743"></polygon>
          <path d="M42.0717064,66.7181431 C42.7604404,67.6376294 46.4366239,80.2744 46.4366239,80.2744 L55.8569541,68.7861064 L42.0717064,66.7181431 Z" id="Fill-15" fill="#67EC88"></path>
          <path d="M195.701299,146.291222 L182.835538,146.291222 C174.081042,146.291222 166.982327,139.194268 166.982327,130.438011 L166.982327,78.9714422 C166.982327,70.2169468 174.081042,63.1182312 182.835538,63.1182312 L195.701299,63.1182312 C204.457556,63.1182312 211.55451,70.2169468 211.55451,78.9714422 L211.55451,130.438011 C211.55451,139.194268 204.457556,146.291222 195.701299,146.291222" id="Fill-17" fill="#FFFFFF"></path>
          <line x1="62.5195303" y1="177.460925" x2="232.768925" y2="177.460925" id="Stroke-19" stroke="#2E324F" stroke-linecap="round" stroke-linejoin="round"></line>
          <line x1="149.368176" y1="176.825549" x2="149.368176" y2="50.9998606" id="Stroke-23" stroke="#2E324F" stroke-linecap="round" stroke-linejoin="round"></line>
          <polygon id="Stroke-25" stroke="#2E324F" stroke-linecap="round" stroke-linejoin="round" points="42.5552294 66.4532183 46.7369541 80.3106862 56.1379083 69.3138422"></polygon>
          <line x1="36.5569028" y1="142.671934" x2="36.5569028" y2="168.117439" id="Stroke-27" stroke="#2E324F" stroke-linecap="round" stroke-linejoin="round"></line>
          <line x1="62.5195303" y1="117.858312" x2="62.5195303" y2="188.45978" id="Stroke-29" stroke="#2E324F" stroke-linecap="round" stroke-linejoin="round"></line>
          <path d="M71.478356,144.605321 C71.478356,144.605321 74.6313835,146.881138 74.6313835,153.011046 C74.6313835,159.140954 71.478356,162.116073 71.478356,162.116073" id="Stroke-31" stroke="#2E324F" stroke-linecap="round" stroke-linejoin="round"></path>
          <path d="M77.4326459,137.774525 C77.4326459,137.774525 82.3365725,142.504066 82.3365725,151.434708 C82.3365725,161.767479 77.783178,166.49702 77.783178,166.49702" id="Stroke-33" stroke="#2E324F" stroke-linecap="round" stroke-linejoin="round"></path>
          <path d="M82.6862239,126.74298 C82.6862239,126.74298 93.0189945,135.321328 92.8446092,152.310686 C92.6684624,169.296521 84.6150312,177.193182 84.6150312,177.193182" id="Stroke-35" stroke="#2E324F" stroke-linecap="round" stroke-linejoin="round"></path>
          <path d="M211.860829,78.8951706 L211.860829,130.359978 C211.860829,139.116235 204.763875,146.213189 196.007618,146.213189" id="Stroke-37" stroke="#2E324F" stroke-linecap="round" stroke-linejoin="round"></path>
          <path d="M196.007618,146.213717 L183.141857,146.213717 C174.387361,146.213717 167.288646,139.116763 167.288646,130.360506 L167.288646,78.8956991 C167.288646,70.1394422 174.387361,63.0424881 183.141857,63.0424881 L196.007618,63.0424881 C204.763875,63.0424881 211.860829,70.1394422 211.860829,78.8956991" id="Stroke-39" stroke="#2E324F" stroke-linecap="round" stroke-linejoin="round"></path>
          <line x1="186.359002" y1="170.929358" x2="186.359002" y2="146.616037" id="Stroke-41" stroke="#2E324F" stroke-linecap="round" stroke-linejoin="round"></line>
          <path d="M176.976073,173.460925 L203.897174,173.460925 C206.106313,173.460925 207.897174,175.251786 207.897174,177.460925 L207.897174,177.460925 L207.897174,177.460925 L172.976073,177.460925 C172.976073,175.251786 174.766934,173.460925 176.976073,173.460925 Z" id="Stroke-43" stroke="#2E324F" stroke-linecap="round" stroke-linejoin="round"></path>
          <line x1="201.36935" y1="87.1666716" x2="211.40091" y2="87.1666716" id="Stroke-45" stroke="#2E324F" stroke-linecap="round" stroke-linejoin="round"></line>
          <line x1="167.978965" y1="87.1666716" x2="177.552543" y2="87.1666716" id="Stroke-47" stroke="#2E324F" stroke-linecap="round" stroke-linejoin="round"></line>
          <line x1="201.063207" y1="101.717806" x2="211.094767" y2="101.717806" id="Stroke-49" stroke="#2E324F" stroke-linecap="round" stroke-linejoin="round"></line>
          <line x1="167.670884" y1="101.717806" x2="177.246224" y2="101.717806" id="Stroke-51" stroke="#2E324F" stroke-linecap="round" stroke-linejoin="round"></line>
          <line x1="201.36935" y1="114.813615" x2="211.40091" y2="114.813615" id="Stroke-53" stroke="#2E324F" stroke-linecap="round" stroke-linejoin="round"></line>
          <line x1="167.978965" y1="114.813615" x2="177.552543" y2="114.813615" id="Stroke-55" stroke="#2E324F" stroke-linecap="round" stroke-linejoin="round"></line>
          <path d="M184.444462,35.8639193 C184.444462,40.5635156 180.634407,44.3753321 175.93305,44.3753321 C171.233453,44.3753321 167.423398,40.5635156 167.423398,35.8639193 C167.423398,31.1643229 171.233453,27.3525064 175.93305,27.3525064 C180.634407,27.3525064 184.444462,31.1643229 184.444462,35.8639193" id="Fill-57" fill="#67EC88"></path>
          <path d="M37.9356037,121.907574 C37.9356037,123.457666 36.6796771,124.713593 35.1313468,124.713593 C33.581255,124.713593 32.3253284,123.457666 32.3253284,121.907574 C32.3253284,120.359244 33.581255,119.103317 35.1313468,119.103317 C36.6796771,119.103317 37.9356037,120.359244 37.9356037,121.907574" id="Fill-59" fill="#67EC88"></path>
          <path d="M221.282217,166.202327 C221.282217,168.44996 219.460859,170.273079 217.211464,170.273079 C214.965593,170.273079 213.144235,168.44996 213.144235,166.202327 C213.144235,163.956455 214.965593,162.133336 217.211464,162.133336 C219.460859,162.133336 221.282217,163.956455 221.282217,166.202327" id="Fill-61" fill="#67EC88"></path>
          <path d="M115.593262,71.543156 C104.795464,74.2998532 102.038767,63.2713028 102.038767,63.2713028 L102.038767,102.331853 L102.038767,109.913211" id="Stroke-63" stroke="#2E324F" stroke-linecap="round" stroke-linejoin="round"></path>
          <path d="M102.094958,109.222892 C102.094958,112.522121 99.4210495,115.197791 96.1218202,115.197791 C92.8225908,115.197791 90.1486826,112.522121 90.1486826,109.222892 C90.1486826,105.923662 92.8225908,103.249754 96.1218202,103.249754 C99.4210495,103.249754 102.094958,105.923662 102.094958,109.222892 Z" id="Stroke-65" stroke="#2E324F" stroke-linecap="round" stroke-linejoin="round"></path>
          <path d="M102.267934,109.136932 C102.267934,112.525996 99.520044,115.272125 96.1309798,115.272125 C92.7419156,115.272125 89.9957872,112.525996 89.9957872,109.136932 C89.9957872,105.747868 92.7419156,103.001739 96.1309798,103.001739 C99.520044,103.001739 102.267934,105.747868 102.267934,109.136932" id="Fill-67" fill="#2E324F"></path>
          <polygon id="Fill-69" fill="#2E324F" points="186.703017 150.005101 194.152264 154.274899 194.152264 146.635413 186.817512 146.55967"></polygon>
          <path d="M186.266583,163.566956 C186.829639,163.637664 188.584143,163.566956 190.088827,163.566956 C191.591589,163.566956 194.266583,163.370708 194.266583,163.370708 L194.266583,167.370708 L186.297331,165.26104 L186.266583,163.566956 Z" id="Fill-71" fill="#2E324F"></path>
          <path d="M162.233409,146.754503 C162.233409,146.754503 167.979317,163.298209 189.803905,163.298209 C213.009483,163.298209 217.834143,147.672228 217.834143,147.672228" id="Stroke-73" stroke="#2E324F" stroke-linecap="round" stroke-linejoin="round"></path>
          <line x1="49.4238972" y1="128.096169" x2="49.4238972" y2="96.6629211" id="Stroke-75" stroke="#2E324F" stroke-linecap="round" stroke-linejoin="round"></line>
          <line x1="49.4238972" y1="178.096169" x2="49.4238972" y2="132.662921" id="Stroke-75" stroke="#2E324F" stroke-linecap="round" stroke-linejoin="round"></line>
          <polyline id="Stroke-77" stroke="#2E324F" stroke-linecap="round" stroke-linejoin="round" points="36.0855339 97.4931009 24.396433 59.2586789 63.3283963 47.5114495"></polyline>
        </g>
      </g>
    </g>
  </g>
</svg>
