<svg width="982" height="432" viewBox="0 0 982 432" fill="none" xmlns="http://www.w3.org/2000/svg">
<g opacity="0.15">
<path opacity="0.15" d="M967.75 337.38L14 405.51C6.28 405.51 0 401.09 0 395.64V102.53C0 97.0898 6.25 92.6698 14 92.6698L967.75 24.5498C975.46 24.5498 981.75 28.9598 981.75 34.4098V327.52C981.72 333 975.46 337.38 967.75 337.38Z" fill="#DFE1E5"/>
</g>
<path d="M624.84 367L624.76 366C624.76 366 625.76 365.91 627.76 365.69L627.87 366.69C625.9 367 624.84 367 624.84 367ZM630.84 366.34L630.72 365.34L633.72 364.96L633.85 365.96L630.84 366.34ZM636.84 365.55L636.69 364.55L639.69 364.12L639.84 365.12L636.84 365.55ZM642.84 364.66L642.69 363.66L645.69 363.19L645.85 364.19L642.84 364.66ZM648.78 363.66L648.61 362.66L651.61 362.14L651.78 363.14C650.71 363.38 649.73 363.56 648.76 363.72L648.78 363.66ZM654.7 362.6L654.52 361.6L657.52 361.04L657.71 362.04L654.7 362.6ZM660.61 361.46L660.41 360.46L663.35 359.86L663.55 360.86L660.61 361.46ZM666.5 360.23L666.28 359.23L669.22 358.59L669.43 359.59L666.5 360.23ZM672.37 358.93L672.14 357.93C673.14 357.71 674.08 357.49 675.06 357.25L675.29 358.25L672.37 358.93ZM678.22 357.54L677.98 356.54L680.89 355.82L681.13 356.82L678.22 357.54ZM684.05 356.08L683.8 355.08L686.7 354.32L686.95 355.32L684.05 356.08ZM689.86 354.53L689.59 353.53L692.48 352.73L692.75 353.73L689.86 354.53ZM695.64 352.89L695.36 351.94L698.24 351.09L698.53 352.09L695.64 352.89ZM701.4 351.17L701.11 350.17L703.97 349.28L704.27 350.23L701.4 351.17ZM707.14 349.37L706.83 348.37L709.68 347.44L709.99 348.39L707.14 349.37ZM712.84 347.47L712.51 346.52L715.35 345.52L715.68 346.46L712.84 347.47ZM718.51 345.47L718.17 344.53L720.99 343.53L721.33 344.47L718.51 345.47ZM724.15 343.38L723.79 342.44L726.59 341.36L726.95 342.3L724.15 343.38ZM729.74 341.19L729.37 340.26L732.15 339.13L732.53 340.05L729.74 341.19ZM735.3 338.89L734.91 337.97L737.66 336.78L738.06 337.7L735.3 338.89ZM740.81 336.48L740.4 335.57L743.13 334.33L743.55 335.24C742.62 335.72 741.7 336.14 740.79 336.54L740.81 336.48ZM746.27 333.97L745.85 333.06C746.74 332.64 747.64 332.21 748.53 331.77L748.97 332.67L746.27 333.97ZM751.66 331.35L751.21 330.45C752.1 330.01 752.99 329.56 753.87 329.1L754.33 329.99L751.66 331.35ZM756.99 328.6L756.52 327.72L759.16 326.3L759.64 327.18L756.99 328.6ZM762.27 325.73L761.78 324.85C762.65 324.37 763.51 323.85 764.38 323.37L764.88 324.24L762.27 325.73ZM767.47 322.73L766.96 321.87C767.82 321.36 768.67 320.87 769.52 320.32L770.04 321.17C769.17 321.75 768.31 322.26 767.45 322.78L767.47 322.73ZM772.6 319.58L772.07 318.74L774.59 317.12L775.14 317.96C774.27 318.55 773.43 319.1 772.58 319.63L772.6 319.58ZM777.6 316.29L777.04 315.46C777.87 314.91 778.69 314.34 779.51 313.77L780.08 314.6C779.29 315.22 778.46 315.78 777.63 316.34L777.6 316.29ZM782.6 312.86L782.01 312.05C782.83 311.46 783.63 310.88 784.44 310.28L785.03 311.09L782.6 312.86ZM787.44 309.27L786.83 308.48C787.63 307.87 788.41 307.26 789.2 306.64L789.82 307.42C789 308.1 788.22 308.71 787.42 309.32L787.44 309.27ZM792.16 305.53L791.53 304.76L793.83 302.84L794.48 303.6L792.16 305.53ZM796.76 301.63L796.1 300.88C796.85 300.22 797.59 299.55 798.33 298.88L799 299.62C798.24 300.35 797.49 301 796.74 301.68L796.76 301.63ZM801.21 297.57L800.52 296.84C801.24 296.16 801.96 295.47 802.67 294.77L803.37 295.48C802.64 296.23 801.92 296.93 801.19 297.62L801.21 297.57ZM805.5 293.35L804.78 292.65C805.48 291.943 806.17 291.223 806.85 290.49L807.58 291.18C806.87 292 806.18 292.68 805.48 293.4L805.5 293.35ZM809.61 288.96L808.87 288.29C809.53 287.56 810.19 286.81 810.87 286.06L811.63 286.71C810.93 287.52 810.26 288.27 809.59 289L809.61 288.96ZM813.54 284.42L812.76 283.78C813.4 283.02 814.02 282.24 814.64 281.47L815.42 282.09C814.78 282.92 814.15 283.7 813.52 284.47L813.54 284.42ZM817.26 279.7L816.46 279.1C817.06 278.31 817.65 277.51 818.24 276.7L819.05 277.28C818.44 278.15 817.84 279 817.24 279.75L817.26 279.7ZM820.78 274.82L819.95 274.25C820.51 273.43 821.07 272.61 821.61 271.77L822.45 272.32C821.88 273.21 821.32 274 820.76 274.87L820.78 274.82ZM824.06 269.82L823.21 269.29C823.73 268.44 824.21 267.59 824.75 266.73L825.61 267.24C825.08 268.11 824.57 269 824 269.83L824.06 269.82ZM827.06 264.62L826.19 264.14C826.67 263.267 827.14 262.387 827.6 261.5L828.48 261.97C828 262.87 827.56 263.75 827.08 264.63L827.06 264.62ZM829.84 259.28L828.94 258.84C829.38 257.95 829.81 257.05 830.22 256.15L831.13 256.56C830.73 257.49 830.3 258.39 829.86 259.29L829.84 259.28ZM832.35 253.81L831.43 253.41C831.83 252.48 832.22 251.56 832.59 250.66L833.51 251.03C833.16 252 832.77 252.88 832.37 253.82L832.35 253.81ZM834.63 248.24L833.7 247.88C834.07 246.93 834.42 246 834.76 245.08L835.7 245.43C835.38 246.36 835 247.3 834.65 248.25L834.63 248.24ZM836.7 242.59L835.76 242.27C836.09 241.27 836.4 240.36 836.69 239.43L837.64 239.73C837.37 240.67 837.05 241.63 836.72 242.6L836.7 242.59ZM838.51 236.84L837.51 236.57C837.79 235.59 838.05 234.63 838.29 233.69L839.29 233.93C839.08 234.89 838.82 235.86 838.53 236.85L838.51 236.84ZM840 231L839 230.79C839.21 229.79 839.4 228.79 839.57 227.87L840.57 228.04C840.42 229 840.22 230 840 231ZM841 225.05L840 224.93C840.13 223.93 840.23 222.93 840.29 221.93L841.29 221.99C841.25 223 841.15 224 841 225.05ZM840.39 219.05C840.39 218.05 840.39 217.05 840.28 216.11L841.28 216.03C841.36 217.03 841.4 218.03 841.4 219.03L840.39 219.05ZM839.91 213.17C839.736 212.205 839.509 211.25 839.23 210.31L840.23 210.02C840.521 211.005 840.755 212.007 840.93 213.02L839.91 213.17ZM754.03 210.37V209.87L753.82 209.41L755.25 208.78L755.65 209.7L754.26 210.31L754.03 210.37ZM758.41 208.54L758.03 207.61L760.82 206.48L761.19 207.41L758.41 208.54ZM838.21 207.54C837.808 206.651 837.336 205.795 836.8 204.98L837.64 204.43C838.198 205.29 838.692 206.189 839.12 207.12L838.21 207.54ZM764 206.28L763.65 205.35C764.54 205.01 765.48 204.65 766.47 204.29L766.81 205.23L764 206.28ZM769.63 204.22L769.3 203.27L772.15 202.27L772.47 203.27C771.51 203.56 770.56 203.89 769.64 204.22H769.63ZM835.04 202.67C834.384 201.948 833.672 201.279 832.91 200.67L833.53 199.89C834.331 200.529 835.084 201.228 835.78 201.98L835.04 202.67ZM775.31 202.29L775.01 201.34L777.88 200.44L778.17 201.39L775.31 202.29ZM781.04 200.53L780.76 199.53C781.76 199.26 782.68 198.98 783.66 198.72L783.93 199.72L781.04 200.53ZM830.5 199C829.651 198.513 828.772 198.079 827.87 197.7L828.26 196.78C829.201 197.175 830.116 197.629 831 198.14L830.5 199ZM786.83 199L786.58 198C787.58 197.75 788.53 197.51 789.51 197.28L789.74 198.28L786.83 199ZM792.66 197.63L792.45 196.63C793.45 196.42 794.45 196.22 795.4 196.03L795.59 197.03C794.61 197.17 793.63 197.37 792.66 197.58V197.63ZM825.1 196.8C824.19 196.53 823.22 196.29 822.23 196.09L822.43 195.09C823.43 195.3 824.43 195.54 825.43 195.82L825.1 196.8ZM798.53 196.51L798.37 195.51C799.37 195.34 800.37 195.19 801.37 195.05L801.51 196.05C800.51 196.14 799.52 196.29 798.53 196.46V196.51ZM804.45 195.69L804.35 194.69C805.35 194.58 806.35 194.49 807.35 194.42L807.43 195.42C806.44 195.44 805.45 195.53 804.45 195.64V195.69ZM819.31 195.61C818.36 195.49 817.36 195.39 816.36 195.33L816.42 194.33C817.42 194.39 818.42 194.49 819.42 194.61L819.31 195.61ZM810.4 195.25V194.25C811.18 194.25 811.96 194.25 812.72 194.25H813.42V195.25H812.73C811.94 195.16 811.17 195.18 810.4 195.2V195.25Z" fill="#231815"/>
<path d="M745.91 34.4404H235.81C231.392 34.4404 227.81 38.0222 227.81 42.4404V367.2C227.81 371.619 231.392 375.2 235.81 375.2H745.91C750.328 375.2 753.91 371.619 753.91 367.2V42.4404C753.91 38.0222 750.328 34.4404 745.91 34.4404Z" fill="white" stroke="#DFE1E5" stroke-width="2" stroke-miterlimit="10"/>
<path d="M628.8 254.19V339.37C628.8 339.68 628.8 339.98 628.8 340.29H589.86C589.86 339.98 589.86 339.68 589.86 339.37V254.19C589.876 249.027 591.935 244.08 595.586 240.429C599.238 236.779 604.187 234.723 609.35 234.71C613.068 234.705 616.709 235.778 619.83 237.8C621.018 238.552 622.118 239.434 623.11 240.43C624.916 242.237 626.348 244.383 627.325 246.744C628.301 249.105 628.802 251.635 628.8 254.19Z" fill="#4B4B4B"/>
<g opacity="0.3">
<path opacity="0.3" d="M705.98 394.04H292.19C290.732 394.04 289.55 395.222 289.55 396.68V396.69C289.55 398.148 290.732 399.33 292.19 399.33H705.98C707.438 399.33 708.62 398.148 708.62 396.69V396.68C708.62 395.222 707.438 394.04 705.98 394.04Z" fill="#DB6A6A"/>
</g>
<path d="M793.91 333.8C795.015 333.8 795.91 332.904 795.91 331.8C795.91 330.695 795.015 329.8 793.91 329.8C792.806 329.8 791.91 330.695 791.91 331.8C791.91 332.904 792.806 333.8 793.91 333.8Z" fill="#67EC88"/>
<path d="M803.31 333.8C804.415 333.8 805.31 332.904 805.31 331.8C805.31 330.695 804.415 329.8 803.31 329.8C802.205 329.8 801.31 330.695 801.31 331.8C801.31 332.904 802.205 333.8 803.31 333.8Z" fill="#67EC88"/>
<path d="M812.7 333.8C813.805 333.8 814.7 332.904 814.7 331.8C814.7 330.695 813.805 329.8 812.7 329.8C811.596 329.8 810.7 330.695 810.7 331.8C810.7 332.904 811.596 333.8 812.7 333.8Z" fill="#67EC88"/>
<path d="M822.09 333.8C823.194 333.8 824.09 332.904 824.09 331.8C824.09 330.695 823.194 329.8 822.09 329.8C820.985 329.8 820.09 330.695 820.09 331.8C820.09 332.904 820.985 333.8 822.09 333.8Z" fill="#67EC88"/>
<path d="M831.48 333.8C832.585 333.8 833.48 332.904 833.48 331.8C833.48 330.695 832.585 329.8 831.48 329.8C830.375 329.8 829.48 330.695 829.48 331.8C829.48 332.904 830.375 333.8 831.48 333.8Z" fill="#67EC88"/>
<path d="M840.87 333.8C841.975 333.8 842.87 332.904 842.87 331.8C842.87 330.695 841.975 329.8 840.87 329.8C839.766 329.8 838.87 330.695 838.87 331.8C838.87 332.904 839.766 333.8 840.87 333.8Z" fill="#67EC88"/>
<path d="M850.26 333.8C851.364 333.8 852.26 332.904 852.26 331.8C852.26 330.695 851.364 329.8 850.26 329.8C849.155 329.8 848.26 330.695 848.26 331.8C848.26 332.904 849.155 333.8 850.26 333.8Z" fill="#67EC88"/>
<path d="M859.65 333.8C860.754 333.8 861.65 332.904 861.65 331.8C861.65 330.695 860.754 329.8 859.65 329.8C858.545 329.8 857.65 330.695 857.65 331.8C857.65 332.904 858.545 333.8 859.65 333.8Z" fill="#67EC88"/>
<path d="M869.04 333.8C870.145 333.8 871.04 332.904 871.04 331.8C871.04 330.695 870.145 329.8 869.04 329.8C867.935 329.8 867.04 330.695 867.04 331.8C867.04 332.904 867.935 333.8 869.04 333.8Z" fill="#67EC88"/>
<path d="M878.43 333.8C879.535 333.8 880.43 332.904 880.43 331.8C880.43 330.695 879.535 329.8 878.43 329.8C877.326 329.8 876.43 330.695 876.43 331.8C876.43 332.904 877.326 333.8 878.43 333.8Z" fill="#67EC88"/>
<path d="M887.83 333.8C888.935 333.8 889.83 332.904 889.83 331.8C889.83 330.695 888.935 329.8 887.83 329.8C886.726 329.8 885.83 330.695 885.83 331.8C885.83 332.904 886.726 333.8 887.83 333.8Z" fill="#67EC88"/>
<path d="M897.22 333.8C898.324 333.8 899.22 332.904 899.22 331.8C899.22 330.695 898.324 329.8 897.22 329.8C896.115 329.8 895.22 330.695 895.22 331.8C895.22 332.904 896.115 333.8 897.22 333.8Z" fill="#67EC88"/>
<path d="M906.61 333.8C907.714 333.8 908.61 332.904 908.61 331.8C908.61 330.695 907.714 329.8 906.61 329.8C905.505 329.8 904.61 330.695 904.61 331.8C904.61 332.904 905.505 333.8 906.61 333.8Z" fill="#67EC88"/>
<path d="M793.91 342.56C795.015 342.56 795.91 341.664 795.91 340.56C795.91 339.455 795.015 338.56 793.91 338.56C792.806 338.56 791.91 339.455 791.91 340.56C791.91 341.664 792.806 342.56 793.91 342.56Z" fill="#67EC88"/>
<path d="M803.31 342.56C804.415 342.56 805.31 341.664 805.31 340.56C805.31 339.455 804.415 338.56 803.31 338.56C802.205 338.56 801.31 339.455 801.31 340.56C801.31 341.664 802.205 342.56 803.31 342.56Z" fill="#67EC88"/>
<path d="M812.7 342.56C813.805 342.56 814.7 341.664 814.7 340.56C814.7 339.455 813.805 338.56 812.7 338.56C811.596 338.56 810.7 339.455 810.7 340.56C810.7 341.664 811.596 342.56 812.7 342.56Z" fill="#67EC88"/>
<path d="M822.09 342.56C823.194 342.56 824.09 341.664 824.09 340.56C824.09 339.455 823.194 338.56 822.09 338.56C820.985 338.56 820.09 339.455 820.09 340.56C820.09 341.664 820.985 342.56 822.09 342.56Z" fill="#67EC88"/>
<path d="M831.48 342.56C832.585 342.56 833.48 341.664 833.48 340.56C833.48 339.455 832.585 338.56 831.48 338.56C830.375 338.56 829.48 339.455 829.48 340.56C829.48 341.664 830.375 342.56 831.48 342.56Z" fill="#67EC88"/>
<path d="M840.87 342.56C841.975 342.56 842.87 341.664 842.87 340.56C842.87 339.455 841.975 338.56 840.87 338.56C839.766 338.56 838.87 339.455 838.87 340.56C838.87 341.664 839.766 342.56 840.87 342.56Z" fill="#67EC88"/>
<path d="M850.26 342.56C851.364 342.56 852.26 341.664 852.26 340.56C852.26 339.455 851.364 338.56 850.26 338.56C849.155 338.56 848.26 339.455 848.26 340.56C848.26 341.664 849.155 342.56 850.26 342.56Z" fill="#67EC88"/>
<path d="M859.65 342.56C860.754 342.56 861.65 341.664 861.65 340.56C861.65 339.455 860.754 338.56 859.65 338.56C858.545 338.56 857.65 339.455 857.65 340.56C857.65 341.664 858.545 342.56 859.65 342.56Z" fill="#67EC88"/>
<path d="M869.04 342.56C870.145 342.56 871.04 341.664 871.04 340.56C871.04 339.455 870.145 338.56 869.04 338.56C867.935 338.56 867.04 339.455 867.04 340.56C867.04 341.664 867.935 342.56 869.04 342.56Z" fill="#67EC88"/>
<path d="M878.43 342.56C879.535 342.56 880.43 341.664 880.43 340.56C880.43 339.455 879.535 338.56 878.43 338.56C877.326 338.56 876.43 339.455 876.43 340.56C876.43 341.664 877.326 342.56 878.43 342.56Z" fill="#67EC88"/>
<path d="M887.83 342.56C888.935 342.56 889.83 341.664 889.83 340.56C889.83 339.455 888.935 338.56 887.83 338.56C886.726 338.56 885.83 339.455 885.83 340.56C885.83 341.664 886.726 342.56 887.83 342.56Z" fill="#67EC88"/>
<path d="M897.22 342.56C898.324 342.56 899.22 341.664 899.22 340.56C899.22 339.455 898.324 338.56 897.22 338.56C896.115 338.56 895.22 339.455 895.22 340.56C895.22 341.664 896.115 342.56 897.22 342.56Z" fill="#67EC88"/>
<path d="M906.61 342.56C907.714 342.56 908.61 341.664 908.61 340.56C908.61 339.455 907.714 338.56 906.61 338.56C905.505 338.56 904.61 339.455 904.61 340.56C904.61 341.664 905.505 342.56 906.61 342.56Z" fill="#67EC88"/>
<path d="M793.91 351.32C795.015 351.32 795.91 350.425 795.91 349.32C795.91 348.216 795.015 347.32 793.91 347.32C792.806 347.32 791.91 348.216 791.91 349.32C791.91 350.425 792.806 351.32 793.91 351.32Z" fill="#67EC88"/>
<path d="M803.31 351.32C804.415 351.32 805.31 350.425 805.31 349.32C805.31 348.216 804.415 347.32 803.31 347.32C802.205 347.32 801.31 348.216 801.31 349.32C801.31 350.425 802.205 351.32 803.31 351.32Z" fill="#67EC88"/>
<path d="M812.7 351.32C813.805 351.32 814.7 350.425 814.7 349.32C814.7 348.216 813.805 347.32 812.7 347.32C811.596 347.32 810.7 348.216 810.7 349.32C810.7 350.425 811.596 351.32 812.7 351.32Z" fill="#67EC88"/>
<path d="M822.09 351.32C823.194 351.32 824.09 350.425 824.09 349.32C824.09 348.216 823.194 347.32 822.09 347.32C820.985 347.32 820.09 348.216 820.09 349.32C820.09 350.425 820.985 351.32 822.09 351.32Z" fill="#67EC88"/>
<path d="M831.48 351.32C832.585 351.32 833.48 350.425 833.48 349.32C833.48 348.216 832.585 347.32 831.48 347.32C830.375 347.32 829.48 348.216 829.48 349.32C829.48 350.425 830.375 351.32 831.48 351.32Z" fill="#67EC88"/>
<path d="M840.87 351.32C841.975 351.32 842.87 350.425 842.87 349.32C842.87 348.216 841.975 347.32 840.87 347.32C839.766 347.32 838.87 348.216 838.87 349.32C838.87 350.425 839.766 351.32 840.87 351.32Z" fill="#67EC88"/>
<path d="M850.26 351.32C851.364 351.32 852.26 350.425 852.26 349.32C852.26 348.216 851.364 347.32 850.26 347.32C849.155 347.32 848.26 348.216 848.26 349.32C848.26 350.425 849.155 351.32 850.26 351.32Z" fill="#67EC88"/>
<path d="M859.65 351.32C860.754 351.32 861.65 350.425 861.65 349.32C861.65 348.216 860.754 347.32 859.65 347.32C858.545 347.32 857.65 348.216 857.65 349.32C857.65 350.425 858.545 351.32 859.65 351.32Z" fill="#67EC88"/>
<path d="M869.04 351.32C870.145 351.32 871.04 350.425 871.04 349.32C871.04 348.216 870.145 347.32 869.04 347.32C867.935 347.32 867.04 348.216 867.04 349.32C867.04 350.425 867.935 351.32 869.04 351.32Z" fill="#67EC88"/>
<path d="M878.43 351.32C879.535 351.32 880.43 350.425 880.43 349.32C880.43 348.216 879.535 347.32 878.43 347.32C877.326 347.32 876.43 348.216 876.43 349.32C876.43 350.425 877.326 351.32 878.43 351.32Z" fill="#67EC88"/>
<path d="M887.83 351.32C888.935 351.32 889.83 350.425 889.83 349.32C889.83 348.216 888.935 347.32 887.83 347.32C886.726 347.32 885.83 348.216 885.83 349.32C885.83 350.425 886.726 351.32 887.83 351.32Z" fill="#67EC88"/>
<path d="M897.22 351.32C898.324 351.32 899.22 350.425 899.22 349.32C899.22 348.216 898.324 347.32 897.22 347.32C896.115 347.32 895.22 348.216 895.22 349.32C895.22 350.425 896.115 351.32 897.22 351.32Z" fill="#67EC88"/>
<path d="M906.61 351.32C907.714 351.32 908.61 350.425 908.61 349.32C908.61 348.216 907.714 347.32 906.61 347.32C905.505 347.32 904.61 348.216 904.61 349.32C904.61 350.425 905.505 351.32 906.61 351.32Z" fill="#67EC88"/>
<path d="M793.91 360.07C795.015 360.07 795.91 359.175 795.91 358.07C795.91 356.966 795.015 356.07 793.91 356.07C792.806 356.07 791.91 356.966 791.91 358.07C791.91 359.175 792.806 360.07 793.91 360.07Z" fill="#67EC88"/>
<path d="M803.31 360.07C804.415 360.07 805.31 359.175 805.31 358.07C805.31 356.966 804.415 356.07 803.31 356.07C802.205 356.07 801.31 356.966 801.31 358.07C801.31 359.175 802.205 360.07 803.31 360.07Z" fill="#67EC88"/>
<path d="M812.7 360.07C813.805 360.07 814.7 359.175 814.7 358.07C814.7 356.966 813.805 356.07 812.7 356.07C811.596 356.07 810.7 356.966 810.7 358.07C810.7 359.175 811.596 360.07 812.7 360.07Z" fill="#67EC88"/>
<path d="M822.09 360.07C823.194 360.07 824.09 359.175 824.09 358.07C824.09 356.966 823.194 356.07 822.09 356.07C820.985 356.07 820.09 356.966 820.09 358.07C820.09 359.175 820.985 360.07 822.09 360.07Z" fill="#67EC88"/>
<path d="M831.48 360.07C832.585 360.07 833.48 359.175 833.48 358.07C833.48 356.966 832.585 356.07 831.48 356.07C830.375 356.07 829.48 356.966 829.48 358.07C829.48 359.175 830.375 360.07 831.48 360.07Z" fill="#67EC88"/>
<path d="M840.87 360.07C841.975 360.07 842.87 359.175 842.87 358.07C842.87 356.966 841.975 356.07 840.87 356.07C839.766 356.07 838.87 356.966 838.87 358.07C838.87 359.175 839.766 360.07 840.87 360.07Z" fill="#67EC88"/>
<path d="M850.26 360.07C851.364 360.07 852.26 359.175 852.26 358.07C852.26 356.966 851.364 356.07 850.26 356.07C849.155 356.07 848.26 356.966 848.26 358.07C848.26 359.175 849.155 360.07 850.26 360.07Z" fill="#67EC88"/>
<path d="M859.65 360.07C860.754 360.07 861.65 359.175 861.65 358.07C861.65 356.966 860.754 356.07 859.65 356.07C858.545 356.07 857.65 356.966 857.65 358.07C857.65 359.175 858.545 360.07 859.65 360.07Z" fill="#67EC88"/>
<path d="M869.04 360.07C870.145 360.07 871.04 359.175 871.04 358.07C871.04 356.966 870.145 356.07 869.04 356.07C867.935 356.07 867.04 356.966 867.04 358.07C867.04 359.175 867.935 360.07 869.04 360.07Z" fill="#67EC88"/>
<path d="M878.43 360.07C879.535 360.07 880.43 359.175 880.43 358.07C880.43 356.966 879.535 356.07 878.43 356.07C877.326 356.07 876.43 356.966 876.43 358.07C876.43 359.175 877.326 360.07 878.43 360.07Z" fill="#67EC88"/>
<path d="M887.83 360.07C888.935 360.07 889.83 359.175 889.83 358.07C889.83 356.966 888.935 356.07 887.83 356.07C886.726 356.07 885.83 356.966 885.83 358.07C885.83 359.175 886.726 360.07 887.83 360.07Z" fill="#67EC88"/>
<path d="M897.22 360.07C898.324 360.07 899.22 359.175 899.22 358.07C899.22 356.966 898.324 356.07 897.22 356.07C896.115 356.07 895.22 356.966 895.22 358.07C895.22 359.175 896.115 360.07 897.22 360.07Z" fill="#67EC88"/>
<path d="M906.61 360.07C907.714 360.07 908.61 359.175 908.61 358.07C908.61 356.966 907.714 356.07 906.61 356.07C905.505 356.07 904.61 356.966 904.61 358.07C904.61 359.175 905.505 360.07 906.61 360.07Z" fill="#67EC88"/>
<path d="M793.91 368.83C795.015 368.83 795.91 367.935 795.91 366.83C795.91 365.726 795.015 364.83 793.91 364.83C792.806 364.83 791.91 365.726 791.91 366.83C791.91 367.935 792.806 368.83 793.91 368.83Z" fill="#67EC88"/>
<path d="M803.31 368.83C804.415 368.83 805.31 367.935 805.31 366.83C805.31 365.726 804.415 364.83 803.31 364.83C802.205 364.83 801.31 365.726 801.31 366.83C801.31 367.935 802.205 368.83 803.31 368.83Z" fill="#67EC88"/>
<path d="M812.7 368.83C813.805 368.83 814.7 367.935 814.7 366.83C814.7 365.726 813.805 364.83 812.7 364.83C811.596 364.83 810.7 365.726 810.7 366.83C810.7 367.935 811.596 368.83 812.7 368.83Z" fill="#67EC88"/>
<path d="M822.09 368.83C823.194 368.83 824.09 367.935 824.09 366.83C824.09 365.726 823.194 364.83 822.09 364.83C820.985 364.83 820.09 365.726 820.09 366.83C820.09 367.935 820.985 368.83 822.09 368.83Z" fill="#67EC88"/>
<path d="M831.48 368.83C832.585 368.83 833.48 367.935 833.48 366.83C833.48 365.726 832.585 364.83 831.48 364.83C830.375 364.83 829.48 365.726 829.48 366.83C829.48 367.935 830.375 368.83 831.48 368.83Z" fill="#67EC88"/>
<path d="M840.87 368.83C841.975 368.83 842.87 367.935 842.87 366.83C842.87 365.726 841.975 364.83 840.87 364.83C839.766 364.83 838.87 365.726 838.87 366.83C838.87 367.935 839.766 368.83 840.87 368.83Z" fill="#67EC88"/>
<path d="M850.26 368.83C851.364 368.83 852.26 367.935 852.26 366.83C852.26 365.726 851.364 364.83 850.26 364.83C849.155 364.83 848.26 365.726 848.26 366.83C848.26 367.935 849.155 368.83 850.26 368.83Z" fill="#67EC88"/>
<path d="M859.65 368.83C860.754 368.83 861.65 367.935 861.65 366.83C861.65 365.726 860.754 364.83 859.65 364.83C858.545 364.83 857.65 365.726 857.65 366.83C857.65 367.935 858.545 368.83 859.65 368.83Z" fill="#67EC88"/>
<path d="M869.04 368.83C870.145 368.83 871.04 367.935 871.04 366.83C871.04 365.726 870.145 364.83 869.04 364.83C867.935 364.83 867.04 365.726 867.04 366.83C867.04 367.935 867.935 368.83 869.04 368.83Z" fill="#67EC88"/>
<path d="M878.43 368.83C879.535 368.83 880.43 367.935 880.43 366.83C880.43 365.726 879.535 364.83 878.43 364.83C877.326 364.83 876.43 365.726 876.43 366.83C876.43 367.935 877.326 368.83 878.43 368.83Z" fill="#67EC88"/>
<path d="M887.83 368.83C888.935 368.83 889.83 367.935 889.83 366.83C889.83 365.726 888.935 364.83 887.83 364.83C886.726 364.83 885.83 365.726 885.83 366.83C885.83 367.935 886.726 368.83 887.83 368.83Z" fill="#67EC88"/>
<path d="M897.22 368.83C898.324 368.83 899.22 367.935 899.22 366.83C899.22 365.726 898.324 364.83 897.22 364.83C896.115 364.83 895.22 365.726 895.22 366.83C895.22 367.935 896.115 368.83 897.22 368.83Z" fill="#67EC88"/>
<path d="M906.61 368.83C907.714 368.83 908.61 367.935 908.61 366.83C908.61 365.726 907.714 364.83 906.61 364.83C905.505 364.83 904.61 365.726 904.61 366.83C904.61 367.935 905.505 368.83 906.61 368.83Z" fill="#67EC88"/>
<path d="M793.91 377.59C795.015 377.59 795.91 376.694 795.91 375.59C795.91 374.485 795.015 373.59 793.91 373.59C792.806 373.59 791.91 374.485 791.91 375.59C791.91 376.694 792.806 377.59 793.91 377.59Z" fill="#67EC88"/>
<path d="M803.31 377.59C804.415 377.59 805.31 376.694 805.31 375.59C805.31 374.485 804.415 373.59 803.31 373.59C802.205 373.59 801.31 374.485 801.31 375.59C801.31 376.694 802.205 377.59 803.31 377.59Z" fill="#67EC88"/>
<path d="M812.7 377.59C813.805 377.59 814.7 376.694 814.7 375.59C814.7 374.485 813.805 373.59 812.7 373.59C811.596 373.59 810.7 374.485 810.7 375.59C810.7 376.694 811.596 377.59 812.7 377.59Z" fill="#67EC88"/>
<path d="M822.09 377.59C823.194 377.59 824.09 376.694 824.09 375.59C824.09 374.485 823.194 373.59 822.09 373.59C820.985 373.59 820.09 374.485 820.09 375.59C820.09 376.694 820.985 377.59 822.09 377.59Z" fill="#67EC88"/>
<path d="M831.48 377.59C832.585 377.59 833.48 376.694 833.48 375.59C833.48 374.485 832.585 373.59 831.48 373.59C830.375 373.59 829.48 374.485 829.48 375.59C829.48 376.694 830.375 377.59 831.48 377.59Z" fill="#67EC88"/>
<path d="M840.87 377.59C841.975 377.59 842.87 376.694 842.87 375.59C842.87 374.485 841.975 373.59 840.87 373.59C839.766 373.59 838.87 374.485 838.87 375.59C838.87 376.694 839.766 377.59 840.87 377.59Z" fill="#67EC88"/>
<path d="M850.26 377.59C851.364 377.59 852.26 376.694 852.26 375.59C852.26 374.485 851.364 373.59 850.26 373.59C849.155 373.59 848.26 374.485 848.26 375.59C848.26 376.694 849.155 377.59 850.26 377.59Z" fill="#67EC88"/>
<path d="M859.65 377.59C860.754 377.59 861.65 376.694 861.65 375.59C861.65 374.485 860.754 373.59 859.65 373.59C858.545 373.59 857.65 374.485 857.65 375.59C857.65 376.694 858.545 377.59 859.65 377.59Z" fill="#67EC88"/>
<path d="M869.04 377.59C870.145 377.59 871.04 376.694 871.04 375.59C871.04 374.485 870.145 373.59 869.04 373.59C867.935 373.59 867.04 374.485 867.04 375.59C867.04 376.694 867.935 377.59 869.04 377.59Z" fill="#67EC88"/>
<path d="M878.43 377.59C879.535 377.59 880.43 376.694 880.43 375.59C880.43 374.485 879.535 373.59 878.43 373.59C877.326 373.59 876.43 374.485 876.43 375.59C876.43 376.694 877.326 377.59 878.43 377.59Z" fill="#67EC88"/>
<path d="M887.83 377.59C888.935 377.59 889.83 376.694 889.83 375.59C889.83 374.485 888.935 373.59 887.83 373.59C886.726 373.59 885.83 374.485 885.83 375.59C885.83 376.694 886.726 377.59 887.83 377.59Z" fill="#67EC88"/>
<path d="M897.22 377.59C898.324 377.59 899.22 376.694 899.22 375.59C899.22 374.485 898.324 373.59 897.22 373.59C896.115 373.59 895.22 374.485 895.22 375.59C895.22 376.694 896.115 377.59 897.22 377.59Z" fill="#67EC88"/>
<path d="M906.61 377.59C907.714 377.59 908.61 376.694 908.61 375.59C908.61 374.485 907.714 373.59 906.61 373.59C905.505 373.59 904.61 374.485 904.61 375.59C904.61 376.694 905.505 377.59 906.61 377.59Z" fill="#67EC88"/>
<path d="M793.91 386.35C795.015 386.35 795.91 385.454 795.91 384.35C795.91 383.245 795.015 382.35 793.91 382.35C792.806 382.35 791.91 383.245 791.91 384.35C791.91 385.454 792.806 386.35 793.91 386.35Z" fill="#67EC88"/>
<path d="M803.31 386.35C804.415 386.35 805.31 385.454 805.31 384.35C805.31 383.245 804.415 382.35 803.31 382.35C802.205 382.35 801.31 383.245 801.31 384.35C801.31 385.454 802.205 386.35 803.31 386.35Z" fill="#67EC88"/>
<path d="M812.7 386.35C813.805 386.35 814.7 385.454 814.7 384.35C814.7 383.245 813.805 382.35 812.7 382.35C811.596 382.35 810.7 383.245 810.7 384.35C810.7 385.454 811.596 386.35 812.7 386.35Z" fill="#67EC88"/>
<path d="M822.09 386.35C823.194 386.35 824.09 385.454 824.09 384.35C824.09 383.245 823.194 382.35 822.09 382.35C820.985 382.35 820.09 383.245 820.09 384.35C820.09 385.454 820.985 386.35 822.09 386.35Z" fill="#67EC88"/>
<path d="M831.48 386.35C832.585 386.35 833.48 385.454 833.48 384.35C833.48 383.245 832.585 382.35 831.48 382.35C830.375 382.35 829.48 383.245 829.48 384.35C829.48 385.454 830.375 386.35 831.48 386.35Z" fill="#67EC88"/>
<path d="M840.87 386.35C841.975 386.35 842.87 385.454 842.87 384.35C842.87 383.245 841.975 382.35 840.87 382.35C839.766 382.35 838.87 383.245 838.87 384.35C838.87 385.454 839.766 386.35 840.87 386.35Z" fill="#67EC88"/>
<path d="M850.26 386.35C851.364 386.35 852.26 385.454 852.26 384.35C852.26 383.245 851.364 382.35 850.26 382.35C849.155 382.35 848.26 383.245 848.26 384.35C848.26 385.454 849.155 386.35 850.26 386.35Z" fill="#67EC88"/>
<path d="M859.65 386.35C860.754 386.35 861.65 385.454 861.65 384.35C861.65 383.245 860.754 382.35 859.65 382.35C858.545 382.35 857.65 383.245 857.65 384.35C857.65 385.454 858.545 386.35 859.65 386.35Z" fill="#67EC88"/>
<path d="M869.04 386.35C870.145 386.35 871.04 385.454 871.04 384.35C871.04 383.245 870.145 382.35 869.04 382.35C867.935 382.35 867.04 383.245 867.04 384.35C867.04 385.454 867.935 386.35 869.04 386.35Z" fill="#67EC88"/>
<path d="M878.43 386.35C879.535 386.35 880.43 385.454 880.43 384.35C880.43 383.245 879.535 382.35 878.43 382.35C877.326 382.35 876.43 383.245 876.43 384.35C876.43 385.454 877.326 386.35 878.43 386.35Z" fill="#67EC88"/>
<path d="M887.83 386.35C888.935 386.35 889.83 385.454 889.83 384.35C889.83 383.245 888.935 382.35 887.83 382.35C886.726 382.35 885.83 383.245 885.83 384.35C885.83 385.454 886.726 386.35 887.83 386.35Z" fill="#67EC88"/>
<path d="M897.22 386.35C898.324 386.35 899.22 385.454 899.22 384.35C899.22 383.245 898.324 382.35 897.22 382.35C896.115 382.35 895.22 383.245 895.22 384.35C895.22 385.454 896.115 386.35 897.22 386.35Z" fill="#67EC88"/>
<path d="M906.61 386.35C907.714 386.35 908.61 385.454 908.61 384.35C908.61 383.245 907.714 382.35 906.61 382.35C905.505 382.35 904.61 383.245 904.61 384.35C904.61 385.454 905.505 386.35 906.61 386.35Z" fill="#67EC88"/>
<path d="M793.91 395.1C795.015 395.1 795.91 394.204 795.91 393.1C795.91 391.995 795.015 391.1 793.91 391.1C792.806 391.1 791.91 391.995 791.91 393.1C791.91 394.204 792.806 395.1 793.91 395.1Z" fill="#67EC88"/>
<path d="M803.31 395.1C804.415 395.1 805.31 394.204 805.31 393.1C805.31 391.995 804.415 391.1 803.31 391.1C802.205 391.1 801.31 391.995 801.31 393.1C801.31 394.204 802.205 395.1 803.31 395.1Z" fill="#67EC88"/>
<path d="M812.7 395.1C813.805 395.1 814.7 394.204 814.7 393.1C814.7 391.995 813.805 391.1 812.7 391.1C811.596 391.1 810.7 391.995 810.7 393.1C810.7 394.204 811.596 395.1 812.7 395.1Z" fill="#67EC88"/>
<path d="M822.09 395.1C823.194 395.1 824.09 394.204 824.09 393.1C824.09 391.995 823.194 391.1 822.09 391.1C820.985 391.1 820.09 391.995 820.09 393.1C820.09 394.204 820.985 395.1 822.09 395.1Z" fill="#67EC88"/>
<path d="M831.48 395.1C832.585 395.1 833.48 394.204 833.48 393.1C833.48 391.995 832.585 391.1 831.48 391.1C830.375 391.1 829.48 391.995 829.48 393.1C829.48 394.204 830.375 395.1 831.48 395.1Z" fill="#67EC88"/>
<path d="M840.87 395.1C841.975 395.1 842.87 394.204 842.87 393.1C842.87 391.995 841.975 391.1 840.87 391.1C839.766 391.1 838.87 391.995 838.87 393.1C838.87 394.204 839.766 395.1 840.87 395.1Z" fill="#67EC88"/>
<path d="M850.26 395.1C851.364 395.1 852.26 394.204 852.26 393.1C852.26 391.995 851.364 391.1 850.26 391.1C849.155 391.1 848.26 391.995 848.26 393.1C848.26 394.204 849.155 395.1 850.26 395.1Z" fill="#67EC88"/>
<path d="M859.65 395.1C860.754 395.1 861.65 394.204 861.65 393.1C861.65 391.995 860.754 391.1 859.65 391.1C858.545 391.1 857.65 391.995 857.65 393.1C857.65 394.204 858.545 395.1 859.65 395.1Z" fill="#67EC88"/>
<path d="M869.04 395.1C870.145 395.1 871.04 394.204 871.04 393.1C871.04 391.995 870.145 391.1 869.04 391.1C867.935 391.1 867.04 391.995 867.04 393.1C867.04 394.204 867.935 395.1 869.04 395.1Z" fill="#67EC88"/>
<path d="M878.43 395.1C879.535 395.1 880.43 394.204 880.43 393.1C880.43 391.995 879.535 391.1 878.43 391.1C877.326 391.1 876.43 391.995 876.43 393.1C876.43 394.204 877.326 395.1 878.43 395.1Z" fill="#67EC88"/>
<path d="M887.83 395.1C888.935 395.1 889.83 394.204 889.83 393.1C889.83 391.995 888.935 391.1 887.83 391.1C886.726 391.1 885.83 391.995 885.83 393.1C885.83 394.204 886.726 395.1 887.83 395.1Z" fill="#67EC88"/>
<path d="M897.22 395.1C898.324 395.1 899.22 394.204 899.22 393.1C899.22 391.995 898.324 391.1 897.22 391.1C896.115 391.1 895.22 391.995 895.22 393.1C895.22 394.204 896.115 395.1 897.22 395.1Z" fill="#67EC88"/>
<path d="M906.61 395.1C907.714 395.1 908.61 394.204 908.61 393.1C908.61 391.995 907.714 391.1 906.61 391.1C905.505 391.1 904.61 391.995 904.61 393.1C904.61 394.204 905.505 395.1 906.61 395.1Z" fill="#67EC88"/>
<path d="M793.91 403.86C795.015 403.86 795.91 402.965 795.91 401.86C795.91 400.756 795.015 399.86 793.91 399.86C792.806 399.86 791.91 400.756 791.91 401.86C791.91 402.965 792.806 403.86 793.91 403.86Z" fill="#67EC88"/>
<path d="M803.31 403.86C804.415 403.86 805.31 402.965 805.31 401.86C805.31 400.756 804.415 399.86 803.31 399.86C802.205 399.86 801.31 400.756 801.31 401.86C801.31 402.965 802.205 403.86 803.31 403.86Z" fill="#67EC88"/>
<path d="M812.7 403.86C813.805 403.86 814.7 402.965 814.7 401.86C814.7 400.756 813.805 399.86 812.7 399.86C811.596 399.86 810.7 400.756 810.7 401.86C810.7 402.965 811.596 403.86 812.7 403.86Z" fill="#67EC88"/>
<path d="M822.09 403.86C823.194 403.86 824.09 402.965 824.09 401.86C824.09 400.756 823.194 399.86 822.09 399.86C820.985 399.86 820.09 400.756 820.09 401.86C820.09 402.965 820.985 403.86 822.09 403.86Z" fill="#67EC88"/>
<path d="M831.48 403.86C832.585 403.86 833.48 402.965 833.48 401.86C833.48 400.756 832.585 399.86 831.48 399.86C830.375 399.86 829.48 400.756 829.48 401.86C829.48 402.965 830.375 403.86 831.48 403.86Z" fill="#67EC88"/>
<path d="M840.87 403.86C841.975 403.86 842.87 402.965 842.87 401.86C842.87 400.756 841.975 399.86 840.87 399.86C839.766 399.86 838.87 400.756 838.87 401.86C838.87 402.965 839.766 403.86 840.87 403.86Z" fill="#67EC88"/>
<path d="M850.26 403.86C851.364 403.86 852.26 402.965 852.26 401.86C852.26 400.756 851.364 399.86 850.26 399.86C849.155 399.86 848.26 400.756 848.26 401.86C848.26 402.965 849.155 403.86 850.26 403.86Z" fill="#67EC88"/>
<path d="M859.65 403.86C860.754 403.86 861.65 402.965 861.65 401.86C861.65 400.756 860.754 399.86 859.65 399.86C858.545 399.86 857.65 400.756 857.65 401.86C857.65 402.965 858.545 403.86 859.65 403.86Z" fill="#67EC88"/>
<path d="M869.04 403.86C870.145 403.86 871.04 402.965 871.04 401.86C871.04 400.756 870.145 399.86 869.04 399.86C867.935 399.86 867.04 400.756 867.04 401.86C867.04 402.965 867.935 403.86 869.04 403.86Z" fill="#67EC88"/>
<path d="M878.43 403.86C879.535 403.86 880.43 402.965 880.43 401.86C880.43 400.756 879.535 399.86 878.43 399.86C877.326 399.86 876.43 400.756 876.43 401.86C876.43 402.965 877.326 403.86 878.43 403.86Z" fill="#67EC88"/>
<path d="M887.83 403.86C888.935 403.86 889.83 402.965 889.83 401.86C889.83 400.756 888.935 399.86 887.83 399.86C886.726 399.86 885.83 400.756 885.83 401.86C885.83 402.965 886.726 403.86 887.83 403.86Z" fill="#67EC88"/>
<path d="M897.22 403.86C898.324 403.86 899.22 402.965 899.22 401.86C899.22 400.756 898.324 399.86 897.22 399.86C896.115 399.86 895.22 400.756 895.22 401.86C895.22 402.965 896.115 403.86 897.22 403.86Z" fill="#67EC88"/>
<path d="M906.61 403.86C907.714 403.86 908.61 402.965 908.61 401.86C908.61 400.756 907.714 399.86 906.61 399.86C905.505 399.86 904.61 400.756 904.61 401.86C904.61 402.965 905.505 403.86 906.61 403.86Z" fill="#67EC88"/>
<path d="M793.91 412.62C795.015 412.62 795.91 411.725 795.91 410.62C795.91 409.516 795.015 408.62 793.91 408.62C792.806 408.62 791.91 409.516 791.91 410.62C791.91 411.725 792.806 412.62 793.91 412.62Z" fill="#67EC88"/>
<path d="M803.31 412.62C804.415 412.62 805.31 411.725 805.31 410.62C805.31 409.516 804.415 408.62 803.31 408.62C802.205 408.62 801.31 409.516 801.31 410.62C801.31 411.725 802.205 412.62 803.31 412.62Z" fill="#67EC88"/>
<path d="M812.7 412.62C813.805 412.62 814.7 411.725 814.7 410.62C814.7 409.516 813.805 408.62 812.7 408.62C811.596 408.62 810.7 409.516 810.7 410.62C810.7 411.725 811.596 412.62 812.7 412.62Z" fill="#67EC88"/>
<path d="M822.09 412.62C823.194 412.62 824.09 411.725 824.09 410.62C824.09 409.516 823.194 408.62 822.09 408.62C820.985 408.62 820.09 409.516 820.09 410.62C820.09 411.725 820.985 412.62 822.09 412.62Z" fill="#67EC88"/>
<path d="M831.48 412.62C832.585 412.62 833.48 411.725 833.48 410.62C833.48 409.516 832.585 408.62 831.48 408.62C830.375 408.62 829.48 409.516 829.48 410.62C829.48 411.725 830.375 412.62 831.48 412.62Z" fill="#67EC88"/>
<path d="M840.87 412.62C841.975 412.62 842.87 411.725 842.87 410.62C842.87 409.516 841.975 408.62 840.87 408.62C839.766 408.62 838.87 409.516 838.87 410.62C838.87 411.725 839.766 412.62 840.87 412.62Z" fill="#67EC88"/>
<path d="M850.26 412.62C851.364 412.62 852.26 411.725 852.26 410.62C852.26 409.516 851.364 408.62 850.26 408.62C849.155 408.62 848.26 409.516 848.26 410.62C848.26 411.725 849.155 412.62 850.26 412.62Z" fill="#67EC88"/>
<path d="M859.65 412.62C860.754 412.62 861.65 411.725 861.65 410.62C861.65 409.516 860.754 408.62 859.65 408.62C858.545 408.62 857.65 409.516 857.65 410.62C857.65 411.725 858.545 412.62 859.65 412.62Z" fill="#67EC88"/>
<path d="M869.04 412.62C870.145 412.62 871.04 411.725 871.04 410.62C871.04 409.516 870.145 408.62 869.04 408.62C867.935 408.62 867.04 409.516 867.04 410.62C867.04 411.725 867.935 412.62 869.04 412.62Z" fill="#67EC88"/>
<path d="M878.43 412.62C879.535 412.62 880.43 411.725 880.43 410.62C880.43 409.516 879.535 408.62 878.43 408.62C877.326 408.62 876.43 409.516 876.43 410.62C876.43 411.725 877.326 412.62 878.43 412.62Z" fill="#67EC88"/>
<path d="M887.83 412.62C888.935 412.62 889.83 411.725 889.83 410.62C889.83 409.516 888.935 408.62 887.83 408.62C886.726 408.62 885.83 409.516 885.83 410.62C885.83 411.725 886.726 412.62 887.83 412.62Z" fill="#67EC88"/>
<path d="M897.22 412.62C898.324 412.62 899.22 411.725 899.22 410.62C899.22 409.516 898.324 408.62 897.22 408.62C896.115 408.62 895.22 409.516 895.22 410.62C895.22 411.725 896.115 412.62 897.22 412.62Z" fill="#67EC88"/>
<path d="M906.61 412.62C907.714 412.62 908.61 411.725 908.61 410.62C908.61 409.516 907.714 408.62 906.61 408.62C905.505 408.62 904.61 409.516 904.61 410.62C904.61 411.725 905.505 412.62 906.61 412.62Z" fill="#67EC88"/>
<path d="M793.91 421.38C795.015 421.38 795.91 420.484 795.91 419.38C795.91 418.275 795.015 417.38 793.91 417.38C792.806 417.38 791.91 418.275 791.91 419.38C791.91 420.484 792.806 421.38 793.91 421.38Z" fill="#67EC88"/>
<path d="M803.31 421.38C804.415 421.38 805.31 420.484 805.31 419.38C805.31 418.275 804.415 417.38 803.31 417.38C802.205 417.38 801.31 418.275 801.31 419.38C801.31 420.484 802.205 421.38 803.31 421.38Z" fill="#67EC88"/>
<path d="M812.7 421.38C813.805 421.38 814.7 420.484 814.7 419.38C814.7 418.275 813.805 417.38 812.7 417.38C811.596 417.38 810.7 418.275 810.7 419.38C810.7 420.484 811.596 421.38 812.7 421.38Z" fill="#67EC88"/>
<path d="M822.09 421.38C823.194 421.38 824.09 420.484 824.09 419.38C824.09 418.275 823.194 417.38 822.09 417.38C820.985 417.38 820.09 418.275 820.09 419.38C820.09 420.484 820.985 421.38 822.09 421.38Z" fill="#67EC88"/>
<path d="M831.48 421.38C832.585 421.38 833.48 420.484 833.48 419.38C833.48 418.275 832.585 417.38 831.48 417.38C830.375 417.38 829.48 418.275 829.48 419.38C829.48 420.484 830.375 421.38 831.48 421.38Z" fill="#67EC88"/>
<path d="M840.87 421.38C841.975 421.38 842.87 420.484 842.87 419.38C842.87 418.275 841.975 417.38 840.87 417.38C839.766 417.38 838.87 418.275 838.87 419.38C838.87 420.484 839.766 421.38 840.87 421.38Z" fill="#67EC88"/>
<path d="M850.26 421.38C851.364 421.38 852.26 420.484 852.26 419.38C852.26 418.275 851.364 417.38 850.26 417.38C849.155 417.38 848.26 418.275 848.26 419.38C848.26 420.484 849.155 421.38 850.26 421.38Z" fill="#67EC88"/>
<path d="M859.65 421.38C860.754 421.38 861.65 420.484 861.65 419.38C861.65 418.275 860.754 417.38 859.65 417.38C858.545 417.38 857.65 418.275 857.65 419.38C857.65 420.484 858.545 421.38 859.65 421.38Z" fill="#67EC88"/>
<path d="M869.04 421.38C870.145 421.38 871.04 420.484 871.04 419.38C871.04 418.275 870.145 417.38 869.04 417.38C867.935 417.38 867.04 418.275 867.04 419.38C867.04 420.484 867.935 421.38 869.04 421.38Z" fill="#67EC88"/>
<path d="M878.43 421.38C879.535 421.38 880.43 420.484 880.43 419.38C880.43 418.275 879.535 417.38 878.43 417.38C877.326 417.38 876.43 418.275 876.43 419.38C876.43 420.484 877.326 421.38 878.43 421.38Z" fill="#67EC88"/>
<path d="M887.83 421.38C888.935 421.38 889.83 420.484 889.83 419.38C889.83 418.275 888.935 417.38 887.83 417.38C886.726 417.38 885.83 418.275 885.83 419.38C885.83 420.484 886.726 421.38 887.83 421.38Z" fill="#67EC88"/>
<path d="M897.22 421.38C898.324 421.38 899.22 420.484 899.22 419.38C899.22 418.275 898.324 417.38 897.22 417.38C896.115 417.38 895.22 418.275 895.22 419.38C895.22 420.484 896.115 421.38 897.22 421.38Z" fill="#67EC88"/>
<path d="M906.61 421.38C907.714 421.38 908.61 420.484 908.61 419.38C908.61 418.275 907.714 417.38 906.61 417.38C905.505 417.38 904.61 418.275 904.61 419.38C904.61 420.484 905.505 421.38 906.61 421.38Z" fill="#67EC88"/>
<path d="M923.38 366.72H871.05V314.39H923.38V366.72ZM877.51 360.27H916.92V320.85H877.51V360.27Z" fill="#DFE1E5"/>
<path d="M830.28 401.1L776.34 407.1L798.12 357.4L830.28 401.1ZM786 400L819.28 396.31L799.45 369.31L786 400Z" fill="#67EC88"/>
<path d="M847.91 423.32C854.62 420.43 859.44 422.87 865.52 425.67C869.42 427.46 872.9 426.73 876.52 424.75C882.76 421.38 886.7 420.47 893.38 423.23C898.29 425.23 903.97 423.51 908.62 425.71C911.51 427.08 914.05 422.77 911.15 421.39C905.65 418.79 899.62 420.39 894.01 418.07C889.01 415.96 883.81 415.59 878.75 417.81C875.65 419.17 872.38 422.46 868.75 421.61C865.96 420.97 863.55 418.69 860.75 417.82C855.657 416.334 850.197 416.753 845.39 419C842.44 420.26 844.98 424.57 847.91 423.32Z" fill="#67EC88"/>
<path d="M876.23 406.28C882.33 401.65 887.87 403.5 893.43 407.54C898.58 411.29 902.95 406.15 908.23 404.92C912.54 403.92 915.14 405.19 918.34 407.85C918.998 408.496 919.803 408.973 920.687 409.238C921.57 409.502 922.505 409.548 923.41 409.37C926.1 408.84 928.3 406.37 930.76 405.29C935.08 403.35 939.58 402.99 943.61 405.7C946.29 407.5 948.8 403.17 946.14 401.38C940.66 397.7 934.02 398.23 928.24 400.97C925.8 402.13 923.97 404.32 920.93 403.26C919.72 402.84 918.44 401.26 917.16 400.69C914.68 399.66 911.969 399.314 909.31 399.69C905.71 400.12 903.02 401.94 899.71 402.99C897.02 403.85 896.63 403.17 894.38 401.77C893.124 400.91 891.784 400.179 890.38 399.59C887.622 398.543 884.643 398.213 881.722 398.631C878.801 399.049 876.034 400.201 873.68 401.98C871.15 403.9 873.68 408.24 876.2 406.3L876.23 406.28Z" fill="#DFE1E5"/>
<path d="M235.81 34.4404H745.91C748.032 34.4404 750.067 35.2833 751.567 36.7836C753.067 38.2839 753.91 40.3187 753.91 42.4404V62.3604H227.81V42.4404C227.81 40.3187 228.653 38.2839 230.153 36.7836C231.654 35.2833 233.688 34.4404 235.81 34.4404Z" fill="#DFE1E5"/>
<path d="M252.51 52.6801C254.874 52.6801 256.79 50.7639 256.79 48.4001C256.79 46.0363 254.874 44.1201 252.51 44.1201C250.146 44.1201 248.23 46.0363 248.23 48.4001C248.23 50.7639 250.146 52.6801 252.51 52.6801Z" fill="#FF6058"/>
<path d="M267.77 52.6801C270.134 52.6801 272.05 50.7639 272.05 48.4001C272.05 46.0363 270.134 44.1201 267.77 44.1201C265.406 44.1201 263.49 46.0363 263.49 48.4001C263.49 50.7639 265.406 52.6801 267.77 52.6801Z" fill="#FFBD2E"/>
<path d="M283.03 52.6801C285.394 52.6801 287.31 50.7639 287.31 48.4001C287.31 46.0363 285.394 44.1201 283.03 44.1201C280.666 44.1201 278.75 46.0363 278.75 48.4001C278.75 50.7639 280.666 52.6801 283.03 52.6801Z" fill="#29C940"/>
<path d="M331.06 122.51C334.037 122.51 336.45 120.097 336.45 117.12C336.45 114.144 334.037 111.73 331.06 111.73C328.083 111.73 325.67 114.144 325.67 117.12C325.67 120.097 328.083 122.51 331.06 122.51Z" fill="#C30D23"/>
<path opacity="0.37" d="M331.06 126.37C336.169 126.37 340.31 122.229 340.31 117.12C340.31 112.011 336.169 107.87 331.06 107.87C325.951 107.87 321.81 112.011 321.81 117.12C321.81 122.229 325.951 126.37 331.06 126.37Z" fill="#C30D23"/>
<path d="M351.522 116.908H348.85V121.51H347.342V110.135H351.108C352.389 110.135 353.374 110.426 354.061 111.01C354.754 111.593 355.1 112.442 355.1 113.557C355.1 114.265 354.907 114.882 354.522 115.408C354.142 115.934 353.611 116.327 352.928 116.588L355.6 121.416V121.51H353.991L351.522 116.908ZM348.85 115.682H351.155C351.9 115.682 352.491 115.489 352.928 115.104C353.371 114.718 353.592 114.202 353.592 113.557C353.592 112.854 353.381 112.314 352.959 111.939C352.543 111.564 351.939 111.374 351.147 111.369H348.85V115.682ZM363.639 116.252H358.709V120.283H364.436V121.51H357.209V110.135H364.358V111.369H358.709V115.025H363.639V116.252ZM374.67 117.9C374.53 119.104 374.084 120.033 373.334 120.689C372.59 121.34 371.597 121.666 370.358 121.666C369.014 121.666 367.936 121.184 367.124 120.221C366.316 119.257 365.913 117.968 365.913 116.354V115.26C365.913 114.202 366.1 113.273 366.475 112.471C366.855 111.669 367.392 111.054 368.084 110.627C368.777 110.195 369.579 109.979 370.491 109.979C371.699 109.979 372.668 110.317 373.397 110.994C374.126 111.666 374.551 112.598 374.67 113.791H373.163C373.032 112.885 372.749 112.229 372.311 111.822C371.879 111.416 371.272 111.213 370.491 111.213C369.532 111.213 368.78 111.567 368.233 112.275C367.691 112.984 367.42 113.992 367.42 115.299V116.4C367.42 117.635 367.678 118.617 368.194 119.346C368.709 120.075 369.431 120.439 370.358 120.439C371.191 120.439 371.829 120.252 372.272 119.877C372.72 119.497 373.017 118.838 373.163 117.9H374.67Z" fill="#C30D23"/>
<path d="M604.62 221.92C618.09 221.92 629.01 211 629.01 197.53C629.01 184.059 618.09 173.14 604.62 173.14C591.15 173.14 580.23 184.059 580.23 197.53C580.23 211 591.15 221.92 604.62 221.92Z" fill="#4B4B4B"/>
<path d="M629.01 197.53L565.81 178.47" stroke="#231815" stroke-miterlimit="10"/>
<path d="M622.91 248.31V333.49C622.911 335.813 622.491 338.116 621.67 340.29H585.19C584.369 338.116 583.949 335.813 583.95 333.49V248.31C583.946 244.457 585.086 240.689 587.226 237.485C589.365 234.281 592.407 231.783 595.967 230.31C599.527 228.836 603.444 228.452 607.222 229.207C611.001 229.962 614.47 231.821 617.19 234.55C618.18 235.531 619.055 236.621 619.8 237.8C621.832 240.928 622.913 244.579 622.91 248.31Z" stroke="#231815" stroke-miterlimit="10"/>
<path d="M612.34 221.92H577.02V242.69H612.34V221.92Z" fill="white" stroke="#67EC88" stroke-width="2" stroke-miterlimit="10"/>
<path d="M574.32 232.3L520.42 201.18V263.42L574.32 232.3Z" fill="white" stroke="#67EC88" stroke-width="2" stroke-miterlimit="10"/>
<path d="M574.766 225.773L574.757 225.778C571.247 227.805 570.044 232.294 572.071 235.805L593.536 272.983C595.563 276.494 600.052 277.697 603.562 275.67L603.571 275.665C607.082 273.638 608.285 269.149 606.258 265.638L584.793 228.46C582.766 224.949 578.277 223.746 574.766 225.773Z" fill="white" stroke="#231815" stroke-miterlimit="10"/>
<path d="M603.23 228.88C603.997 228.88 604.62 228.257 604.62 227.49C604.62 226.722 603.997 226.1 603.23 226.1C602.462 226.1 601.84 226.722 601.84 227.49C601.84 228.257 602.462 228.88 603.23 228.88Z" fill="#C30D23"/>
<path d="M314.56 271.03L343.63 186.63L390.31 245.57L410.68 220.55L446.49 271.03H314.56Z" fill="#4B5F87"/>
<path d="M321.81 274.5L350.88 190.1L397.56 249.04L417.93 224.02L453.74 274.5H321.81Z" stroke="#231815" stroke-miterlimit="10"/>
<path d="M399.24 202.04C403.117 202.04 406.26 198.897 406.26 195.02C406.26 191.143 403.117 188 399.24 188C395.363 188 392.22 191.143 392.22 195.02C392.22 198.897 395.363 202.04 399.24 202.04Z" fill="#DFE1E5"/>
<path d="M345.99 280.07H473.73" stroke="#231815" stroke-width="0.75" stroke-miterlimit="10"/>
<path d="M368.14 283.16H486.4" stroke="#231815" stroke-width="0.75" stroke-miterlimit="10"/>
<path d="M360.47 288.31H427.27" stroke="#231815" stroke-width="0.75" stroke-miterlimit="10"/>
<path d="M403.68 294.49H477.86" stroke="#231815" stroke-width="0.75" stroke-miterlimit="10"/>
<path d="M581.65 224.44C585.698 224.44 588.98 221.159 588.98 217.11C588.98 213.062 585.698 209.78 581.65 209.78C577.602 209.78 574.32 213.062 574.32 217.11C574.32 221.159 577.602 224.44 581.65 224.44Z" fill="white" stroke="#231815" stroke-miterlimit="10"/>
<path d="M674.94 94.4004H295.32V340.29H674.94V94.4004Z" stroke="#67EC88" stroke-width="2" stroke-miterlimit="10"/>
<path d="M527.29 212.07L543.72 221.92" stroke="#67EC88" stroke-miterlimit="10"/>
<path d="M197.65 153.98C230.555 153.98 257.23 127.305 257.23 94.4003C257.23 61.4952 230.555 34.8203 197.65 34.8203C164.745 34.8203 138.07 61.4952 138.07 94.4003C138.07 127.305 164.745 153.98 197.65 153.98Z" fill="white" stroke="#231815" stroke-width="2" stroke-miterlimit="10"/>
<path d="M126.2 271.65C159.105 271.65 185.78 244.975 185.78 212.07C185.78 179.165 159.105 152.49 126.2 152.49C93.295 152.49 66.6201 179.165 66.6201 212.07C66.6201 244.975 93.295 271.65 126.2 271.65Z" fill="white" stroke="#231815" stroke-width="2" stroke-miterlimit="10"/>
<path d="M223.62 82.4598C223.31 81.8798 222.62 81.5898 221.62 81.5898C221.061 81.6218 220.519 81.7901 220.04 82.0798C219.45 82.4098 218.97 82.6898 218.63 82.9198C217.475 83.7536 216.38 84.6658 215.35 85.6498C214.017 86.8854 212.765 88.2048 211.6 89.5998C210.448 90.9723 209.42 92.4448 208.53 93.9998C207.779 95.1833 207.345 96.5402 207.27 97.9398C207.326 99.2875 207.733 100.597 208.45 101.74C209.252 103.144 210.165 104.481 211.18 105.74C212.142 106.965 213.17 108.137 214.26 109.25C215.28 110.29 216.04 111.02 216.54 111.44C216.829 111.71 217.137 111.961 217.46 112.19C217.88 112.5 218.33 112.8 218.81 113.11C219.272 113.41 219.753 113.681 220.25 113.92C220.614 114.117 221.017 114.233 221.43 114.26C221.822 114.284 222.213 114.204 222.564 114.029C222.916 113.853 223.214 113.588 223.43 113.26C223.873 112.598 224.103 111.816 224.09 111.02V84.5898C224.114 83.8517 223.952 83.1194 223.62 82.4598Z" fill="#67EC88"/>
<path d="M206.17 80.1296C206.167 79.8473 206.109 79.5682 205.999 79.3083C205.888 79.0485 205.728 78.8129 205.526 78.6152C205.325 78.4174 205.086 78.2612 204.824 78.1556C204.562 78.05 204.282 77.997 204 77.9996H165.2C164.915 77.993 164.632 78.043 164.367 78.1468C164.101 78.2507 163.859 78.4062 163.654 78.6044C163.45 78.8026 163.286 79.0395 163.174 79.3013C163.062 79.5631 163.003 79.8447 163 80.1296V115C162.999 115.284 163.054 115.565 163.162 115.828C163.27 116.09 163.429 116.329 163.63 116.53C163.831 116.731 164.069 116.89 164.332 116.998C164.595 117.106 164.876 117.161 165.16 117.16H204C204.284 117.161 204.566 117.106 204.828 116.998C205.091 116.89 205.329 116.731 205.53 116.53C205.731 116.329 205.89 116.09 205.998 115.828C206.106 115.565 206.161 115.284 206.16 115V104C206.16 103.89 205.96 103.63 205.56 103.23C205.092 102.75 204.658 102.239 204.26 101.7C203.781 101.066 203.35 100.397 202.97 99.6996C202.571 98.9843 202.361 98.1788 202.36 97.3596C202.375 96.5321 202.595 95.7212 203 94.9996C203.383 94.2623 203.814 93.5508 204.29 92.8696C204.75 92.2196 205.18 91.6496 205.59 91.1696C205.877 90.8969 206.085 90.5512 206.19 90.1696V80.1696L206.17 80.1296Z" fill="#67EC88"/>
<path d="M227.28 79.3202C226.98 78.7402 226.28 78.4502 225.28 78.4502C224.718 78.4834 224.173 78.6514 223.69 78.9402C223.103 79.2735 222.633 79.5535 222.28 79.7802C221.127 80.6165 220.032 81.5285 219 82.5102C217.673 83.7485 216.424 85.0677 215.26 86.4602C214.116 87.8134 213.096 89.2658 212.21 90.8002C211.445 91.9998 211.007 93.3789 210.94 94.8002C210.996 96.1479 211.403 97.4576 212.12 98.6002C212.931 100 213.847 101.338 214.86 102.6C215.821 103.823 216.846 104.995 217.93 106.11C218.95 107.15 219.71 107.88 220.21 108.3C220.499 108.571 220.807 108.821 221.13 109.05C221.55 109.36 222.01 109.66 222.49 109.97C222.948 110.272 223.425 110.543 223.92 110.78C224.288 110.978 224.693 111.094 225.11 111.12C225.502 111.146 225.894 111.068 226.246 110.892C226.597 110.716 226.896 110.45 227.11 110.12C227.553 109.458 227.783 108.677 227.77 107.88V81.4502C227.787 80.7104 227.619 79.978 227.28 79.3202Z" stroke="#231815" stroke-width="2" stroke-miterlimit="10"/>
<path d="M209.83 76.9996C209.83 76.7164 209.774 76.436 209.666 76.1745C209.557 75.913 209.398 75.6756 209.197 75.4758C208.996 75.276 208.758 75.1179 208.496 75.0104C208.234 74.903 207.953 74.8483 207.67 74.8496H168.86C168.578 74.8492 168.298 74.9046 168.037 75.0127C167.776 75.1208 167.539 75.2795 167.34 75.4796C167.137 75.677 166.976 75.9134 166.866 76.1745C166.756 76.4357 166.699 76.7163 166.7 76.9996V111.84C166.703 112.412 166.931 112.96 167.336 113.364C167.74 113.769 168.288 113.997 168.86 114H207.67C207.954 114.001 208.236 113.946 208.498 113.838C208.761 113.73 209 113.571 209.201 113.37C209.401 113.169 209.56 112.93 209.668 112.668C209.777 112.405 209.832 112.124 209.83 111.84V106.93V100.88C209.83 100.77 209.62 100.51 209.22 100.1C208.755 99.6207 208.321 99.113 207.92 98.5796C207.442 97.9453 207.011 97.2768 206.63 96.5796C206.23 95.8684 206.02 95.0659 206.02 94.2496C206.026 93.4247 206.235 92.6139 206.63 91.8896C207.011 91.1511 207.442 90.4394 207.92 89.7596C208.39 89.1096 208.82 88.5396 209.22 88.0596C209.62 87.5796 209.83 87.2496 209.83 87.0596V76.9996Z" stroke="#231815" stroke-width="2" stroke-miterlimit="10"/>
<path d="M141.2 201.62V217.74C141.131 222.55 139.16 227.138 135.72 230.5C134.129 232.164 132.216 233.487 130.099 234.389C127.981 235.292 125.702 235.755 123.4 235.75C121.087 235.749 118.798 235.284 116.668 234.382C114.538 233.48 112.611 232.16 111 230.5C107.558 227.141 105.582 222.559 105.5 217.75V201.64C105.579 196.828 107.556 192.242 111 188.88C112.615 187.214 114.548 185.89 116.685 184.986C118.823 184.082 121.12 183.618 123.44 183.62C125.743 183.619 128.022 184.083 130.141 184.985C132.26 185.888 134.175 187.209 135.77 188.87C139.191 192.238 141.142 196.82 141.2 201.62Z" fill="#67EC88"/>
<path d="M144.07 198.22V214.33C144.003 219.14 142.032 223.728 138.59 227.09C137 228.755 135.088 230.08 132.97 230.984C130.852 231.889 128.573 232.353 126.27 232.35C123.951 232.353 121.655 231.889 119.519 230.985C117.384 230.081 115.452 228.757 113.84 227.09C110.399 223.734 108.422 219.155 108.34 214.35V198.24C108.412 193.43 110.381 188.843 113.82 185.48C115.435 183.814 117.368 182.489 119.505 181.586C121.642 180.682 123.94 180.217 126.26 180.22C128.563 180.218 130.842 180.683 132.961 181.585C135.08 182.487 136.995 183.809 138.59 185.47C142.03 188.829 144 193.413 144.07 198.22Z" stroke="#231815" stroke-width="2" stroke-miterlimit="10"/>
<path d="M154.52 214.24C154.442 213.634 154.138 213.079 153.669 212.688C153.199 212.297 152.599 212.098 151.989 212.131C151.379 212.164 150.804 212.426 150.379 212.866C149.954 213.305 149.712 213.889 149.7 214.5C149.882 217.701 149.359 220.903 148.17 223.88C146.431 228.213 143.454 231.937 139.61 234.587C135.767 237.237 131.228 238.695 126.56 238.78C123.176 238.782 119.826 238.101 116.71 236.78C113.856 235.579 111.275 233.813 109.12 231.59C107.024 229.433 105.385 226.875 104.3 224.07C103.137 221.004 102.593 217.738 102.7 214.46C102.708 213.824 102.472 213.208 102.04 212.74C101.822 212.509 101.56 212.324 101.27 212.195C100.98 212.066 100.667 211.996 100.35 211.99C100.032 211.983 99.7165 212.04 99.4212 212.157C99.126 212.274 98.8569 212.448 98.6299 212.67C98.3978 212.885 98.2117 213.145 98.0828 213.433C97.9539 213.722 97.8849 214.034 97.8799 214.35C97.7542 218.252 98.4139 222.139 99.8199 225.78C101.127 229.176 103.114 232.27 105.66 234.87C108.262 237.554 111.377 239.686 114.82 241.14C117.124 242.103 119.539 242.775 122.01 243.14L122.33 243.19V246.8C122.33 247.837 122.742 248.832 123.475 249.565C124.208 250.298 125.203 250.71 126.24 250.71C127.277 250.71 128.271 250.298 129.005 249.565C129.738 248.832 130.15 247.837 130.15 246.8V243.3H130.47C132.838 242.956 135.151 242.304 137.35 241.36C140.827 239.861 143.974 237.689 146.61 234.97C149.102 232.441 151.091 229.462 152.47 226.19L152.69 225.62C154.113 222.003 154.744 218.122 154.54 214.24H154.52Z" stroke="#231815" stroke-width="2" stroke-miterlimit="10"/>
<path d="M141.2 280.07C141.2 280.07 178.01 355.07 252.51 341.29C327.01 327.51 229.75 253.19 206.17 294.49C182.59 335.79 280.05 371 368.14 331C455.34 291.33 464 271.7 498.03 263.7" stroke="#231815" stroke-miterlimit="10" stroke-dasharray="3 3"/>
<path d="M495.84 268.48L495 267.94L497.66 263.79L493.33 261.43L493.8 260.55L499.08 263.42L495.84 268.48Z" fill="#231815"/>
<path d="M227.74 149.91C227.74 149.91 246.86 226.28 298.69 226.1C350.52 225.92 416.16 165.34 459 190.1C495.24 211.1 505.77 223.31 508.16 226.59" stroke="#231815" stroke-miterlimit="10" stroke-dasharray="3 3"/>
<path d="M502.83 226.51L502.99 225.53L507.86 226.33L508.3 221.42L509.3 221.51L508.76 227.49L502.83 226.51Z" fill="#231815"/>
<path d="M822.45 1H719.08V104.37H822.45V1Z" fill="white" stroke="#231815" stroke-width="2" stroke-miterlimit="10"/>
<path d="M809.37 76.9202H742.65V10.2002" stroke="#231815" stroke-width="2" stroke-miterlimit="10"/>
<path d="M733.09 19.8799H799.81V86.5999" stroke="#231815" stroke-width="2" stroke-miterlimit="10"/>
<path d="M754.98 61.1596L764.45 44.3496L772.24 53.8896L778.83 49.1196L787 61.1596H754.98Z" fill="#67EC88"/>
<path d="M776.94 40.1404C778.514 40.1404 779.79 38.8644 779.79 37.2904C779.79 35.7164 778.514 34.4404 776.94 34.4404C775.366 34.4404 774.09 35.7164 774.09 37.2904C774.09 38.8644 775.366 40.1404 776.94 40.1404Z" fill="#DFE1E5"/>
<path d="M740.01 111.1H801.52" stroke="#231815" stroke-width="0.75" stroke-miterlimit="10"/>
<path d="M751.56 117.83H789.96" stroke="#231815" stroke-width="0.75" stroke-miterlimit="10"/>
<path d="M877.11 114.24H801.52V189.83H877.11V114.24Z" fill="white" stroke="#231815" stroke-width="2" stroke-miterlimit="10"/>
<path d="M816.82 194.76H861.8" stroke="#231815" stroke-width="0.75" stroke-miterlimit="10"/>
<path d="M825.27 199.68H853.35" stroke="#231815" stroke-width="0.75" stroke-miterlimit="10"/>
<path d="M746.74 212.55L749.47 221.13L761.18 212.23L746.74 212.55ZM699.58 254.42L751.52 239.7L742.74 213.54L715.43 237.68L740.5 206.68L732.5 182.14L699.58 254.42Z" fill="#DFE1E5"/>
<path d="M699.58 255.42C699.413 255.42 699.249 255.378 699.103 255.298C698.956 255.218 698.832 255.103 698.742 254.963C698.651 254.822 698.597 254.662 698.585 254.496C698.572 254.329 698.602 254.162 698.67 254.01L731.59 181.78C731.675 181.59 731.816 181.431 731.996 181.325C732.175 181.219 732.383 181.172 732.59 181.19C732.792 181.201 732.987 181.272 733.147 181.395C733.308 181.519 733.427 181.688 733.49 181.88L741.49 206.42C741.542 206.579 741.554 206.748 741.524 206.912C741.495 207.076 741.424 207.23 741.32 207.36L723.78 229L742.08 212.83C742.203 212.721 742.352 212.643 742.512 212.605C742.673 212.566 742.84 212.568 743 212.61C743.16 212.653 743.306 212.735 743.427 212.848C743.547 212.962 743.638 213.103 743.69 213.26L752.47 239.42C752.514 239.549 752.532 239.686 752.522 239.821C752.511 239.957 752.473 240.09 752.41 240.21C752.345 240.33 752.257 240.435 752.15 240.519C752.044 240.603 751.921 240.665 751.79 240.7L699.85 255.42C699.761 255.435 699.669 255.435 699.58 255.42ZM732.35 184.94L701.35 252.87L750.24 239L742.24 215.26L716.1 238.43C715.912 238.599 715.668 238.691 715.415 238.687C715.163 238.683 714.922 238.583 714.739 238.409C714.557 238.234 714.448 237.997 714.433 237.745C714.418 237.493 714.499 237.245 714.66 237.05L739.38 206.53L732.35 184.94ZM749.47 222.13C749.367 222.145 749.263 222.145 749.16 222.13C749.008 222.082 748.869 221.997 748.756 221.884C748.643 221.771 748.558 221.633 748.51 221.48L745.79 212.9C745.744 212.753 745.732 212.596 745.757 212.444C745.781 212.291 745.84 212.146 745.93 212.02C746.02 211.894 746.138 211.79 746.275 211.717C746.412 211.644 746.565 211.604 746.72 211.6L761.16 211.28C761.37 211.277 761.576 211.339 761.748 211.459C761.92 211.579 762.051 211.75 762.12 211.948C762.19 212.146 762.196 212.361 762.136 212.563C762.077 212.764 761.956 212.942 761.79 213.07L750.07 221.97C749.892 222.086 749.682 222.142 749.47 222.13ZM748.1 213.52L749.99 219.47L758.12 213.3L748.1 213.52Z" fill="#231815"/>
<path d="M805.48 276L804.63 275.49L805.26 274.44L806.12 274.95L805.48 276ZM807.65 272.37L806.79 271.86C807.3 270.99 807.79 270.12 808.28 269.27L809.15 269.76C808.67 270.587 808.17 271.44 807.65 272.32V272.37ZM810.65 267.14L809.78 266.66C810.26 265.77 810.78 264.89 811.19 264.02L812.08 264.49C811.59 265.31 811.11 266.19 810.62 267.09L810.65 267.14ZM813.46 261.82L812.57 261.37C813.03 260.46 813.47 259.57 813.89 258.69L814.79 259.12C814.34 260 813.89 260.85 813.43 261.77L813.46 261.82ZM816.08 256.4L815.17 255.98C815.59 255.047 815.99 254.137 816.37 253.25L817.29 253.64C816.88 254.49 816.47 255.41 816.05 256.35L816.08 256.4ZM818.44 250.86L817.51 250.49C817.89 249.54 818.24 248.61 818.57 247.7L819.51 248.04C819.15 248.91 818.79 249.85 818.41 250.81L818.44 250.86ZM820.49 245.18L819.49 244.88C819.81 243.88 820.09 242.95 820.35 242.03L821.35 242.29C821.06 243.18 820.77 244.14 820.46 245.13L820.49 245.18ZM822.08 239.36L821.08 239.14C821.3 238.14 821.49 237.14 821.64 236.23L822.64 236.38C822.47 237.3 822.28 238.3 822.05 239.31L822.08 239.36ZM823.08 233.36L822.08 233.28C822.17 232.28 822.21 231.28 822.21 230.34H823.21C823.14 231.27 823.1 232.29 823 233.32L823.08 233.36ZM822.08 227.36C821.971 226.39 821.801 225.428 821.57 224.48L822.57 224.24C822.817 225.226 822.994 226.229 823.1 227.24L822.08 227.36ZM820.64 221.72C820.258 220.83 819.796 219.977 819.26 219.17L820.09 218.61C820.658 219.469 821.15 220.376 821.56 221.32L820.64 221.72ZM817.42 216.93C816.741 216.238 816.002 215.609 815.21 215.05L815.78 214.23C816.621 214.829 817.411 215.498 818.14 216.23L817.42 216.93ZM812.69 213.56C811.815 213.126 810.913 212.748 809.99 212.43L810.31 211.49C811.279 211.819 812.224 212.213 813.14 212.67L812.69 213.56ZM780.62 212.72L780.36 211.72C780.41 211.72 781.5 211.42 783.36 211.06L783.55 212.06C781.64 212.42 780.54 212.71 780.53 212.71L780.62 212.72ZM807.15 211.62C806.23 211.41 805.25 211.22 804.25 211.08L804.39 210.08C805.39 210.23 806.39 210.42 807.39 210.64L807.15 211.62ZM786.46 211.54L786.3 210.54C787.22 210.4 788.23 210.25 789.3 210.12L789.42 211.12C788.27 211.24 787.28 211.39 786.37 211.53L786.46 211.54ZM792.38 210.83L792.3 209.83C793.3 209.75 794.3 209.69 795.3 209.65V210.65C794.3 210.68 793.3 210.74 792.29 210.82L792.38 210.83ZM801.3 210.75C800.3 210.68 799.3 210.64 798.3 210.62V209.62C799.3 209.62 800.3 209.68 801.3 209.76V210.75Z" fill="#231815"/>
<path d="M835.02 132.3L819.6 147.72" stroke="#DFE1E5" stroke-width="2" stroke-miterlimit="10"/>
<path d="M846.46 132.3L819.45 159.31" stroke="#DFE1E5" stroke-width="2" stroke-miterlimit="10"/>
<path d="M854.51 135.69L823.03 167.17" stroke="#DFE1E5" stroke-width="2" stroke-miterlimit="10"/>
<path d="M859.22 142.41L829.73 171.91" stroke="#DFE1E5" stroke-width="2" stroke-miterlimit="10"/>
<path d="M859.05 154.03L841.3 171.77" stroke="#DFE1E5" stroke-width="2" stroke-miterlimit="10"/>
<path d="M248.23 328.15V407.24C248.23 408.179 247.857 409.08 247.193 409.743C246.529 410.407 245.629 410.78 244.69 410.78H183.17C182.705 410.782 182.244 410.691 181.814 410.514C181.384 410.336 180.993 410.075 180.664 409.746C180.335 409.417 180.074 409.027 179.897 408.597C179.719 408.166 179.629 407.706 179.63 407.24V350.24L205.29 324.57H244.69C245.158 324.57 245.622 324.663 246.054 324.844C246.486 325.024 246.878 325.288 247.207 325.621C247.537 325.954 247.796 326.349 247.972 326.783C248.148 327.217 248.235 327.682 248.23 328.15Z" fill="#DFE1E5" stroke="#231815" stroke-width="2" stroke-miterlimit="10"/>
<path d="M179.63 350.28L205.29 324.61V346.74C205.291 347.206 205.201 347.667 205.023 348.097C204.846 348.527 204.585 348.917 204.256 349.246C203.927 349.575 203.536 349.836 203.106 350.014C202.676 350.191 202.215 350.282 201.75 350.28H179.63Z" fill="white" stroke="#231815" stroke-width="2" stroke-linecap="round" stroke-linejoin="round"/>
<path d="M190.969 378.709L197.361 394.661L203.753 378.709H207.096V398.26H204.518V390.646L204.76 382.428L198.341 398.26H196.367L189.962 382.469L190.218 390.646V398.26H187.639V378.709H190.969ZM214.226 390.606V398.26H211.648V378.709H218.859C220.998 378.709 222.672 379.255 223.881 380.347C225.098 381.439 225.707 382.885 225.707 384.684C225.707 386.582 225.112 388.046 223.921 389.075C222.74 390.096 221.043 390.606 218.832 390.606H214.226ZM214.226 388.498H218.859C220.237 388.498 221.294 388.176 222.028 387.531C222.762 386.878 223.129 385.938 223.129 384.711C223.129 383.547 222.762 382.616 222.028 381.918C221.294 381.22 220.287 380.857 219.007 380.831H214.226V388.498ZM238.839 391.694H241.552V393.721H238.839V398.26H236.342V393.721H227.439V392.258L236.194 378.709H238.839V391.694ZM230.259 391.694H236.342V382.106L236.046 382.643L230.259 391.694Z" fill="#231815"/>
<path d="M192.46 416.38H349.12" stroke="#231815" stroke-width="0.75" stroke-miterlimit="10"/>
<path d="M211.99 419.08H290.32" stroke="#231815" stroke-width="0.75" stroke-miterlimit="10"/>
<path d="M159.1 419L45.6099 431.57L91.4599 327L159.1 419ZM65.9999 416.61L136 408.84L94.2399 352.08L65.9999 416.61Z" fill="#FFBD2E"/>
<path d="M859.05 132.3H819.58V171.77H859.05V132.3Z" stroke="#231815" stroke-width="2" stroke-miterlimit="10"/>
<path d="M824.47 127.77H815.39V136.85H824.47V127.77Z" fill="white" stroke="#231815" stroke-width="2" stroke-miterlimit="10"/>
<path d="M863.59 127.77H854.51V136.85H863.59V127.77Z" fill="white" stroke="#231815" stroke-width="2" stroke-miterlimit="10"/>
<path d="M824.47 167.23H815.39V176.31H824.47V167.23Z" fill="white" stroke="#231815" stroke-width="2" stroke-miterlimit="10"/>
<path d="M863.59 167.23H854.51V176.31H863.59V167.23Z" fill="white" stroke="#231815" stroke-width="2" stroke-miterlimit="10"/>
</svg>
