<svg viewBox="0 0 349 190" xmlns="http://www.w3.org/2000/svg">
  <title>pic-1</title>
  <g id="MW-14602-Упоминания-SR-desktop-на-страницах-SRO" stroke="none" stroke-width="1" fill="none" fill-rule="evenodd">
    <g id="MW-14602-—-XL" transform="translate(-405.000000, -1334.000000)">
      <g id="Group-24" transform="translate(406.000000, 1214.000000)">
        <g id="pic-1" transform="translate(0.000000, 120.000000)">
          <rect id="Mask" x="0" y="0" width="348" height="190"></rect>
          <path d="M28.6226801,133.680331 L28.4382823,36.4894624 C28.4349655,34.6454447 29.9300376,33.1522727 31.7706374,33.1572486 L206.85687,33.7126279 C208.675874,33.7176162 210.152673,35.1875094 210.169285,37.0082482 L211.003203,133.770121 L28.6226801,133.680331 Z M212.966731,23.7941743 L27.2339242,23.7941743 C24.5976137,23.7941743 17.4096393,26.6242176 17.4096393,32.9544024 L17.4096393,145.239944 C17.4096393,153.874735 24.6457883,154.834156 27.2804376,154.834156 L213.541503,154.834156 C221.305911,154.834156 222.933879,148.93463 222.933879,146.535245 L222.933879,33.4349445 C222.933879,30.9890023 222.119895,23.7941743 212.966731,23.7941743 L212.966731,23.7941743 Z" id="Fill-2" fill="#D9E2E7"></path>
          <path d="M213.542168,154.833491 L27.281102,154.833491 C24.6464528,154.833491 17.4103038,153.45505 17.4103038,145.239278 L17.4103038,133.393668 C17.4103038,133.393668 26.8226133,133.455191 29.4572625,133.455191 L211.002206,133.769456 L222.934543,133.769456 L222.934543,147.525594 C222.934543,147.916346 221.304914,154.833491 213.542168,154.833491 Z" id="Stroke-4" stroke="#2E324F" stroke-linecap="round" stroke-linejoin="round"></path>
          <path d="M213.542168,154.833491 L27.281102,154.833491 C24.6464528,154.833491 17.4103038,153.87407 17.4103038,145.239278 L17.4103038,32.9554001 C17.4103038,26.6235525 24.5982782,23.7935092 27.2329275,23.7935092 L212.967396,23.7935092 C222.120559,23.7935092 222.934543,30.9883371 222.934543,33.4342793 L222.934543,146.536243 C222.934543,148.933965 221.304914,154.833491 213.542168,154.833491 Z" id="Stroke-6" stroke="#2E324F" stroke-linecap="round" stroke-linejoin="round"></path>
          <path d="M104.334959,154.750685 L104.238609,159.682476 C104.238609,159.682476 104.238609,162.798516 99.447734,165.638536 C94.6551973,168.438649 93.1700923,167.846701 90.1500467,171.988674 C87.1316622,176.130647 87.9473071,178.024548 87.9473071,178.024548 L149.619031,178.024548 C149.619031,178.024548 150.145629,173.962388 147.414631,171.514783 C144.683632,169.068841 139.794746,166.664468 136.967399,164.770568 C134.140051,162.878329 133.326068,160.628595 133.229719,159.682476 C133.13337,158.734694 133.086856,154.592721 133.086856,154.592721 L104.334959,154.750685 Z" id="Fill-8" fill="#D9E2E7"></path>
          <polygon id="Fill-10" fill="#2E324F" points="104.287116 154.641939 133.2151 154.332663 133.623753 161.012031 104.287116 156.687153"></polygon>
          <path d="M108.552059,168.871304 C100.310889,168.871304 94.2724588,168.871304 94.0814218,168.774863 C93.8887237,168.726642 93.7923746,168.488865 93.8405491,168.294321 C93.8887237,168.103101 94.0814218,168.00666 94.2724588,168.056544 C95.3273153,168.151322 126.424815,168.103101 142.717778,168.056544 C142.910477,168.056544 143.053339,168.199542 143.101514,168.390761 C143.149688,168.583643 142.95699,168.774863 142.765953,168.774863 C132.704118,168.823083 118.90128,168.871304 108.552059,168.871304" id="Fill-12" fill="#2E324F"></path>
          <path d="M118.998626,140.060233 C120.95717,140.060233 122.543608,141.520149 122.543608,143.322598 C122.543608,145.123383 120.95717,146.5833 118.998626,146.5833 C117.040081,146.5833 115.451982,145.123383 115.451982,143.322598 C115.451982,141.520149 117.040081,140.060233 118.998626,140.060233" id="Fill-14" fill="#67EC88"></path>
          <path d="M21.2438348,46.4333564 C30.558134,46.4333564 38.1115705,53.9923321 38.1115705,63.317175 C38.1115705,72.6420178 30.558134,80.2009935 21.2438348,80.2009935 C11.9278744,80.2009935 4.37609911,72.6420178 4.37609911,63.317175 C4.37609911,53.9923321 11.9278744,46.4333564 21.2438348,46.4333564" id="Fill-16" fill="#67EC88"></path>
          <path d="M47.8861857,149.892388 C51.3796709,149.892388 54.2120019,152.72742 54.2120019,156.225899 C54.2120019,159.721052 51.3796709,162.556084 47.8861857,162.556084 C44.3927006,162.556084 41.5603696,159.721052 41.5603696,156.225899 C41.5603696,152.72742 44.3927006,149.892388 47.8861857,149.892388" id="Fill-18" fill="#67EC88"></path>
          <path d="M102.034707,122.841365 L47.886518,122.841365 C45.7784663,122.841365 44.0524886,121.113742 44.0524886,119.00368 L44.0524886,45.2812195 C44.0524886,43.1711579 45.7784663,41.4451973 47.886518,41.4451973 L102.034707,41.4451973 C104.14442,41.4451973 105.868736,43.1711579 105.868736,45.2812195 L105.868736,119.00368 C105.868736,121.161962 104.190933,122.841365 102.034707,122.841365" id="Fill-20" fill="#D9E2E7"></path>
          <path d="M198.016342,123.464906 L128.630046,123.464906 C126.521995,123.464906 124.796017,121.737282 124.796017,119.627221 L124.796017,45.9047602 C124.796017,43.7946986 126.521995,42.068738 128.630046,42.068738 L198.016342,42.068738 C200.126055,42.068738 201.850372,43.7946986 201.850372,45.9047602 L201.850372,119.627221 C201.850372,121.737282 200.126055,123.464906 198.016342,123.464906" id="Fill-22" fill="#D9E2E7"></path>
          <path d="M93.6970222,63.1251244 L58.8601811,63.1251244 C58.572795,63.1251244 58.3800968,62.9322425 58.3800968,62.6445824 C58.3800968,62.3585851 58.572795,62.1657032 58.8601811,62.1657032 L93.6970222,62.1657032 C93.9844083,62.1657032 94.1771065,62.3585851 94.1771065,62.6445824 C94.1771065,62.9322425 93.9362337,63.1251244 93.6970222,63.1251244" id="Fill-24" fill="#2E324F"></path>
          <path d="M93.6970222,72.8615042 L58.8601811,72.8615042 C58.572795,72.8615042 58.3800968,72.670285 58.3800968,72.3826249 C58.3800968,72.0949648 58.572795,71.9020829 58.8601811,71.9020829 L93.6970222,71.9020829 C93.9844083,71.9020829 94.1771065,72.0949648 94.1771065,72.3826249 C94.1771065,72.670285 93.9362337,72.8615042 93.6970222,72.8615042" id="Fill-26" fill="#2E324F"></path>
          <path d="M92.786191,82.3591094 L59.2434179,82.3591094 C58.9560318,82.3591094 58.7649948,82.1662274 58.7649948,81.8785673 C58.7649948,81.5909073 58.9560318,81.3996881 59.2434179,81.3996881 L92.786191,81.3996881 C93.0735771,81.3996881 93.2662753,81.5909073 93.2662753,81.8785673 C93.2662753,82.1662274 93.0270638,82.3591094 92.786191,82.3591094" id="Fill-28" fill="#2E324F"></path>
          <path d="M150.672393,60.3906908 C145.688819,60.3906908 141.615578,64.4678153 141.615578,69.4561407 C141.615578,74.4444661 145.688819,78.5215907 150.672393,78.5215907 C155.655966,78.5215907 159.729207,74.4444661 159.729207,69.4561407 C159.681033,64.4678153 155.655966,60.3906908 150.672393,60.3906908 M150.672393,79.4810119 C145.162221,79.4810119 140.657071,74.9732286 140.657071,69.4561407 C140.657071,63.9407156 145.162221,59.4312695 150.672393,59.4312695 C156.182564,59.4312695 160.687715,63.9407156 160.687715,69.4561407 C160.63954,74.9732286 156.182564,79.4810119 150.672393,79.4810119" id="Fill-30" fill="#2E324F"></path>
          <path d="M178.992879,59.6713742 C184.258855,59.6713742 188.528117,63.9447063 188.528117,69.2173662 C188.528117,74.4883633 184.258855,78.7616954 178.992879,78.7616954 C173.726903,78.7616954 169.457641,74.4883633 169.457641,69.2173662 C169.457641,63.9447063 173.726903,59.6713742 178.992879,59.6713742" id="Fill-32" fill="#67EC88"></path>
          <path d="M150.672393,86.6272868 C155.938369,86.6272868 160.209291,90.9006189 160.209291,96.1732788 C160.209291,101.444276 155.938369,105.717608 150.672393,105.717608 C145.406416,105.717608 141.137155,101.444276 141.137155,96.1732788 C141.137155,90.9006189 145.406416,86.6272868 150.672393,86.6272868" id="Fill-34" fill="#FFFFFF"></path>
          <path d="M178.992879,86.3878472 C184.258855,86.3878472 188.528117,90.6611793 188.528117,95.9321764 C188.528117,101.204836 184.258855,105.478168 178.992879,105.478168 C173.726903,105.478168 169.457641,101.204836 169.457641,95.9321764 C169.457641,90.6611793 173.726903,86.3878472 178.992879,86.3878472" id="Fill-36" fill="#2E324F"></path>
          <path d="M179.136406,79.1935181 C178.704496,79.1935181 178.274248,79.1452976 177.842338,79.0970771 C175.207689,78.7611966 172.81059,77.419337 171.180961,75.3076126 C169.552994,73.197551 168.833698,70.5603897 169.169259,67.9215656 C169.504819,65.2827414 170.847062,62.8850197 172.955113,61.2538373 C173.14615,61.1108387 173.481711,61.1108387 173.626235,61.3502783 C173.769097,61.5414974 173.769097,61.877378 173.529885,62.0220394 C171.612871,63.5085604 170.415152,65.618622 170.079591,68.0180065 C169.792205,70.4157282 170.415152,72.81345 171.900257,74.684072 C173.387023,76.554694 175.495075,77.8017753 177.890512,78.1376559 C180.28595,78.425316 182.683049,77.8017753 184.551889,76.3152544 C184.742926,76.1722557 185.078487,76.1722557 185.223011,76.4116953 C185.365873,76.6029144 185.365873,76.938795 185.126661,77.0817937 C183.448858,78.4735365 181.340807,79.1935181 179.136406,79.1935181" id="Fill-38" fill="#2E324F"></path>
          <path d="M202.569169,30.4128507 L181.148108,56.9374394 C181.148108,56.9374394 177.651301,61.398665 181.48533,64.9004694 C185.508735,68.6417135 189.535463,64.755808 189.535463,64.755808 L213.302126,40.4377219 L202.569169,30.4128507" id="Fill-40" fill="#FFFFFF"></path>
          <path d="M185.270188,67.1538623 C184.024295,67.1538623 182.587365,66.7232035 181.196947,65.4262389 C177.075532,61.6384372 180.766699,56.841331 180.813212,56.7947733 L202.232612,30.2685218 C202.377136,30.0773027 202.712696,30.0290822 202.903733,30.2219641 C203.096431,30.3649628 203.144606,30.7008433 202.951908,30.8920625 L181.580683,57.418314 C181.436159,57.5613126 178.417775,61.5419962 181.868069,64.7079201 C185.557574,68.065063 189.104218,64.7079201 189.24708,64.5632586 L200.411946,53.100087 C200.604645,52.9088678 200.892031,52.9088678 201.083068,53.100087 C201.275766,53.2929689 201.275766,53.5789662 201.083068,53.7718481 L189.918201,65.2350198 C189.870027,65.2832403 187.904838,67.1538623 185.270188,67.1538623" id="Fill-42" fill="#2E324F"></path>
          <path d="M216.226155,37.7995629 L222.88587,30.2206339 C222.88587,30.2206339 228.301354,24.1781091 222.694833,18.9969018 C217.136487,13.9137983 211.146232,20.149205 211.146232,20.149205 L204.629379,27.247592 L216.226155,37.7995629 Z" id="Fill-44" fill="#67EC88"></path>
          <polygon id="Fill-46" fill="#67EC88" points="196.503496 29.6521311 201.854193 23.825767 219.670468 40.2140786 214.321433 46.0404426"></polygon>
          <path d="M216.321839,37.0802464 C216.22549,37.0802464 216.080966,37.0320259 215.986279,36.9372477 L205.108798,26.9123765 C204.9161,26.7194946 204.9161,26.4318345 205.060624,26.2406153 C205.251661,26.0477334 205.539047,26.0477334 205.731745,26.1923949 L216.609225,36.2172661 C216.801923,36.4084852 216.801923,36.6961453 216.6574,36.8890272 C216.561051,37.0320259 216.418188,37.0802464 216.321839,37.0802464" id="Fill-48" fill="#2E324F"></path>
          <polygon id="Fill-50" fill="#67EC88" points="67.9169956 93.9190545 92.8348639 93.9190545 92.8348639 90.7531307 67.9169956 90.7531307"></polygon>
          <path d="M114.685841,62.2613128 C114.302106,62.2613128 113.966545,61.9254322 113.966545,61.5413311 L113.966545,24.3699933 C113.966545,23.9858923 114.302106,23.6500117 114.685841,23.6500117 C115.067915,23.6500117 115.405137,23.9858923 115.405137,24.3699933 L115.405137,61.5413311 C115.405137,61.9254322 115.067915,62.2613128 114.685841,62.2613128" id="Fill-52" fill="#2E324F"></path>
          <path d="M133.229885,43.5072047 L96.6205526,43.5072047 C96.2368175,43.5072047 95.9012568,43.1713242 95.9012568,42.7872231 C95.9012568,42.4047848 96.2368175,42.0689043 96.6205526,42.0689043 L133.229885,42.0689043 C133.61362,42.0689043 133.949181,42.4047848 133.949181,42.7872231 C133.949181,43.1713242 133.61362,43.5072047 133.229885,43.5072047" id="Fill-53" fill="#2E324F"></path>
          <polygon id="Fill-54" fill="#2E324F" points="114.925053 13.4814767 105.677201 24.0334477 124.030042 24.0334477"></polygon>
          <polygon id="Fill-55" fill="#2E324F" points="115.212273 72.0464118 124.126225 61.0621193 105.771723 61.0621193"></polygon>
          <polygon id="Fill-56" fill="#2E324F" points="143.964336 42.0206838 133.326068 32.8105724 133.326068 51.0379133"></polygon>
          <polygon id="Fill-57" fill="#2E324F" points="85.1192952 42.3080113 96.1894735 51.1340217 96.1894735 32.9066808"></polygon>
          <path d="M0.0757733918,178.024714 C0.726960351,177.372906 229.537778,178.024714 229.537778,178.024714" id="Stroke-58" stroke="#2E324F" stroke-linecap="round" stroke-linejoin="round"></path>
        </g>
      </g>
    </g>
  </g>
</svg>
