<svg width="648" height="286" viewBox="0 0 648 286" fill="none" xmlns="http://www.w3.org/2000/svg">
  <path
    d="M270.25 215.625C270.25 211.562 273.563 208.312 277.563 208.312V204.125C273.5 204.125 270.25 200.812 270.25 196.812C270.25 192.75 273.563 189.5 277.563 189.5V185.312C273.5 185.312 270.25 182 270.25 178C270.25 173.937 273.563 170.687 277.563 170.687V166.5C273.5 166.5 270.25 163.187 270.25 159.187C270.25 155.125 273.563 151.875 277.563 151.875V147.688C273.5 147.688 270.25 144.375 270.25 140.375C270.25 136.312 273.563 133.062 277.563 133.062V128.875C273.5 128.875 270.25 125.562 270.25 121.562C270.25 117.5 273.563 114.25 277.563 114.25V110.062C273.5 110.062 270.25 106.75 270.25 102.75C270.25 98.6875 273.563 95.4375 277.563 95.4375V91.25C273.5 91.25 270.25 87.9375 270.25 83.9375C270.25 79.875 273.563 76.625 277.563 76.625V72.4375C273.5 72.4375 270.25 69.125 270.25 65.125C270.25 61.0625 273.563 57.8125 277.563 57.8125V53.625C273.5 53.625 270.25 50.3125 270.25 46.3125C270.25 42.25 273.563 39 277.563 39V30.625C261.375 30.625 248.25 17.5 248.25 1.3125H30.875C30.875 17.5 17.75 30.625 1.5625 30.625V39C5.625 39 8.87501 42.3125 8.87501 46.3125C8.87501 50.375 5.5625 53.625 1.5625 53.625V57.8125C5.625 57.8125 8.87501 61.125 8.87501 65.125C8.87501 69.1875 5.5625 72.4375 1.5625 72.4375V76.625C5.625 76.625 8.87501 79.9375 8.87501 83.9375C8.87501 88 5.5625 91.25 1.5625 91.25V95.4375C5.625 95.4375 8.87501 98.75 8.87501 102.75C8.87501 106.812 5.5625 110.062 1.5625 110.062V114.25C5.625 114.25 8.87501 117.563 8.87501 121.562C8.87501 125.625 5.5625 128.875 1.5625 128.875V133.062C5.625 133.062 8.87501 136.375 8.87501 140.375C8.87501 144.437 5.5625 147.688 1.5625 147.688V151.875C5.625 151.875 8.87501 155.187 8.87501 159.187C8.87501 163.25 5.5625 166.5 1.5625 166.5V170.687C5.625 170.687 8.87501 174 8.87501 178C8.87501 182.062 5.5625 185.312 1.5625 185.312V189.5C5.625 189.5 8.87501 192.812 8.87501 196.812C8.87501 200.875 5.5625 204.125 1.5625 204.125V208.312C5.625 208.312 8.87501 211.625 8.87501 215.625C8.87501 219.688 5.5625 222.937 1.5625 222.937V231.312C17.75 231.312 30.875 244.437 30.875 260.625H248.25C248.25 244.437 261.375 231.312 277.563 231.312V222.937C273.563 222.937 270.25 219.688 270.25 215.625Z"
    fill="#DB283E" />
  <path opacity="0.56" fill-rule="evenodd" clip-rule="evenodd"
    d="M137.562 205C97.75 205 65.4375 172.625 65.4375 132.875C65.4375 93.125 97.8125 60.75 137.562 60.75C177.313 60.75 209.688 93.125 209.688 132.875C209.688 172.625 177.313 205 137.562 205ZM198.375 142.688C196.25 142 179.312 136.938 160 140.063C168.062 162.188 171.313 180.25 172 184C185.813 174.688 195.625 159.875 198.375 142.688ZM161.625 189.688C160.688 184.25 157.125 165.438 148.5 142.938C148.375 143 148.25 143 148.063 143.063C113.313 155.188 100.812 179.313 99.6875 181.563C110.125 189.688 123.25 194.563 137.5 194.563C146.062 194.563 154.25 192.813 161.625 189.688ZM91.75 174.125C93.125 171.75 110.062 143.75 141.875 133.438C142.688 133.188 143.5 132.938 144.313 132.688C142.75 129.188 141.063 125.688 139.313 122.25C108.563 131.438 78.6875 131.063 76 131C76 131.625 75.9375 132.25 75.9375 132.875C75.9375 148.75 81.9375 163.188 91.75 174.125ZM77.25 120.313C80 120.375 105.375 120.438 134.25 112.813C124.063 94.6875 113 79.375 111.375 77.1875C94.125 85.3125 81.1875 101.188 77.25 120.313ZM123.125 73C124.812 75.25 136 90.5 146.125 109.063C168.062 100.875 177.312 88.375 178.438 86.8125C167.562 77.1875 153.25 71.3125 137.562 71.3125C132.562 71.3125 127.75 71.875 123.125 73ZM185.25 93.9375C183.938 95.6875 173.625 108.938 150.812 118.25C152.25 121.188 153.625 124.188 154.875 127.188C155.312 128.25 155.75 129.313 156.188 130.375C176.688 127.813 197.063 131.938 199.125 132.375C199.063 117.813 193.813 104.438 185.25 93.9375Z"
    fill="#EA4965" />
  <path
    d="M270.25 215.625C270.25 211.562 273.563 208.312 277.563 208.312V204.125C273.5 204.125 270.25 200.812 270.25 196.812C270.25 192.75 273.563 189.5 277.563 189.5V185.312C273.5 185.312 270.25 182 270.25 178C270.25 173.937 273.563 170.687 277.563 170.687V166.5C273.5 166.5 270.25 163.187 270.25 159.187C270.25 155.125 273.563 151.875 277.563 151.875V147.687C273.5 147.687 270.25 144.375 270.25 140.375C270.25 136.312 273.563 133.062 277.563 133.062V128.875C273.5 128.875 270.25 125.563 270.25 121.563C270.25 117.5 273.563 114.25 277.563 114.25V110.062C273.5 110.062 270.25 106.75 270.25 102.75C270.25 98.6875 273.563 95.4375 277.563 95.4375V91.25C273.5 91.25 270.25 87.9375 270.25 83.9375C270.25 79.875 273.563 76.625 277.563 76.625V72.4375C273.5 72.4375 270.25 69.125 270.25 65.125C270.25 61.0625 273.563 57.8125 277.563 57.8125V53.625C273.5 53.625 270.25 50.3125 270.25 46.3125C270.25 42.25 273.563 39 277.563 39V30.625C261.375 30.625 248.25 17.5 248.25 1.3125H30.875C30.875 17.5 17.75 30.625 1.5625 30.625V39C5.625 39 8.87501 42.3125 8.87501 46.3125C8.87501 50.375 5.5625 53.625 1.5625 53.625V57.8125C5.625 57.8125 8.87501 61.125 8.87501 65.125C8.87501 69.1875 5.5625 72.4375 1.5625 72.4375V76.625C5.625 76.625 8.87501 79.9375 8.87501 83.9375C8.87501 88 5.5625 91.25 1.5625 91.25V95.4375C5.625 95.4375 8.87501 98.75 8.87501 102.75C8.87501 106.812 5.5625 110.062 1.5625 110.062V114.25C5.625 114.25 8.87501 117.563 8.87501 121.563C8.87501 125.625 5.5625 128.875 1.5625 128.875V133.062C5.625 133.062 8.87501 136.375 8.87501 140.375C8.87501 144.437 5.5625 147.687 1.5625 147.687V151.875C5.625 151.875 8.87501 155.187 8.87501 159.187C8.87501 163.25 5.5625 166.5 1.5625 166.5V170.687C5.625 170.687 8.87501 174 8.87501 178C8.87501 182.062 5.5625 185.312 1.5625 185.312V189.5C5.625 189.5 8.87501 192.812 8.87501 196.812C8.87501 200.875 5.5625 204.125 1.5625 204.125V208.312C5.625 208.312 8.87501 211.625 8.87501 215.625C8.87501 219.687 5.5625 222.937 1.5625 222.937V231.312C17.75 231.312 30.875 244.437 30.875 260.625H248.25C248.25 244.437 261.375 231.312 277.563 231.312V222.937C273.563 222.937 270.25 219.687 270.25 215.625Z"
    stroke="#9B0D2F" stroke-width="2.5" stroke-miterlimit="10" stroke-linecap="round" stroke-linejoin="round" />
  <path
    d="M128.885 218.99L50.573 143.399C44.4757 137.514 44.4757 127.828 50.573 121.942L128.885 46.3516C134.982 40.4661 145.018 40.4661 151.115 46.3516L229.427 121.942C235.524 127.828 235.524 137.514 229.427 143.399L151.115 218.99C149.591 220.461 147.812 221.565 145.97 222.301C145.907 222.301 134.22 222.362 134.22 222.362C132.251 221.626 130.409 220.461 128.885 218.99Z"
    fill="#4CAF50" />
  <path
    d="M192.462 101.502C187.318 101.502 183.062 105.61 183.062 110.576C183.062 114.56 185.793 118.116 189.668 119.281V136.14C189.668 145.704 183.443 150.976 169.47 153.122C167.565 149.566 163.564 147.298 157.276 146.378H157.212C152.258 145.765 148.511 144.355 145.78 142.21V137.734C148.447 135.466 152.195 134.056 157.339 133.443H157.403C166.231 132.155 170.741 128.109 170.741 121.549V111.679C174.806 110.698 177.918 107.142 177.918 102.851C177.918 97.8238 173.662 93.7163 168.518 93.7163C163.373 93.7163 159.118 97.8238 159.118 102.912C159.118 107.265 162.357 110.943 166.549 111.802V121.611C166.549 126.147 163.627 128.477 156.768 129.519C152.322 130.01 148.701 131.113 145.843 132.83V103.035C149.273 101.073 151.56 97.5173 151.56 93.4711C151.56 87.3404 146.415 82.3133 140 82.3133C133.649 82.3133 128.441 87.2791 128.441 93.4711C128.441 97.5786 130.727 101.134 134.157 103.035V128.477C131.553 127.251 128.441 126.393 124.757 125.963C116.183 124.737 115.103 121.182 115.103 118.177V111.25C119.231 110.33 122.407 106.713 122.407 102.36C122.407 97.3947 118.151 93.2871 113.007 93.2871C107.862 93.2871 103.607 97.3334 103.607 102.299C103.607 106.652 106.783 110.208 110.911 111.189V118.116C110.911 124.676 115.357 128.661 124.185 129.887C128.441 130.5 131.68 131.42 134.157 133.075V147.359C128.25 143.742 120.819 141.351 111.546 140.248C97.2555 138.163 90.9042 132.952 90.9042 123.205V119.342C94.6515 118.116 97.319 114.744 97.319 110.698C97.319 105.732 93.0636 101.625 87.919 101.625C82.7744 101.625 78.519 105.732 78.519 110.698C78.519 114.683 81.1866 118.116 84.9339 119.342V123.205C84.9339 130.316 87.665 135.895 93.1272 139.757C97.2555 142.761 103.035 144.723 110.72 145.827H110.784C121.073 147.114 128.695 149.934 134.22 154.348V222.521C137.968 223.931 142.223 223.87 145.97 222.459V191.99C148.638 189.783 152.322 188.435 157.403 187.821H157.466C166.295 186.534 170.804 182.488 170.804 175.928V174.457C173.535 173.598 175.568 171.085 175.568 168.203C175.568 165.322 173.535 162.747 170.804 161.95V158.762C178.045 157.597 183.57 155.636 187.572 152.754C193.034 148.892 195.765 143.313 195.765 136.202V119.281C199.195 117.994 201.799 114.622 201.799 110.637C201.799 108.246 200.846 105.978 199.131 104.2C197.353 102.483 195.003 101.502 192.462 101.502ZM162.484 102.912C162.484 99.7243 165.151 97.1494 168.391 97.1494C171.693 97.1494 174.297 99.7243 174.297 102.912C174.297 106.1 171.63 108.614 168.391 108.614C165.215 108.614 162.484 105.978 162.484 102.912ZM112.88 108.001C109.641 108.001 106.973 105.426 106.973 102.299C106.973 99.1112 109.641 96.5977 112.88 96.5977C116.119 96.5977 118.787 99.1725 118.787 102.299C118.787 105.426 116.056 108.001 112.88 108.001ZM87.792 116.277C84.5528 116.277 81.8853 113.763 81.8853 110.576C81.8853 107.388 84.5528 104.874 87.792 104.874C91.0312 104.874 93.6988 107.449 93.6988 110.576C93.6988 113.702 90.9677 116.277 87.792 116.277ZM139.873 101.134C135.427 101.134 131.807 97.6399 131.807 93.3485C131.807 88.9957 135.427 85.5013 139.873 85.5013C144.319 85.5013 147.939 88.9957 147.939 93.2871C147.939 97.5786 144.319 101.134 139.873 101.134ZM145.716 147.114C148.638 148.708 152.195 149.812 156.577 150.363C160.642 150.976 163.373 152.019 164.834 153.796C157.212 155.145 150.797 157.414 145.716 160.663V147.114ZM166.422 161.95C163.691 162.808 161.658 165.322 161.658 168.203C161.658 171.207 163.691 173.66 166.422 174.457V175.928C166.358 180.465 163.5 182.794 156.641 183.837C152.258 184.327 148.701 185.43 145.843 187.086V167.836C150.797 163.605 157.53 160.847 166.422 159.375V161.95ZM192.462 116.338C189.16 116.338 186.556 113.763 186.556 110.637C186.556 107.51 189.223 104.935 192.462 104.935C194.05 104.935 195.574 105.548 196.718 106.591C197.861 107.694 198.369 109.104 198.369 110.576C198.369 113.763 195.701 116.338 192.462 116.338Z"
    fill="white" />
  <path fill-rule="evenodd" clip-rule="evenodd"
    d="M220.5 186.625C206.812 184 193 182.063 179.125 180.75C178.313 189.438 177.5 198.188 176.688 206.875C189.688 208.063 202.688 209.938 215.563 212.375C212.063 207.25 208.375 202.188 204.562 197.125C209.75 193.5 215.062 190 220.5 186.625Z"
    fill="#CECECE" />
  <path fill-rule="evenodd" clip-rule="evenodd"
    d="M73 197.125C69.1875 202.125 65.5 207.25 62 212.375C74.875 209.938 87.875 208.063 100.875 206.875C100.063 198.188 99.25 189.438 98.4375 180.75C84.5625 182.062 70.8125 184 57.0625 186.625C62.5 190 67.8125 193.5 73 197.125Z"
    fill="#CECECE" />
  <path fill-rule="evenodd" clip-rule="evenodd"
    d="M196.875 203C158.5 195.688 119.062 195.688 80.6875 203C79.0625 194.438 77.4375 185.812 75.75 177.25C117.375 169.312 160.125 169.312 201.813 177.25C200.188 185.812 198.562 194.375 196.875 203Z"
    fill="#FFFCFF" />
  <path
    d="M94.5517 191.364L89.0008 192.023L88.9089 191.249L91.4546 187.642C91.8306 187.098 92.0819 186.663 92.2084 186.337C92.3384 186.007 92.3838 185.677 92.3446 185.348C92.2921 184.905 92.1152 184.559 91.814 184.307C91.5127 184.056 91.139 183.957 90.6929 184.009C90.1576 184.073 89.7588 184.276 89.4965 184.618C89.2376 184.955 89.1404 185.396 89.2049 185.939L88.1285 186.066C88.0359 185.287 88.2113 184.627 88.6546 184.086C89.1018 183.545 89.7462 183.225 90.588 183.125C91.3754 183.032 92.0226 183.165 92.5296 183.526C93.0361 183.883 93.3302 184.404 93.4117 185.091C93.5107 185.925 93.0971 186.981 92.1711 188.259L90.194 190.99L94.4474 190.485L94.5517 191.364ZM100.575 186.984C100.725 188.245 100.621 189.207 100.263 189.871C99.9054 190.535 99.2688 190.922 98.3533 191.03C97.4495 191.138 96.7449 190.918 96.2396 190.373C95.7337 189.823 95.4024 188.954 95.2455 187.765L95.0749 186.327C94.9271 185.082 95.0325 184.132 95.3913 183.475C95.75 182.819 96.389 182.436 97.3083 182.327C98.2199 182.219 98.9257 182.432 99.4259 182.967C99.9255 183.498 100.253 184.371 100.41 185.588L100.575 186.984ZM99.3243 185.64C99.216 184.728 99.0093 184.08 98.704 183.696C98.3983 183.307 97.968 183.146 97.4133 183.212C96.8625 183.277 96.4857 183.532 96.2828 183.977C96.0799 184.422 96.0258 185.076 96.1202 185.938L96.3247 187.66C96.4334 188.576 96.6456 189.237 96.9614 189.644C97.2806 190.046 97.7098 190.216 98.249 190.152C98.7804 190.089 99.1498 189.836 99.357 189.395C99.568 188.953 99.6269 188.289 99.5336 187.403L99.3243 185.64ZM107.934 189.775L102.383 190.434L102.292 189.66L104.837 186.054C105.213 185.509 105.464 185.074 105.591 184.749C105.721 184.418 105.766 184.089 105.727 183.759C105.675 183.317 105.498 182.97 105.197 182.718C104.895 182.467 104.522 182.368 104.076 182.421C103.54 182.484 103.141 182.687 102.879 183.029C102.62 183.367 102.523 183.807 102.587 184.35L101.511 184.478C101.419 183.698 101.594 183.038 102.037 182.498C102.484 181.957 103.129 181.636 103.971 181.536C104.758 181.443 105.405 181.576 105.912 181.937C106.419 182.294 106.713 182.816 106.794 183.502C106.893 184.336 106.48 185.392 105.554 186.671L103.577 189.401L107.83 188.896L107.934 189.775ZM112.612 189.22L111.53 189.348L110.678 182.174L108.603 183.229L108.487 182.251L111.433 180.727L111.602 180.707L112.612 189.22Z"
    fill="#868686" />
  <path
    d="M168.807 187.51L165.264 187.039L164.175 189.141L163.024 188.988L167.378 180.96L168.353 181.09L170.465 189.976L169.321 189.824L168.807 187.51ZM165.722 186.166L168.598 186.548L167.683 182.401L165.722 186.166ZM178.518 187.021C178.41 187.838 178.186 188.526 177.848 189.084C177.51 189.638 177.085 190.05 176.572 190.321L177.925 191.707L177.071 192.308L175.476 190.654C175.188 190.687 174.889 190.683 174.579 190.641C173.913 190.553 173.344 190.312 172.872 189.918C172.401 189.521 172.062 189.001 171.856 188.359C171.654 187.713 171.602 186.991 171.701 186.192L171.782 185.582C171.89 184.769 172.127 184.07 172.492 183.484C172.858 182.898 173.32 182.475 173.879 182.214C174.442 181.95 175.056 181.862 175.722 181.951C176.404 182.041 176.98 182.285 177.451 182.683C177.927 183.081 178.262 183.608 178.459 184.265C178.656 184.918 178.7 185.656 178.59 186.481L178.518 187.021ZM177.475 186.327C177.608 185.332 177.51 184.539 177.183 183.948C176.86 183.353 176.331 183.007 175.595 182.909C174.894 182.816 174.305 183.011 173.826 183.496C173.353 183.976 173.047 184.692 172.909 185.643L172.826 186.265C172.697 187.233 172.797 188.023 173.126 188.634C173.458 189.245 173.985 189.599 174.705 189.695C175.425 189.79 176.018 189.603 176.482 189.133C176.947 188.659 177.25 187.933 177.392 186.954L177.475 186.327ZM186.789 183.539L186.025 189.29C185.915 190.087 185.577 190.706 185.01 191.147C184.447 191.588 183.735 191.783 182.875 191.732L182.577 191.704C181.652 191.581 180.947 191.234 180.464 190.661C179.98 190.088 179.793 189.364 179.901 188.488L180.667 182.726L181.771 182.873L181.01 188.6C180.928 189.211 181.034 189.71 181.325 190.096C181.617 190.477 182.075 190.71 182.698 190.792C183.33 190.876 183.834 190.772 184.212 190.479C184.593 190.187 184.825 189.735 184.906 189.123L185.668 183.391L186.789 183.539ZM188.622 192.389L187.507 192.241L188.63 183.784L189.746 183.932L188.622 192.389Z"
    fill="#868686" />
  <path
    d="M124.682 181.395H121.94V189H120.821V181.395H118.084V180.469H124.682V181.395ZM127.155 189H126.03V180.469H127.155V189ZM135.493 186.293C135.387 187.195 135.053 187.893 134.491 188.385C133.932 188.873 133.188 189.117 132.258 189.117C131.25 189.117 130.442 188.756 129.833 188.033C129.227 187.311 128.924 186.344 128.924 185.133V184.312C128.924 183.52 129.065 182.822 129.346 182.221C129.631 181.619 130.034 181.158 130.553 180.838C131.073 180.514 131.674 180.352 132.358 180.352C133.264 180.352 133.991 180.605 134.538 181.113C135.084 181.617 135.403 182.316 135.493 183.211H134.362C134.264 182.531 134.051 182.039 133.723 181.734C133.399 181.43 132.944 181.277 132.358 181.277C131.639 181.277 131.075 181.543 130.665 182.074C130.258 182.605 130.055 183.361 130.055 184.342V185.168C130.055 186.094 130.249 186.83 130.635 187.377C131.022 187.924 131.563 188.197 132.258 188.197C132.883 188.197 133.362 188.057 133.694 187.775C134.03 187.49 134.252 186.996 134.362 186.293H135.493ZM139.202 185.033L138.159 186.117V189H137.034V180.469H138.159V184.688L141.95 180.469H143.309L139.952 184.236L143.573 189H142.225L139.202 185.033ZM149.379 185.057H145.682V188.08H149.977V189H144.557V180.469H149.918V181.395H145.682V184.137H149.379V185.057ZM157.389 181.395H154.647V189H153.528V181.395H150.792V180.469H157.389V181.395Z"
    fill="#868686" />
  <path
    d="M435.875 215.625C435.875 211.562 439.188 208.312 443.188 208.312V204.125C439.125 204.125 435.875 200.812 435.875 196.812C435.875 192.75 439.188 189.5 443.188 189.5V185.312C439.125 185.312 435.875 182 435.875 178C435.875 173.937 439.188 170.687 443.188 170.687V166.5C439.125 166.5 435.875 163.187 435.875 159.187C435.875 155.125 439.188 151.875 443.188 151.875V147.688C439.125 147.688 435.875 144.375 435.875 140.375C435.875 136.312 439.188 133.062 443.188 133.062V128.875C439.125 128.875 435.875 125.562 435.875 121.562C435.875 117.5 439.188 114.25 443.188 114.25V110.062C439.125 110.062 435.875 106.75 435.875 102.75C435.875 98.6875 439.188 95.4375 443.188 95.4375V91.25C439.125 91.25 435.875 87.9375 435.875 83.9375C435.875 79.875 439.188 76.625 443.188 76.625V72.4375C439.125 72.4375 435.875 69.125 435.875 65.125C435.875 61.0625 439.188 57.8125 443.188 57.8125V53.625C439.125 53.625 435.875 50.3125 435.875 46.3125C435.875 42.25 439.188 39 443.188 39V30.625C427 30.625 413.875 17.5 413.875 1.3125H306.938C306.938 17.5 293.812 30.625 277.625 30.625V39C281.688 39 284.938 42.3125 284.938 46.3125C284.938 50.375 281.625 53.625 277.625 53.625V57.8125C281.688 57.8125 284.938 61.125 284.938 65.125C284.938 69.1875 281.625 72.4375 277.625 72.4375V76.625C281.688 76.625 284.938 79.9375 284.938 83.9375C284.938 88 281.625 91.25 277.625 91.25V95.4375C281.688 95.4375 284.938 98.75 284.938 102.75C284.938 106.812 281.625 110.062 277.625 110.062V114.25C281.688 114.25 284.938 117.563 284.938 121.562C284.938 125.625 281.625 128.875 277.625 128.875V133.062C281.688 133.062 284.938 136.375 284.938 140.375C284.938 144.437 281.625 147.688 277.625 147.688V151.875C281.688 151.875 284.938 155.187 284.938 159.187C284.938 163.25 281.625 166.5 277.625 166.5V170.687C281.688 170.687 284.938 174 284.938 178C284.938 182.062 281.625 185.312 277.625 185.312V189.5C281.688 189.5 284.938 192.812 284.938 196.812C284.938 200.875 281.625 204.125 277.625 204.125V208.312C281.688 208.312 284.938 211.625 284.938 215.625C284.938 219.688 281.625 222.937 277.625 222.937V231.312C293.812 231.312 306.938 244.437 306.938 260.625H413.875C413.875 244.437 427 231.312 443.188 231.312V222.937C439.188 222.937 435.875 219.688 435.875 215.625Z"
    fill="#FAF1D2" />
  <path
    d="M435.875 215.625C435.875 211.562 439.188 208.312 443.188 208.312V204.125C439.125 204.125 435.875 200.812 435.875 196.812C435.875 192.75 439.188 189.5 443.188 189.5V185.312C439.125 185.312 435.875 182 435.875 178C435.875 173.937 439.188 170.687 443.188 170.687V166.5C439.125 166.5 435.875 163.187 435.875 159.187C435.875 155.125 439.188 151.875 443.188 151.875V147.687C439.125 147.687 435.875 144.375 435.875 140.375C435.875 136.312 439.188 133.062 443.188 133.062V128.875C439.125 128.875 435.875 125.563 435.875 121.563C435.875 117.5 439.188 114.25 443.188 114.25V110.062C439.125 110.062 435.875 106.75 435.875 102.75C435.875 98.6875 439.188 95.4375 443.188 95.4375V91.25C439.125 91.25 435.875 87.9375 435.875 83.9375C435.875 79.875 439.188 76.625 443.188 76.625V72.4375C439.125 72.4375 435.875 69.125 435.875 65.125C435.875 61.0625 439.188 57.8125 443.188 57.8125V53.625C439.125 53.625 435.875 50.3125 435.875 46.3125C435.875 42.25 439.188 39 443.188 39V30.625C427 30.625 413.875 17.5 413.875 1.3125H306.938C306.938 17.5 293.812 30.625 277.625 30.625V39C281.688 39 284.938 42.3125 284.938 46.3125C284.938 50.375 281.625 53.625 277.625 53.625V57.8125C281.688 57.8125 284.938 61.125 284.938 65.125C284.938 69.1875 281.625 72.4375 277.625 72.4375V76.625C281.688 76.625 284.938 79.9375 284.938 83.9375C284.938 88 281.625 91.25 277.625 91.25V95.4375C281.688 95.4375 284.938 98.75 284.938 102.75C284.938 106.812 281.625 110.062 277.625 110.062V114.25C281.688 114.25 284.938 117.563 284.938 121.563C284.938 125.625 281.625 128.875 277.625 128.875V133.062C281.688 133.062 284.938 136.375 284.938 140.375C284.938 144.437 281.625 147.687 277.625 147.687V151.875C281.688 151.875 284.938 155.187 284.938 159.187C284.938 163.25 281.625 166.5 277.625 166.5V170.687C281.688 170.687 284.938 174 284.938 178C284.938 182.062 281.625 185.312 277.625 185.312V189.5C281.688 189.5 284.938 192.812 284.938 196.812C284.938 200.875 281.625 204.125 277.625 204.125V208.312C281.688 208.312 284.938 211.625 284.938 215.625C284.938 219.687 281.625 222.937 277.625 222.937V231.312C293.812 231.312 306.938 244.437 306.938 260.625H413.875C413.875 244.437 427 231.312 443.188 231.312V222.937C439.188 222.937 435.875 219.687 435.875 215.625Z"
    stroke="#9B0D2F" stroke-width="2.5" stroke-miterlimit="10" stroke-linecap="round" stroke-linejoin="round" />
  <path d="M390.125 190.125V206.938" stroke="#3D3D3D" stroke-width="2.5" stroke-miterlimit="10"
    stroke-linejoin="round" />
  <path d="M394.688 190.125V206.938" stroke="#3D3D3D" stroke-width="1.25" stroke-miterlimit="10"
    stroke-linejoin="round" />
  <path d="M386.125 190.125V206.938" stroke="#3D3D3D" stroke-width="1.25" stroke-miterlimit="10"
    stroke-linejoin="round" />
  <path d="M383.125 190.125V206.938" stroke="#3D3D3D" stroke-width="1.25" stroke-miterlimit="10"
    stroke-linejoin="round" />
  <path d="M378.938 190.125V206.938" stroke="#3D3D3D" stroke-width="3.125" stroke-miterlimit="10"
    stroke-linejoin="round" />
  <path d="M374.625 190.125V206.938" stroke="#3D3D3D" stroke-width="1.875" stroke-miterlimit="10"
    stroke-linejoin="round" />
  <path d="M369.625 190.125V206.938" stroke="#3D3D3D" stroke-width="1.25" stroke-miterlimit="10"
    stroke-linejoin="round" />
  <path d="M364.625 190.125V206.938" stroke="#3D3D3D" stroke-width="4.375" stroke-miterlimit="10"
    stroke-linejoin="round" />
  <path d="M359.688 190.125V206.938" stroke="#3D3D3D" stroke-width="1.875" stroke-miterlimit="10"
    stroke-linejoin="round" />
  <path d="M354.688 190.125V206.938" stroke="#3D3D3D" stroke-width="2.5" stroke-miterlimit="10"
    stroke-linejoin="round" />
  <path d="M349.75 190.125V206.938" stroke="#3D3D3D" stroke-width="1.25" stroke-miterlimit="10"
    stroke-linejoin="round" />
  <path d="M344.75 190.125V206.938" stroke="#3D3D3D" stroke-width="3.125" stroke-miterlimit="10"
    stroke-linejoin="round" />
  <path d="M339.812 190.125V206.938" stroke="#3D3D3D" stroke-width="1.875" stroke-miterlimit="10"
    stroke-linejoin="round" />
  <path d="M334.812 190.125V206.938" stroke="#3D3D3D" stroke-width="1.25" stroke-miterlimit="10"
    stroke-linejoin="round" />
  <path d="M329.875 190.125V206.938" stroke="#3D3D3D" stroke-width="1.875" stroke-miterlimit="10"
    stroke-linejoin="round" />
  <path d="M324.875 190.125V206.938" stroke="#3D3D3D" stroke-width="2.5" stroke-miterlimit="10"
    stroke-linejoin="round" />
  <path
    d="M313.312 49.7501V47.8751H314.25V42.6876H313.312V40.8126H317.313V42.6876H316.375V47.8751H317.313V49.7501H313.312Z"
    fill="#DB283E" />
  <path
    d="M328 49.7501V47.8751H328.563C328.75 47.8751 328.813 47.8126 328.813 47.6251V40.8126H330.812L333.312 44.6251C333.5 44.9376 333.812 45.5001 333.938 45.7501L334.063 45.9376C334 45.4376 333.938 45.0001 333.938 44.6251V41.6876C333.938 41.0626 334.188 40.7501 334.875 40.7501H337V42.6251H336.438C336.25 42.6251 336.188 42.6876 336.188 42.8751V49.7501H334.188L331.688 45.9376C331.5 45.6251 331.188 45.1251 331.063 44.8126L330.938 44.6251C331 45.1251 331.063 45.5626 331.063 45.9376V48.8751C331.063 49.5001 330.813 49.8126 330.125 49.8126H328V49.7501Z"
    fill="#DB283E" />
  <path
    d="M350.625 49.7501L348.125 42.9376C348.062 42.7501 348 42.6876 347.812 42.6876H347.5V40.8126H349.062C349.688 40.8126 349.938 41.0001 350.125 41.5626L351.437 45.7501C351.562 46.0626 351.687 46.6251 351.75 46.9376L351.813 47.1876C351.938 46.6251 352 46.1251 352.125 45.7501L353.438 41.5626C353.625 41.0001 353.875 40.8126 354.5 40.8126H356.063V42.6876H355.75C355.563 42.6876 355.5 42.7501 355.438 42.9376L352.938 49.7501H350.625Z"
    fill="#DB283E" />
  <path
    d="M366.625 49.7501V47.8751H367.562V42.6876H366.625V40.8126H370.625V42.6876H369.687V47.8751H370.625V49.7501H366.625Z"
    fill="#DB283E" />
  <path
    d="M384.125 49.7501V42.6876H383.375C383.188 42.6876 383.125 42.7501 383.125 42.9376V43.4376H381.188V41.6876C381.188 41.0626 381.437 40.8126 382.062 40.8126H388.437C389.062 40.8126 389.312 41.0626 389.312 41.6876V43.4376H387.375V42.9376C387.375 42.7501 387.312 42.6876 387.125 42.6876H386.375V49.7501H384.125Z"
    fill="#DB283E" />
  <path
    d="M400.625 42.6876H399.812V40.8126H405.438C406.062 40.8126 406.375 41.0626 406.375 41.7501V43.5001H404.375V43.0001C404.375 42.8126 404.313 42.7501 404.125 42.7501H402.938V44.3751H405.5V46.2501H402.938V47.6876C402.938 47.8751 403 47.9376 403.188 47.9376H404.438C404.625 47.9376 404.687 47.8751 404.687 47.6876V47.1876H406.688V48.9376C406.688 49.5626 406.438 49.8751 405.75 49.8751H401.562C400.937 49.8751 400.625 49.6251 400.625 48.9376V42.6876Z"
    fill="#DB283E" />
  <path
    d="M312.938 228.313V227.688L313.688 226.938C315.563 225.188 316.375 224.188 316.437 223.125C316.437 222.375 316.062 221.688 315 221.688C314.312 221.688 313.812 222 313.437 222.313L313.125 221.625C313.625 221.188 314.375 220.875 315.187 220.875C316.75 220.875 317.438 221.938 317.438 223C317.438 224.375 316.438 225.438 314.938 226.938L314.375 227.5H317.687V228.313H312.938Z"
    fill="black" />
  <path
    d="M332.062 221.875H329.25L329 223.75C329.188 223.75 329.313 223.687 329.625 223.687C330.188 223.687 330.75 223.813 331.188 224.063C331.75 224.375 332.25 225 332.25 225.938C332.25 227.375 331.125 228.438 329.5 228.438C328.688 228.438 328 228.188 327.688 228L327.938 227.25C328.25 227.438 328.813 227.625 329.5 227.625C330.438 227.625 331.25 227 331.25 226.062C331.25 225.125 330.625 224.438 329.125 224.438C328.688 224.438 328.375 224.5 328.125 224.5L328.625 221H332.125V221.875H332.062Z"
    fill="black" />
  <path d="M344.625 221.938L343.312 222.625L343.125 221.875L344.75 221H345.563V228.313H344.625V221.938Z" fill="black" />
  <path
    d="M362.062 224.625C362.062 227.125 361.125 228.5 359.5 228.5C358.063 228.5 357.125 227.188 357.062 224.75C357.062 222.313 358.125 220.938 359.625 220.938C361.188 220.875 362.062 222.25 362.062 224.625ZM358.125 224.688C358.125 226.563 358.688 227.688 359.625 227.688C360.625 227.688 361.125 226.5 361.125 224.625C361.125 222.813 360.688 221.625 359.625 221.625C358.75 221.688 358.125 222.75 358.125 224.688Z"
    fill="black" />
  <path d="M374.125 221.938L372.812 222.625L372.625 221.875L374.25 221H375.063V228.313H374.125V221.938Z" fill="black" />
  <path
    d="M390.937 221.75C390.75 221.75 390.5 221.75 390.187 221.813C388.625 222.063 387.812 223.188 387.625 224.438H387.687C388.062 224 388.625 223.563 389.438 223.563C390.75 223.563 391.625 224.5 391.625 225.938C391.625 227.25 390.687 228.5 389.187 228.5C387.625 228.5 386.625 227.313 386.625 225.375C386.625 223.938 387.125 222.813 387.875 222.063C388.5 221.438 389.312 221.125 390.187 221C390.5 220.938 390.75 220.938 390.937 220.938V221.75ZM390.625 225.938C390.625 224.875 390 224.25 389.125 224.25C388.5 224.25 388 224.625 387.687 225.125C387.625 225.25 387.562 225.375 387.562 225.563C387.562 226.75 388.125 227.625 389.187 227.625C390.062 227.688 390.625 227 390.625 225.938Z"
    fill="black" />
  <path
    d="M403.063 225.938L402.25 228.313H401.25L403.813 220.75H405L407.563 228.313H406.5L405.688 225.938H403.063ZM405.563 225.188L404.813 223C404.625 222.5 404.563 222.063 404.438 221.625C404.313 222.063 404.188 222.563 404.062 223L403.312 225.188H405.563Z"
    fill="black" />
  <path
    d="M606.812 243.75C607.5 239.75 611.313 237.125 615.313 237.812L616.062 233.687C612.062 233 609.438 229.188 610.125 225.188C610.812 221.187 614.625 218.562 618.625 219.25L619.375 215.125C615.375 214.437 612.75 210.625 613.438 206.625C614.125 202.625 617.938 200 621.938 200.687L622.687 196.562C618.687 195.875 616.062 192.062 616.75 188.062C617.437 184.062 621.25 181.437 625.25 182.125L626 178C622 177.312 619.375 173.5 620.063 169.5C620.75 165.5 624.562 162.875 628.562 163.562L629.312 159.437C625.312 158.75 622.687 154.938 623.375 150.938C624.062 146.938 627.875 144.312 631.875 145L632.625 140.875C628.625 140.187 626 136.375 626.688 132.375C627.375 128.375 631.187 125.75 635.187 126.437L635.938 122.312C631.938 121.625 629.313 117.812 630 113.812C630.688 109.812 634.5 107.187 638.5 107.875L639.25 103.75C635.25 103.062 632.625 99.25 633.312 95.25C634 91.25 637.812 88.625 641.812 89.3125L642.563 85.1875C638.563 84.5 635.938 80.6875 636.625 76.6875C637.313 72.6875 641.125 70.0625 645.125 70.75L646.563 62.5C630.625 59.6875 620 44.5 622.813 28.5625L517.437 10C514.625 25.9375 499.438 36.5625 483.5 33.75L482.062 42C486.062 42.6875 488.687 46.5 488 50.5C487.312 54.5 483.5 57.125 479.5 56.4375L478.75 60.5625C482.75 61.25 485.375 65.0625 484.688 69.0625C484 73.0625 480.187 75.6875 476.187 75L475.438 79.125C479.438 79.8125 482.062 83.625 481.375 87.625C480.688 91.625 476.875 94.25 472.875 93.5625L472.125 97.6875C476.125 98.375 478.75 102.187 478.062 106.187C477.375 110.187 473.562 112.812 469.562 112.125L468.813 116.25C472.813 116.938 475.438 120.75 474.75 124.75C474.063 128.75 470.25 131.375 466.25 130.687L465.5 134.812C469.5 135.5 472.125 139.312 471.437 143.312C470.75 147.312 466.938 149.938 462.938 149.25L462.188 153.375C466.188 154.062 468.813 157.875 468.125 161.875C467.438 165.875 463.625 168.5 459.625 167.812L458.875 171.937C462.875 172.625 465.5 176.437 464.812 180.437C464.125 184.437 460.313 187.062 456.313 186.375L455.563 190.5C459.563 191.188 462.188 195 461.5 199C460.813 203 457 205.625 453 204.937L452.25 209.062C456.25 209.75 458.875 213.562 458.188 217.562C457.5 221.562 453.687 224.187 449.687 223.5L448.25 231.75C464.188 234.562 474.812 249.75 472 265.687L577.375 284.25C580.187 268.312 595.375 257.688 611.313 260.5L612.75 252.25C608.812 251.562 606.125 247.75 606.812 243.75Z"
    fill="#FAF1D2" />
  <path
    d="M606.812 243.75C607.5 239.75 611.313 237.125 615.313 237.812L616.062 233.687C612.062 233 609.437 229.187 610.125 225.187C610.813 221.187 614.625 218.562 618.625 219.25L619.375 215.125C615.375 214.437 612.75 210.625 613.438 206.625C614.125 202.625 617.938 200 621.938 200.687L622.687 196.562C618.687 195.875 616.062 192.062 616.75 188.062C617.437 184.062 621.25 181.437 625.25 182.125L626 178C622 177.312 619.375 173.5 620.063 169.5C620.75 165.5 624.562 162.875 628.562 163.562L629.312 159.437C625.312 158.75 622.687 154.938 623.375 150.938C624.062 146.937 627.875 144.312 631.875 145L632.625 140.875C628.625 140.187 626 136.375 626.688 132.375C627.375 128.375 631.187 125.75 635.187 126.437L635.938 122.312C631.938 121.625 629.313 117.812 630 113.812C630.688 109.812 634.5 107.187 638.5 107.875L639.25 103.75C635.25 103.062 632.625 99.25 633.312 95.25C634 91.25 637.812 88.625 641.812 89.3125L642.563 85.1875C638.563 84.5 635.938 80.6875 636.625 76.6875C637.313 72.6875 641.125 70.0625 645.125 70.75L646.563 62.5C630.625 59.6875 620 44.5 622.813 28.5625L517.437 10C514.625 25.9375 499.438 36.5625 483.5 33.75L482.062 42C486.062 42.6875 488.687 46.5 488 50.5C487.312 54.5 483.5 57.125 479.5 56.4375L478.75 60.5625C482.75 61.25 485.375 65.0625 484.688 69.0625C484 73.0625 480.187 75.6875 476.187 75L475.438 79.125C479.438 79.8125 482.063 83.625 481.375 87.625C480.687 91.625 476.875 94.25 472.875 93.5625L472.125 97.6875C476.125 98.375 478.75 102.187 478.062 106.187C477.375 110.187 473.562 112.812 469.562 112.125L468.813 116.25C472.813 116.938 475.438 120.75 474.75 124.75C474.063 128.75 470.25 131.375 466.25 130.687L465.5 134.812C469.5 135.5 472.125 139.312 471.437 143.312C470.75 147.312 466.938 149.937 462.938 149.25L462.188 153.375C466.188 154.062 468.813 157.875 468.125 161.875C467.438 165.875 463.625 168.5 459.625 167.812L458.875 171.937C462.875 172.625 465.5 176.437 464.812 180.437C464.125 184.437 460.313 187.062 456.313 186.375L455.563 190.5C459.563 191.187 462.188 195 461.5 199C460.813 203 457 205.625 453 204.937L452.25 209.062C456.25 209.75 458.875 213.562 458.188 217.562C457.5 221.562 453.687 224.187 449.687 223.5L448.25 231.75C464.188 234.562 474.812 249.75 472 265.687L577.375 284.25C580.187 268.312 595.375 257.687 611.313 260.5L612.75 252.25C608.812 251.562 606.125 247.75 606.812 243.75Z"
    stroke="#9B0D2F" stroke-width="2.5" stroke-miterlimit="10" stroke-linecap="round" stroke-linejoin="round" />
  <path d="M566.25 210.688L563.312 227.312" stroke="#3D3D3D" stroke-width="2.5" stroke-miterlimit="10"
    stroke-linejoin="round" />
  <path d="M570.687 211.5L567.812 228.062" stroke="#3D3D3D" stroke-width="1.25" stroke-miterlimit="10"
    stroke-linejoin="round" />
  <path d="M562.25 210L559.312 226.625" stroke="#3D3D3D" stroke-width="1.25" stroke-miterlimit="10"
    stroke-linejoin="round" />
  <path d="M559.312 209.5L556.375 226.062" stroke="#3D3D3D" stroke-width="1.25" stroke-miterlimit="10"
    stroke-linejoin="round" />
  <path d="M555.187 208.75L552.25 225.375" stroke="#3D3D3D" stroke-width="3.125" stroke-miterlimit="10"
    stroke-linejoin="round" />
  <path d="M550.938 208L548 224.625" stroke="#3D3D3D" stroke-width="1.875" stroke-miterlimit="10"
    stroke-linejoin="round" />
  <path d="M546 207.125L543.125 223.75" stroke="#3D3D3D" stroke-width="1.25" stroke-miterlimit="10"
    stroke-linejoin="round" />
  <path d="M541.125 206.25L538.188 222.875" stroke="#3D3D3D" stroke-width="4.375" stroke-miterlimit="10"
    stroke-linejoin="round" />
  <path d="M536.25 205.375L533.312 222" stroke="#3D3D3D" stroke-width="1.875" stroke-miterlimit="10"
    stroke-linejoin="round" />
  <path d="M531.312 204.562L528.438 221.125" stroke="#3D3D3D" stroke-width="2.5" stroke-miterlimit="10"
    stroke-linejoin="round" />
  <path d="M526.437 203.687L523.5 220.312" stroke="#3D3D3D" stroke-width="1.25" stroke-miterlimit="10"
    stroke-linejoin="round" />
  <path d="M521.563 202.812L518.625 219.437" stroke="#3D3D3D" stroke-width="3.125" stroke-miterlimit="10"
    stroke-linejoin="round" />
  <path d="M516.625 201.938L513.688 218.562" stroke="#3D3D3D" stroke-width="1.875" stroke-miterlimit="10"
    stroke-linejoin="round" />
  <path d="M511.75 201.062L508.812 217.687" stroke="#3D3D3D" stroke-width="1.25" stroke-miterlimit="10"
    stroke-linejoin="round" />
  <path d="M506.875 200.187L503.938 216.812" stroke="#3D3D3D" stroke-width="1.875" stroke-miterlimit="10"
    stroke-linejoin="round" />
  <path d="M501.938 199.375L499 215.938" stroke="#3D3D3D" stroke-width="2.5" stroke-miterlimit="10"
    stroke-linejoin="round" />
  <path
    d="M514.938 59.1875L515.25 57.3125L516.188 57.5L517.063 52.375L516.125 52.1875L516.438 50.3125L520.375 51L520.063 52.875L519.125 52.6875L518.25 57.8125L519.188 58L518.875 59.875L514.938 59.1875Z"
    fill="#DB283E" />
  <path
    d="M529.438 61.6873L529.75 59.8123L530.25 59.8748C530.437 59.9373 530.562 59.8123 530.562 59.6248L531.75 52.9373L533.75 53.3123L535.5 57.4998C535.625 57.8748 535.813 58.4373 535.938 58.7498L536 58.9998C536 58.4998 536.062 58.0623 536.125 57.6873L536.625 54.8123C536.75 54.1873 537.062 53.9373 537.687 54.0623L539.812 54.4373L539.5 56.3123L539 56.2498C538.812 56.1873 538.687 56.3123 538.687 56.4998L537.5 63.1873L535.5 62.8123L533.687 58.6248C533.562 58.2498 533.312 57.6873 533.25 57.3748L533.188 57.1248C533.188 57.6248 533.125 58.0623 533.062 58.4373L532.562 61.3123C532.438 61.9373 532.125 62.1873 531.5 62.0623L529.438 61.6873Z"
    fill="#DB283E" />
  <path
    d="M551.688 65.6249L550.438 58.4999C550.375 58.2499 550.375 58.1874 550.125 58.1874L549.812 58.1249L550.125 56.2499L551.688 56.4999C552.312 56.6249 552.5 56.8124 552.625 57.3749L553.188 61.7499C553.25 62.1249 553.25 62.6874 553.25 62.9999V63.2499C553.438 62.6874 553.625 62.2499 553.813 61.8749L555.875 57.9999C556.125 57.4999 556.437 57.3749 557.062 57.4374L558.625 57.6874L558.312 59.5624L558 59.4999C557.812 59.4374 557.75 59.4999 557.625 59.6874L554 65.9374L551.688 65.6249Z"
    fill="#DB283E" />
  <path
    d="M567.438 68.4373L567.75 66.5623L568.688 66.7498L569.563 61.6248L568.625 61.4373L568.938 59.5623L572.875 60.2498L572.563 62.1248L571.625 61.9373L570.75 67.0623L571.688 67.2498L571.375 69.1248L567.438 68.4373Z"
    fill="#DB283E" />
  <path
    d="M584.688 71.4376L585.938 64.5L585.25 64.3751C585.062 64.3126 584.937 64.4375 584.937 64.625L584.875 65.125L582.938 64.8125L583.25 63.0625C583.375 62.4375 583.625 62.2501 584.25 62.3751L590.562 63.5001C591.187 63.6251 591.375 63.875 591.25 64.5L590.938 66.2501L589 65.9376L589.063 65.4375C589.125 65.25 589 65.125 588.813 65.125L588.125 65.0001L586.875 71.9376L584.688 71.4376Z"
    fill="#DB283E" />
  <path
    d="M602.188 67.375L601.375 67.25L601.688 65.375L607.25 66.375C607.875 66.5 608.125 66.8125 608 67.4375L607.687 69.125L605.688 68.75L605.75 68.25C605.813 68.0625 605.687 67.9375 605.5 67.9375L604.312 67.75L604 69.375L606.5 69.8125L606.187 71.6875L603.687 71.25L603.438 72.625C603.375 72.8125 603.5 72.9375 603.687 72.9375L604.937 73.125C605.125 73.1875 605.25 73.0625 605.25 72.875L605.313 72.375L607.313 72.75L607 74.4375C606.875 75.0625 606.563 75.3125 605.938 75.1875L601.812 74.4375C601.187 74.3125 600.938 74 601.063 73.375L602.188 67.375Z"
    fill="#DB283E" />
  <path
    d="M483.562 234.938L483.687 234.313L484.562 233.688C486.687 232.25 487.688 231.5 487.938 230.375C488.062 229.625 487.812 228.875 486.75 228.688C486.125 228.563 485.5 228.813 485.125 229L484.937 228.25C485.5 227.938 486.25 227.75 487.125 227.875C488.687 228.125 489.125 229.313 488.937 230.375C488.687 231.688 487.562 232.625 485.75 233.813L485.063 234.25L488.312 234.813L488.188 235.625L483.562 234.938Z"
    fill="black" />
  <path
    d="M503.5 231.875L500.75 231.375L500.125 233.188C500.312 233.188 500.437 233.188 500.75 233.25C501.312 233.375 501.812 233.563 502.25 233.938C502.75 234.375 503.125 235.063 502.937 236C502.687 237.438 501.375 238.25 499.812 238C499 237.875 498.375 237.5 498.125 237.25L498.5 236.563C498.75 236.813 499.312 237.125 500 237.25C500.938 237.438 501.812 236.938 502 236C502.125 235.063 501.625 234.313 500.187 234.063C499.75 234 499.437 234 499.187 233.938L500.25 230.563L503.687 231.188L503.5 231.875Z"
    fill="black" />
  <path
    d="M515.875 234.188L514.5 234.625L514.438 233.875L516.187 233.313L517 233.438L515.75 240.625L514.812 240.438L515.875 234.188Z"
    fill="black" />
  <path
    d="M532.625 239.813C532.187 242.25 531.063 243.438 529.438 243.188C528 242.938 527.312 241.438 527.687 239.063C528.125 236.625 529.375 235.5 530.875 235.75C532.375 236 533 237.5 532.625 239.813ZM528.687 239.25C528.375 241.125 528.75 242.313 529.625 242.438C530.625 242.625 531.313 241.563 531.625 239.688C531.938 237.938 531.688 236.688 530.688 236.5C529.813 236.375 529 237.25 528.687 239.25Z"
    fill="black" />
  <path
    d="M544.937 239.313L543.562 239.75L543.5 239L545.25 238.438L546.062 238.563L544.812 245.75L543.875 245.563L544.937 239.313Z"
    fill="black" />
  <path
    d="M561.5 242C561.313 241.938 561.063 241.938 560.75 241.938C559.188 241.938 558.188 242.875 557.813 244.063H557.875C558.313 243.688 558.938 243.375 559.75 243.563C561 243.813 561.75 244.875 561.5 246.25C561.25 247.563 560.125 248.625 558.688 248.375C557.125 248.125 556.375 246.75 556.688 244.875C556.938 243.438 557.625 242.438 558.5 241.813C559.188 241.313 560.063 241.125 561 241.125C561.313 241.125 561.563 241.188 561.75 241.188L561.5 242ZM560.5 246.125C560.688 245.125 560.188 244.375 559.313 244.188C558.75 244.063 558.125 244.375 557.75 244.813C557.688 244.938 557.625 245.063 557.563 245.25C557.375 246.438 557.75 247.438 558.813 247.563C559.625 247.75 560.313 247.125 560.5 246.125Z"
    fill="black" />
  <path
    d="M572.437 243.063C572.875 243.063 573.562 243.125 574.25 243.188C575.188 243.375 575.812 243.625 576.187 244.063C576.5 244.438 576.688 244.875 576.563 245.5C576.438 246.25 575.875 246.75 575 246.938C575.688 247.25 576.375 248 576.187 249.063C576.062 249.688 575.75 250.125 575.313 250.438C574.688 250.813 573.813 250.875 572.625 250.688C571.938 250.563 571.438 250.438 571.125 250.313L572.437 243.063ZM572.188 249.813C572.375 249.875 572.625 249.938 573 250C574 250.188 575 250 575.188 248.875C575.375 247.875 574.563 247.25 573.5 247.125L572.688 247L572.188 249.813ZM572.813 246.25L573.687 246.375C574.687 246.563 575.375 246.125 575.5 245.438C575.625 244.563 575.063 244.125 574.063 243.938C573.625 243.875 573.375 243.875 573.188 243.875L572.813 246.25Z"
    fill="black" />
</svg>
