<svg viewBox="0 0 254 179" fill="none" xmlns="http://www.w3.org/2000/svg">
  <path fill-rule="evenodd" clip-rule="evenodd" d="M88.5939 92.2681C88.5939 111.727 72.8591 127.5 53.4476 127.5C34.0362 127.5 18.3031 111.727 18.3031 92.2681C18.3031 72.8112 34.0362 57.0381 53.4476 57.0381C72.8591 57.0381 88.5939 72.8112 88.5939 92.2681Z" fill="white"/>
  <path fill-rule="evenodd" clip-rule="evenodd" d="M48.9862 158.618H55.7667V128.691H48.9862V158.618Z" fill="#D9E2E7"/>
  <path fill-rule="evenodd" clip-rule="evenodd" d="M24.0112 176.86C24.0112 176.86 35.072 149.676 52.5558 150.749C70.0396 151.822 65.0445 177.575 65.0445 177.575L24.0112 176.86Z" fill="white"/>
  <path fill-rule="evenodd" clip-rule="evenodd" d="M60.4059 82.0747L194.566 34.8613C194.566 34.8613 195.816 170.598 194.566 169.348C193.317 168.096 81.4568 119.63 81.4568 119.63L60.8819 101.628C60.8819 101.628 65.401 97.8131 65.3609 91.8516C65.328 86.954 60.4059 82.0747 60.4059 82.0747Z" fill="#D9E2E7"/>
  <path fill-rule="evenodd" clip-rule="evenodd" d="M80.3265 177.695H220.018V99.0049H80.3265V177.695Z" fill="#67EC88"/>
  <path fill-rule="evenodd" clip-rule="evenodd" d="M220.078 99.6L78.8402 99.5415V79.1523L220.078 79.2127V99.6Z" fill="white"/>
  <path fill-rule="evenodd" clip-rule="evenodd" d="M61.2973 91.9108C61.2973 95.9601 58.0238 99.2434 53.9825 99.2434C49.943 99.2434 46.6694 95.9601 46.6694 91.9108C46.6694 87.8615 49.943 84.5781 53.9825 84.5781C58.0238 84.5781 61.2973 87.8615 61.2973 91.9108Z" fill="#2E324F"/>
  <path fill-rule="evenodd" clip-rule="evenodd" d="M105.899 136.085C105.899 136.085 107.684 121.657 107.742 121.48C107.801 121.301 108.158 116.352 112.679 115.816C117.198 115.279 117.972 120.348 117.972 120.348C117.972 120.348 118.924 125.833 118.924 125.652C118.924 125.472 120.707 122.195 122.015 121.897C123.324 121.599 123.621 122.553 123.443 123.207C123.264 123.864 119.874 135.489 119.874 135.489L105.899 136.085Z" fill="white"/>
  <path fill-rule="evenodd" clip-rule="evenodd" d="M99.4765 177.098C99.4163 176.8 99.9525 170.78 99.9525 170.78L102.094 153.968L105.245 136.442C105.245 136.442 120.29 135.429 120.23 135.608C120.172 135.785 117.258 166.904 117.376 166.725C117.495 166.547 127.129 159.036 127.129 159.036L136.346 153.134C136.346 153.134 144.316 157.844 149.966 156.95C155.615 156.054 158.409 154.564 159.777 153.312C161.145 152.061 161.442 150.809 161.442 150.809C161.442 150.809 169.649 154.506 173.099 157.844C176.548 161.182 178.45 166.129 178.926 167.856C179.402 169.588 179.699 171.195 179.878 173.224C180.057 175.249 179.938 177.039 179.938 177.039L99.4765 177.098Z" fill="white"/>
  <path fill-rule="evenodd" clip-rule="evenodd" d="M78.8405 79.3623L72.536 123.089L75.0345 121.42L77.294 119.391L79.198 117.962L79.5554 82.3129L78.8405 79.3623Z" fill="#2E324F"/>
  <path fill-rule="evenodd" clip-rule="evenodd" d="M199.879 114.186V165.454L238.89 137.076L199.879 114.186Z" fill="#D9E2E7"/>
  <path fill-rule="evenodd" clip-rule="evenodd" d="M24.3674 150.749L20.9735 152.89L4.47449 126.59L7.87021 124.451L24.3674 150.749Z" fill="#D9E2E7"/>
  <path fill-rule="evenodd" clip-rule="evenodd" d="M33.7041 145.225L30.3083 147.366L13.8112 121.067L17.2069 118.926L33.7041 145.225Z" fill="#D9E2E7"/>
  <path fill-rule="evenodd" clip-rule="evenodd" d="M203.309 16.8928C203.309 16.8928 206.245 15.9001 209.072 11.5382C212.017 6.99158 212.017 0.883789 212.017 0.883789C212.017 0.883789 213.277 8.23106 215.557 11.4157C218.734 15.8544 221.088 16.8178 221.088 16.8178C221.088 16.8178 218.378 18.1779 215.858 23.0627C214.237 26.2034 212.701 35.6951 212.701 35.6951C212.701 35.6951 211.559 26.666 208.871 22.187C206.614 18.4284 203.309 16.8928 203.309 16.8928Z" fill="white"/>
  <path d="M1.33337 177.934C2.04826 177.217 253.241 177.934 253.241 177.934" stroke="#2E324F" stroke-linecap="round" stroke-linejoin="round"/>
  <path d="M79.6731 177.694V79.4521H219.206" stroke="#2E324F" stroke-linecap="round" stroke-linejoin="round"/>
  <path d="M80.3276 99.0039H219.385" stroke="#2E324F" stroke-linecap="round" stroke-linejoin="round"/>
  <path d="M78.9598 118.29C72.5368 124.528 63.3946 128.334 53.7454 128.334C34.0385 128.334 18.0629 112.319 18.0629 92.5663C18.0629 72.8133 34.0385 56.7988 53.7454 56.7988C66.5842 56.7988 77.8401 63.5958 84.1245 73.7986" stroke="#2E324F" stroke-linecap="round" stroke-linejoin="round"/>
  <path d="M43.0015 91.8518C43.0015 85.6618 48.0075 80.6436 54.1807 80.6436C60.3558 80.6436 65.3618 85.6618 65.3618 91.8518C65.3618 98.0419 60.3558 103.058 54.1807 103.058" stroke="#2E324F" stroke-linecap="round" stroke-linejoin="round"/>
  <path d="M60.4059 82.075C61.119 82.075 194.09 34.9805 194.09 34.9805" stroke="#2E324F" stroke-linecap="round" stroke-linejoin="round"/>
  <path d="M79.6731 116.889L60.4058 101.152" stroke="#2E324F" stroke-linecap="round" stroke-linejoin="round"/>
  <path d="M93.4703 56.0834L187.429 5.05469" stroke="#2E324F" stroke-linecap="round" stroke-linejoin="round"/>
  <path fill-rule="evenodd" clip-rule="evenodd" d="M199.8 114.267V165.533L238.81 137.157L199.8 114.267Z" stroke="#2E324F" stroke-linecap="round" stroke-linejoin="round"/>
  <path fill-rule="evenodd" clip-rule="evenodd" d="M203.19 16.9328C203.19 16.9328 206.126 15.9401 208.953 11.5782C211.898 7.0298 211.898 0.923828 211.898 0.923828C211.898 0.923828 213.158 8.26927 215.438 11.4557C218.615 15.8944 220.971 16.8578 220.971 16.8578C220.971 16.8578 218.259 18.218 215.739 23.1027C214.117 26.2435 212.584 35.7352 212.584 35.7352C212.584 35.7352 211.44 26.706 208.752 22.2271C206.496 18.4684 203.19 16.9328 203.19 16.9328Z" stroke="#2E324F" stroke-linecap="round" stroke-linejoin="round"/>
  <path d="M48.7495 128.573V150.988" stroke="#2E324F" stroke-linecap="round" stroke-linejoin="round"/>
  <path d="M56.1237 128.334V150.749" stroke="#2E324F" stroke-linecap="round" stroke-linejoin="round"/>
  <path d="M23.5347 177.694C23.5347 177.694 35.0714 151.585 51.3661 150.749C67.6609 149.916 64.9253 177.098 64.9253 177.098" stroke="#2E324F" stroke-linecap="round" stroke-linejoin="round"/>
  <path fill-rule="evenodd" clip-rule="evenodd" d="M192.663 89.2284C192.663 90.9414 191.279 92.329 189.57 92.329C187.863 92.329 186.479 90.9414 186.479 89.2284C186.479 87.5155 187.863 86.1279 189.57 86.1279C191.279 86.1279 192.663 87.5155 192.663 89.2284Z" fill="#2E324F"/>
  <path fill-rule="evenodd" clip-rule="evenodd" d="M203.368 89.3876C203.368 91.1006 201.983 92.4881 200.275 92.4881C198.568 92.4881 197.183 91.1006 197.183 89.3876C197.183 87.6747 198.568 86.2871 200.275 86.2871C201.983 86.2871 203.368 87.6747 203.368 89.3876Z" fill="#2E324F"/>
  <path fill-rule="evenodd" clip-rule="evenodd" d="M213.418 89.3085C213.418 91.0215 212.033 92.4072 210.326 92.4072C208.618 92.4072 207.233 91.0215 207.233 89.3085C207.233 87.5956 208.618 86.208 210.326 86.208C212.033 86.208 213.418 87.5956 213.418 89.3085Z" fill="#2E324F"/>
  <path fill-rule="evenodd" clip-rule="evenodd" d="M161.382 150.57C161.382 150.57 157.637 149.318 157.46 144.833C157.374 142.634 157.128 133.473 157.128 133.473C157.128 133.473 159.269 132.234 159.127 130.131C158.984 128.033 158.078 127.603 158.078 127.603L156.519 127.029C156.519 127.029 155.341 119.369 152.948 117.901C150.555 116.433 143.342 115.861 142.199 116.004C141.056 116.148 140.198 117.15 140.021 117.901C139.841 118.653 138.986 124.13 138.736 128.212C138.484 132.292 138.271 134.618 139.128 136.731C139.985 138.844 140.448 139.523 140.913 139.738C141.378 139.952 141.234 140.06 141.234 140.06L140.687 149.676L137.031 153.045C137.031 153.045 140.538 156.853 149.251 156.888C157.965 156.925 161.116 151.224 161.116 151.224L161.382 150.57Z" fill="white"/>
  <path fill-rule="evenodd" clip-rule="evenodd" d="M158.269 127.745L156.52 127.028C156.52 127.028 154.936 119.679 153.176 118.198C151.412 116.719 143.603 116.003 143.603 116.003C143.603 116.003 142.223 115.908 141.366 116.434C140.508 116.959 140.08 117.341 140.08 117.341C140.08 117.341 140.937 111.804 142.89 111.087C144.842 110.37 148.365 110.133 153.555 111.851C158.745 113.57 158.698 114.714 158.888 115.957C159.079 117.197 158.745 122.685 158.745 122.685L158.269 127.745Z" fill="#2E324F"/>
  <path fill-rule="evenodd" clip-rule="evenodd" d="M150.576 140.157L141.195 144.733L141.249 140.044C141.249 140.044 143.587 140.866 145.178 140.777C146.766 140.687 150.944 139.667 150.944 139.667L150.576 140.157Z" fill="#2E324F"/>
  <path d="M161.382 150.57C157.279 148.603 157.159 145.824 157.015 141.672C156.949 139.738 157.015 133.294 157.015 133.294C157.015 133.294 158.873 132.577 159.015 129.93C159.158 127.281 156.302 126.994 156.302 126.994C156.302 126.994 155.455 123.034 154.658 120.764C153.302 116.899 151.23 117.042 147.302 116.398C143.373 115.753 140.543 115.34 139.921 117.998C139.566 119.524 138.929 121.852 138.446 130.358C138.017 137.877 140.455 139.712 141.922 140.191C147.159 141.91 150.635 139.714 150.635 139.714" stroke="#2E324F" stroke-linecap="round" stroke-linejoin="round"/>
  <path d="M135.871 153.254C141.403 150.57 141.058 147.991 141.065 147.424C141.136 141.685 141.16 139.883 141.16 139.883" stroke="#2E324F" stroke-linecap="round" stroke-linejoin="round"/>
  <path d="M139.993 117.662C139.993 117.662 140.588 112.819 141.731 111.673C142.875 110.527 144.54 109.549 151.968 111.17C159.235 112.759 158.945 115.611 159.016 118.044C159.087 120.479 158.23 127.854 158.23 127.854" stroke="#2E324F" stroke-linecap="round" stroke-linejoin="round"/>
  <path d="M142.707 123.653L141.088 128.353L143.231 129.405" stroke="#2E324F" stroke-linecap="round" stroke-linejoin="round"/>
  <path d="M146.635 131.026C146.635 131.026 146.493 132.483 144.874 132.961C143.254 133.438 142.35 133.032 142.35 133.032" stroke="#2E324F" stroke-linecap="round" stroke-linejoin="round"/>
  <path d="M135.336 153.61C135.336 153.61 127.966 158.237 124.631 160.764C120.259 164.073 117.584 166.844 117.584 166.844" stroke="#2E324F" stroke-linecap="round" stroke-linejoin="round"/>
  <path d="M99.4169 177.455C99.4169 169.824 105.107 136.897 105.107 136.362L120.271 135.468C120.271 135.468 117.448 166.091 116.782 169.824" stroke="#2E324F" stroke-linecap="round" stroke-linejoin="round"/>
  <path d="M162.097 150.927C162.097 150.927 169.926 154.32 173.692 158.439C181.543 167.023 179.938 177.038 179.938 177.038" stroke="#2E324F" stroke-linecap="round" stroke-linejoin="round"/>
  <path d="M162.632 168.336L161.443 176.919" stroke="#2E324F" stroke-linecap="round" stroke-linejoin="round"/>
  <path d="M136.942 153.253C136.942 153.253 142.783 157.399 149.786 157.008C159.421 156.472 161.383 150.569 161.383 150.569" stroke="#2E324F" stroke-linecap="round" stroke-linejoin="round"/>
  <path d="M105.727 136.254C105.727 136.254 106.978 124.125 107.999 120.443C108.532 118.519 109.673 116 112.909 115.801C116.788 115.563 117.902 119.615 118.21 121.115C118.52 122.614 118.96 126.274 118.96 126.274C118.96 126.274 121.268 121.578 122.589 121.929C123.909 122.282 123.772 123.593 122.26 127.156C120.747 130.72 120.096 134.232 120.096 134.232" stroke="#2E324F" stroke-linecap="round" stroke-linejoin="round"/>
  <path d="M110.407 126.258L111.126 116.783" stroke="#2E324F" stroke-linecap="round" stroke-linejoin="round"/>
  <path d="M114.345 125.333L114.762 116.664" stroke="#2E324F" stroke-linecap="round" stroke-linejoin="round"/>
  <path fill-rule="evenodd" clip-rule="evenodd" d="M82.2903 27.2408C82.2903 32.1182 78.3438 36.0743 73.4781 36.0743C68.6125 36.0743 64.6678 32.1182 64.6678 27.2408C64.6678 22.3633 68.6125 18.4072 73.4781 18.4072C78.3438 18.4072 82.2903 22.3633 82.2903 27.2408Z" fill="#67EC88"/>
  <path fill-rule="evenodd" clip-rule="evenodd" d="M155.124 39.5676C153.319 38.6114 152.631 36.3683 153.585 34.5585C154.541 32.7505 156.778 32.0594 158.582 33.0174C160.387 33.9735 161.077 36.2166 160.121 38.0246C159.166 39.8345 156.93 40.5255 155.124 39.5676Z" fill="#67EC88"/>
  <path fill-rule="evenodd" clip-rule="evenodd" d="M70.0294 164.699C70.0294 168.052 67.3176 170.769 63.9747 170.769C60.6301 170.769 57.9182 168.052 57.9182 164.699C57.9182 161.346 60.6301 158.628 63.9747 158.628C67.3176 158.628 70.0294 161.346 70.0294 164.699Z" fill="#67EC88"/>
  <path fill-rule="evenodd" clip-rule="evenodd" d="M48.9873 136.979C48.9873 136.979 56.4809 132.149 56.4809 131.614C56.4809 131.076 56.1234 129.288 56.1234 129.288L49.3447 128.932L48.9873 136.979Z" fill="#2E324F"/>
</svg>
