<svg viewBox="0 0 348 190" version="1.1" xmlns="http://www.w3.org/2000/svg" xmlns:xlink="http://www.w3.org/1999/xlink">
  <title>pic-2</title>
  <g id="MW-14602-Упоминания-SR-desktop-на-страницах-SRO" stroke="none" stroke-width="1" fill="none" fill-rule="evenodd">
    <g id="MW-14602-—-XL" transform="translate(-786.000000, -1334.000000)">
      <g id="Group-24" transform="translate(406.000000, 1214.000000)">
        <g id="pic-2" transform="translate(380.000000, 120.000000)">
          <rect id="Mask" x="0" y="0" width="348" height="190"></rect>
          <path d="M89.5939033,92.2679884 C89.5939033,111.726646 73.8590279,127.499786 54.4475751,127.499786 C35.0361223,127.499786 19.3030705,111.726646 19.3030705,92.2679884 C19.3030705,72.8111585 35.0361223,57.0380186 54.4475751,57.0380186 C73.8590279,57.0380186 89.5939033,72.8111585 89.5939033,92.2679884" id="Fill-2" fill="#FFFFFF"></path>
          <polygon id="Fill-4" fill="#D9E2E7" points="49.9862601 158.6181 56.7667732 158.6181 56.7667732 128.691547 49.9862601 128.691547"></polygon>
          <path d="M25.0112486,176.860318 C25.0112486,176.860318 36.0719833,149.675965 53.5557862,150.74908 C71.0395891,151.822195 66.0444774,177.575118 66.0444774,177.575118 L25.0112486,176.860318 Z" id="Fill-6" fill="#FFFFFF"></path>
          <path d="M61.4058988,82.0748618 L195.56632,34.8614738 C195.56632,34.8614738 196.815554,170.598593 195.56632,169.348149 C194.317086,168.095878 82.4568571,119.630218 82.4568571,119.630218 L61.8818843,101.628583 C61.8818843,101.628583 66.4010106,97.8132671 66.3608892,91.8517223 C66.3280626,86.9541513 61.4058988,82.0748618 61.4058988,82.0748618" id="Fill-7" fill="#D9E2E7"></path>
          <polygon id="Fill-8" fill="#67EC88" points="81.3265284 177.694678 221.018229 177.694678 221.018229 99.0044792 81.3265284 99.0044792"></polygon>
          <polygon id="Fill-9" fill="#FFFFFF" points="221.078411 99.6002681 79.8402137 99.5417678 79.8402137 79.1525896 221.078411 79.212918"></polygon>
          <path d="M62.2973229,91.9109538 C62.2973229,95.9602705 59.0237831,99.2435992 54.982466,99.2435992 C50.9429726,99.2435992 47.6694328,95.9602705 47.6694328,91.9109538 C47.6694328,87.8616371 50.9429726,84.5783084 54.982466,84.5783084 C59.0237831,84.5783084 62.2973229,87.8616371 62.2973229,91.9109538" id="Fill-10" fill="#2E324F"></path>
          <path d="M106.898619,136.084338 C106.898619,136.084338 108.68402,121.656704 108.742379,121.479375 C108.800737,121.300218 109.158182,116.35146 113.679132,115.815816 C118.198258,115.278345 118.971507,120.347761 118.971507,120.347761 C118.971507,120.347761 119.923478,125.832162 119.923478,125.651177 C119.923478,125.47202 121.707055,122.194176 123.014648,121.89619 C124.324063,121.598204 124.621326,122.55249 124.442604,123.206962 C124.263881,123.863262 120.873625,135.488366 120.873625,135.488366 L106.898619,136.084338 Z" id="Fill-11" fill="#FFFFFF"></path>
          <path d="M100.476463,177.097792 C100.416281,176.799806 100.952448,170.779761 100.952448,170.779761 L103.093471,153.968241 L106.244823,136.441921 C106.244823,136.441921 121.29034,135.429135 121.230158,135.608292 C121.1718,135.785621 118.257529,166.904117 118.376069,166.72496 C118.494609,166.547631 128.129212,159.035829 128.129212,159.035829 L137.346187,153.134612 C137.346187,153.134612 145.315752,157.843885 150.965571,156.949928 C156.615391,156.054142 159.409298,154.564213 160.777072,153.311941 C162.144846,152.061497 162.442109,150.809226 162.442109,150.809226 C162.442109,150.809226 170.648755,154.505713 174.099194,157.843885 C177.547809,161.182058 179.449927,166.128988 179.925912,167.856575 C180.401898,169.587818 180.699161,171.194748 180.877883,173.223976 C181.056606,175.249549 180.938065,177.039292 180.938065,177.039292 L100.476463,177.097792 Z" id="Fill-12" fill="#FFFFFF"></path>
          <polygon id="Fill-13" fill="#2E324F" points="79.8405784 79.3622766 73.5360508 123.089413 76.0345185 121.420327 78.2940816 119.391098 80.1980234 117.961497 80.5554684 82.3128848"></polygon>
          <polygon id="Fill-14" fill="#D9E2E7" points="200.878756 114.186035 200.878756 165.454224 239.889502 137.0761"></polygon>
          <polygon id="Fill-15" fill="#D9E2E7" points="25.367417 150.748714 21.973513 152.889459 5.47450764 126.589924 8.87023529 124.451007"></polygon>
          <polygon id="Fill-16" fill="#D9E2E7" points="34.7040267 145.225008 31.308299 147.365752 14.8111173 121.066217 18.206845 118.925472"></polygon>
          <path d="M204.308951,16.8923794 C204.308951,16.8923794 207.245107,15.8997027 210.07184,11.537775 C213.017114,6.99120582 213.017114,0.88341022 213.017114,0.88341022 C213.017114,0.88341022 214.27729,8.23068065 216.556914,11.41529 C219.733798,15.8539993 222.088193,16.8174259 222.088193,16.8174259 C222.088193,16.8174259 219.378176,18.1775576 216.857824,23.0623316 C215.236556,26.2030657 213.701001,35.6947373 213.701001,35.6947373 C213.701001,35.6947373 212.559366,26.6655836 209.871233,22.1866554 C207.613494,18.4280119 204.308951,16.8923794 204.308951,16.8923794" id="Fill-17" fill="#FFFFFF"></path>
          <path d="M2.33336838,177.933249 C3.04825841,177.216621 254.240919,177.933249 254.240919,177.933249" id="Stroke-18" stroke="#2E324F" stroke-linecap="round" stroke-linejoin="round"></path>
          <polyline id="Stroke-19" stroke="#2E324F" stroke-linecap="round" stroke-linejoin="round" points="80.673097 177.693947 80.673097 79.4518552 220.206136 79.4518552"></polyline>
          <line x1="81.3276226" y1="99.0039308" x2="220.384676" y2="99.0039308" id="Stroke-20" stroke="#2E324F" stroke-linecap="round" stroke-linejoin="round"></line>
          <path d="M79.9598483,118.290379 C73.5367802,124.527972 64.3945769,128.334147 54.7453851,128.334147 C35.0384931,128.334147 19.0628893,112.319693 19.0628893,92.5667055 C19.0628893,72.8137179 35.0384931,56.7992643 54.7453851,56.7992643 C67.5842265,56.7992643 78.8400971,63.5962664 85.1245641,73.7990821" id="Stroke-21" stroke="#2E324F" stroke-linecap="round" stroke-linejoin="round"></path>
          <path d="M44.0014269,91.8520879 C44.0014269,85.6620263 49.0074808,80.6437985 55.1807021,80.6437985 C61.3557471,80.6437985 66.361801,85.6620263 66.361801,91.8520879 C66.361801,98.0421495 61.3557471,103.058549 55.1807021,103.058549" id="Stroke-22" stroke="#2E324F" stroke-linecap="round" stroke-linejoin="round"></path>
          <path d="M61.4058988,82.0748618 C62.1189652,82.0748618 195.090335,34.9803025 195.090335,34.9803025" id="Stroke-23" stroke="#2E324F" stroke-linecap="round" stroke-linejoin="round"></path>
          <line x1="80.673097" y1="116.888931" x2="61.4057165" y2="101.152354" id="Stroke-24" stroke="#2E324F" stroke-linecap="round" stroke-linejoin="round"></line>
          <line x1="94.4702923" y1="56.0830014" x2="188.429092" y2="5.05429788" id="Stroke-25" stroke="#2E324F" stroke-linecap="round" stroke-linejoin="round"></line>
          <polygon id="Stroke-26" stroke="#2E324F" stroke-linecap="round" stroke-linejoin="round" points="200.799607 114.26629 200.799607 165.532651 239.810354 137.156356"></polygon>
          <path d="M204.189681,16.9324155 C204.189681,16.9324155 207.125837,15.9397388 209.95257,11.5778111 C212.897844,7.02941382 212.897844,0.923446354 212.897844,0.923446354 C212.897844,0.923446354 214.15802,8.26888865 216.437644,11.4553262 C219.614528,15.8940354 221.970747,16.857462 221.970747,16.857462 C221.970747,16.857462 219.258906,18.2175937 216.738554,23.1023677 C215.117286,26.2431019 213.583555,35.7347734 213.583555,35.7347734 C213.583555,35.7347734 212.440096,26.7056198 209.751963,22.2266915 C207.496048,18.4680481 204.189681,16.9324155 204.189681,16.9324155 Z" id="Stroke-27" stroke="#2E324F" stroke-linecap="round" stroke-linejoin="round"></path>
          <line x1="49.7495439" y1="128.573632" x2="49.7495439" y2="150.988383" id="Stroke-28" stroke="#2E324F" stroke-linecap="round" stroke-linejoin="round"></line>
          <line x1="57.1236711" y1="128.334329" x2="57.1236711" y2="150.74908" id="Stroke-29" stroke="#2E324F" stroke-linecap="round" stroke-linejoin="round"></line>
          <path d="M24.534716,177.693947 C24.534716,177.693947 36.0714362,151.584537 52.3661873,150.74908 C68.6609384,149.915451 65.9253898,177.097975 65.9253898,177.097975" id="Stroke-30" stroke="#2E324F" stroke-linecap="round" stroke-linejoin="round"></path>
          <path d="M193.66329,89.2285328 C193.66329,90.9414944 192.279103,92.329048 190.570297,92.329048 C188.863314,92.329048 187.479127,90.9414944 187.479127,89.2285328 C187.479127,87.5155713 188.863314,86.1280176 190.570297,86.1280176 C192.279103,86.1280176 193.66329,87.5155713 193.66329,89.2285328" id="Fill-31" fill="#2E324F"></path>
          <path d="M204.367674,89.3873977 C204.367674,91.1003592 202.983487,92.4879129 201.274681,92.4879129 C199.567698,92.4879129 198.183511,91.1003592 198.183511,89.3873977 C198.183511,87.6744361 199.567698,86.2868824 201.274681,86.2868824 C202.983487,86.2868824 204.367674,87.6744361 204.367674,89.3873977" id="Fill-32" fill="#2E324F"></path>
          <path d="M214.417533,89.3080567 C214.417533,91.0210182 213.033345,92.4067437 211.326363,92.4067437 C209.617557,92.4067437 208.233369,91.0210182 208.233369,89.3080567 C208.233369,87.5950951 209.617557,86.2075414 211.326363,86.2075414 C213.033345,86.2075414 214.417533,87.5950951 214.417533,89.3080567" id="Fill-33" fill="#2E324F"></path>
          <path d="M162.382474,150.570106 C162.382474,150.570106 158.636597,149.317834 158.459698,144.833421 C158.373984,142.634176 158.127785,133.473397 158.127785,133.473397 C158.127785,133.473397 160.268807,132.233922 160.126559,130.131568 C159.98431,128.03287 159.077932,127.603259 159.077932,127.603259 L157.518669,127.029225 C157.518669,127.029225 156.340559,119.369343 153.947866,117.901352 C151.555173,116.43336 144.342443,115.861154 143.198984,116.003749 C142.055525,116.148171 141.198386,117.149989 141.021487,117.901352 C140.840941,118.652715 139.985626,124.129804 139.73578,128.212027 C139.484109,132.292422 139.270736,134.617809 140.127875,136.731132 C140.985013,138.844454 141.448233,139.522692 141.913276,139.738412 C142.378319,139.952304 142.234247,140.060164 142.234247,140.060164 L141.687138,149.676148 L138.030621,153.045399 C138.030621,153.045399 141.537594,156.853402 150.251228,156.888312 C158.964862,156.924699 162.116214,151.224578 162.116214,151.224578 L162.382474,150.570106 Z" id="Fill-34" fill="#FFFFFF"></path>
          <path d="M159.26942,127.745305 L157.520493,127.028676 C157.520493,127.028676 155.935698,119.679578 154.175829,118.198789 C152.412312,116.719829 144.603232,116.0032 144.603232,116.0032 C144.603232,116.0032 143.222692,115.908137 142.365554,116.43464 C141.508415,116.959314 141.079846,117.341394 141.079846,117.341394 C141.079846,117.341394 141.936984,111.803976 143.890166,111.087348 C145.841524,110.370719 149.364911,110.133062 154.555158,111.851508 C159.745406,113.569954 159.697989,114.714366 159.887654,115.957497 C160.079143,117.196972 159.745406,122.68503 159.745406,122.68503 L159.26942,127.745305 Z" id="Fill-35" fill="#2E324F"></path>
          <path d="M151.575781,140.156506 L142.194673,144.732326 L142.249384,140.043162 C142.249384,140.043162 144.587366,140.865822 146.177632,140.776244 C147.766074,140.686665 151.944168,139.666566 151.944168,139.666566 L151.575781,140.156506 Z" id="Fill-36" fill="#2E324F"></path>
          <path d="M162.382474,150.570106 C158.279152,148.603034 158.158787,145.82427 158.014715,141.672578 C157.949062,139.738412 158.014715,133.29424 158.014715,133.29424 C158.014715,133.29424 159.873065,132.577611 160.015313,129.930473 C160.157562,127.281507 157.301649,126.99449 157.301649,126.99449 C157.301649,126.99449 156.455452,123.034752 155.658496,120.764209 C154.301664,116.899534 152.229942,117.042129 148.301694,116.398626 C144.373446,115.753294 141.543065,115.340136 140.921184,117.998243 C140.565563,119.524735 139.929092,121.851949 139.445811,130.358257 C139.017242,137.877372 141.455528,139.712818 142.921782,140.191789 C148.159445,141.910235 151.635416,139.714646 151.635416,139.714646" id="Stroke-37" stroke="#2E324F" stroke-linecap="round" stroke-linejoin="round"></path>
          <path d="M136.871295,153.253441 C142.402575,150.56974 142.057896,147.990243 142.06519,147.423522 C142.136315,141.685009 142.160023,139.882469 142.160023,139.882469" id="Stroke-38" stroke="#2E324F" stroke-linecap="round" stroke-linejoin="round"></path>
          <path d="M140.99322,117.662049 C140.99322,117.662049 141.587746,112.819322 142.731205,111.673082 C143.874665,110.526842 145.539702,109.54879 152.967628,111.170345 C160.235069,112.758994 159.945101,115.610883 160.016225,118.044129 C160.087349,120.479203 159.230211,127.853896 159.230211,127.853896" id="Stroke-39" stroke="#2E324F" stroke-linecap="round" stroke-linejoin="round"></path>
          <polyline id="Stroke-40" stroke="#2E324F" stroke-linecap="round" stroke-linejoin="round" points="143.707431 123.653392 142.087987 128.353525 144.230833 129.404702"></polyline>
          <path d="M147.635314,131.026622 C147.635314,131.026622 147.493066,132.483645 145.873621,132.960788 C144.254176,133.437931 143.349622,133.032085 143.349622,133.032085" id="Stroke-41" stroke="#2E324F" stroke-linecap="round" stroke-linejoin="round"></path>
          <path d="M136.33604,153.610475 C136.33604,153.610475 128.966472,158.237482 125.630926,160.763964 C121.25952,164.072886 118.584153,166.844337 118.584153,166.844337" id="Stroke-42" stroke="#2E324F" stroke-linecap="round" stroke-linejoin="round"></path>
          <path d="M100.416828,177.454827 C100.416828,169.824196 106.106769,136.897675 106.106769,136.362031 L121.270827,135.468074 C121.270827,135.468074 118.44774,166.091146 117.78209,169.824196" id="Stroke-43" stroke="#2E324F" stroke-linecap="round" stroke-linejoin="round"></path>
          <path d="M163.096635,150.92714 C163.096635,150.92714 170.925775,154.320157 174.691714,158.438943 C182.542738,167.02386 180.937883,177.038378 180.937883,177.038378" id="Stroke-44" stroke="#2E324F" stroke-linecap="round" stroke-linejoin="round"></path>
          <line x1="163.631891" y1="168.335546" x2="162.442839" y2="176.918635" id="Stroke-45" stroke="#2E324F" stroke-linecap="round" stroke-linejoin="round"></line>
          <path d="M137.941624,153.253441 C137.941624,153.253441 143.782932,157.399649 150.785937,157.008428 C160.420539,156.472785 162.382839,150.56974 162.382839,150.56974" id="Stroke-46" stroke="#2E324F" stroke-linecap="round" stroke-linejoin="round"></path>
          <path d="M106.726827,136.253989 C106.726827,136.253989 107.977884,124.12432 108.999156,120.442458 C109.531676,118.519261 110.673311,116.000092 113.908553,115.800826 C117.787561,115.563168 118.901841,119.614313 119.210047,121.115211 C119.520075,122.614281 119.959587,126.274205 119.959587,126.274205 C119.959587,126.274205 122.26839,121.577729 123.588748,121.928731 C124.909106,122.281561 124.772329,123.592333 123.260482,127.155366 C121.746812,130.720227 121.095751,134.232072 121.095751,134.232072" id="Stroke-47" stroke="#2E324F" stroke-linecap="round" stroke-linejoin="round"></path>
          <line x1="111.407168" y1="126.258118" x2="112.125705" y2="116.782899" id="Stroke-48" stroke="#2E324F" stroke-linecap="round" stroke-linejoin="round"></line>
          <line x1="115.344899" y1="125.333265" x2="115.762526" y2="116.664253" id="Stroke-49" stroke="#2E324F" stroke-linecap="round" stroke-linejoin="round"></line>
          <path d="M83.2902875,27.2407146 C83.2902875,32.118176 79.3438028,36.0742579 74.4781737,36.0742579 C69.6125446,36.0742579 65.6678835,32.118176 65.6678835,27.2407146 C65.6678835,22.3632531 69.6125446,18.4071712 74.4781737,18.4071712 C79.3438028,18.4071712 83.2902875,22.3632531 83.2902875,27.2407146" id="Fill-50" fill="#67EC88"></path>
          <path d="M156.124269,39.5672735 C154.318807,38.6111594 153.631272,36.368039 154.585067,34.5581864 C155.540685,32.7501619 157.778364,32.0591273 159.582002,33.0170695 C161.387464,33.9731835 162.076822,36.2163039 161.121204,38.0243284 C160.165586,39.8341811 157.929731,40.5252157 156.124269,39.5672735" id="Fill-51" fill="#67EC88"></path>
          <path d="M71.0293764,164.698839 C71.0293764,168.051637 68.3175359,170.768244 64.9746955,170.768244 C61.6300314,170.768244 58.9181909,168.051637 58.9181909,164.698839 C58.9181909,161.346041 61.6300314,158.627606 64.9746955,158.627606 C68.3175359,158.627606 71.0293764,161.346041 71.0293764,164.698839" id="Fill-52" fill="#67EC88"></path>
          <path d="M49.9873543,136.978844 C49.9873543,136.978844 57.4809337,132.148914 57.4809337,131.613271 C57.4809337,131.075799 57.1234887,129.287884 57.1234887,129.287884 L50.3447993,128.931398 L49.9873543,136.978844 Z" id="Fill-53" fill="#2E324F"></path>
        </g>
      </g>
    </g>
  </g>
</svg>
