<svg viewBox="0 0 232 162" fill="none" xmlns="http://www.w3.org/2000/svg">
  <path fill-rule="evenodd" clip-rule="evenodd" d="M46.7341 4.56543V150.692L147.712 150.577L147.598 24.3256L130.911 5.02517L46.7341 4.56543Z" fill="#D9E2E7"/>
  <path fill-rule="evenodd" clip-rule="evenodd" d="M25.2893 112.686L25.3409 144.007H37.0586L60.0862 161.035L60.2893 90.0352L37.2617 112.686H25.2893Z" fill="#67EC88"/>
  <path fill-rule="evenodd" clip-rule="evenodd" d="M130.911 5.02539L130.739 23.0329L147.108 23.2037L130.911 5.02539Z" fill="#67EC88"/>
  <path d="M0.553177 150.461H44.5671" stroke="#2E324F" stroke-linecap="round" stroke-linejoin="round"/>
  <path fill-rule="evenodd" clip-rule="evenodd" d="M46.5432 74.1435C47.0029 73.2258 72.9264 59.4775 72.9264 59.4775L46.6577 67.7106L46.5432 74.1435Z" fill="#2E324F"/>
  <path fill-rule="evenodd" clip-rule="evenodd" d="M130.71 23.0605L147.109 23.205L147.023 29.9532L130.71 23.0605Z" fill="#2E324F"/>
  <path fill-rule="evenodd" clip-rule="evenodd" d="M60.3252 90.7139L65.2666 150.657L60.2666 150.714L60.3252 90.7139Z" fill="#2E324F"/>
  <path fill-rule="evenodd" clip-rule="evenodd" d="M183.9 117.549V147.083H192.342L191.999 117.549H183.9Z" fill="#D9E2E7"/>
  <path fill-rule="evenodd" clip-rule="evenodd" d="M22.15 31.6766L61.2088 19.7285L72.9261 59.4778L33.6383 71.1951L22.15 31.6766Z" fill="white"/>
  <path fill-rule="evenodd" clip-rule="evenodd" d="M40.0717 39.7178C40.7604 40.6373 44.4366 53.274 44.4366 53.274L53.8569 41.7857L40.0717 39.7178Z" fill="#67EC88"/>
  <path fill-rule="evenodd" clip-rule="evenodd" d="M193.701 119.291H180.836C172.081 119.291 164.982 112.194 164.982 103.438V51.9714C164.982 43.2169 172.081 36.1182 180.836 36.1182H193.701C202.458 36.1182 209.555 43.2169 209.555 51.9714V103.438C209.555 112.194 202.458 119.291 193.701 119.291Z" fill="white"/>
  <path d="M60.5195 150.461H230.769" stroke="#2E324F" stroke-linecap="round" stroke-linejoin="round"/>
  <path d="M147.368 149.826V24" stroke="#2E324F" stroke-linecap="round" stroke-linejoin="round"/>
  <path fill-rule="evenodd" clip-rule="evenodd" d="M40.5552 39.4531L44.737 53.3106L54.1379 42.3138L40.5552 39.4531Z" stroke="#2E324F" stroke-linecap="round" stroke-linejoin="round"/>
  <path d="M34.5569 115.672V141.117" stroke="#2E324F" stroke-linecap="round" stroke-linejoin="round"/>
  <path d="M60.5195 90.8584V161.46" stroke="#2E324F" stroke-linecap="round" stroke-linejoin="round"/>
  <path d="M69.4784 117.605C69.4784 117.605 72.6314 119.881 72.6314 126.011C72.6314 132.141 69.4784 135.116 69.4784 135.116" stroke="#2E324F" stroke-linecap="round" stroke-linejoin="round"/>
  <path d="M75.4326 110.774C75.4326 110.774 80.3366 115.504 80.3366 124.435C80.3366 134.767 75.7832 139.497 75.7832 139.497" stroke="#2E324F" stroke-linecap="round" stroke-linejoin="round"/>
  <path d="M80.6862 99.7432C80.6862 99.7432 91.019 108.322 90.8446 125.311C90.6685 142.297 82.615 150.193 82.615 150.193" stroke="#2E324F" stroke-linecap="round" stroke-linejoin="round"/>
  <path d="M209.861 51.8955V103.36C209.861 112.117 202.764 119.214 194.008 119.214" stroke="#2E324F" stroke-linecap="round" stroke-linejoin="round"/>
  <path d="M194.008 119.214H181.142C172.387 119.214 165.289 112.117 165.289 103.361V51.8962C165.289 43.1399 172.387 36.043 181.142 36.043H194.008C202.764 36.043 209.861 43.1399 209.861 51.8962" stroke="#2E324F" stroke-linecap="round" stroke-linejoin="round"/>
  <path d="M184.359 143.93V119.616" stroke="#2E324F" stroke-linecap="round" stroke-linejoin="round"/>
  <path fill-rule="evenodd" clip-rule="evenodd" d="M174.976 146.461H201.897C204.106 146.461 205.897 148.252 205.897 150.461H170.976C170.976 148.252 172.767 146.461 174.976 146.461Z" stroke="#2E324F" stroke-linecap="round" stroke-linejoin="round"/>
  <path d="M199.369 60.167H209.401" stroke="#2E324F" stroke-linecap="round" stroke-linejoin="round"/>
  <path d="M165.979 60.167H175.553" stroke="#2E324F" stroke-linecap="round" stroke-linejoin="round"/>
  <path d="M199.063 74.7178H209.095" stroke="#2E324F" stroke-linecap="round" stroke-linejoin="round"/>
  <path d="M165.671 74.7178H175.246" stroke="#2E324F" stroke-linecap="round" stroke-linejoin="round"/>
  <path d="M199.369 87.8135H209.401" stroke="#2E324F" stroke-linecap="round" stroke-linejoin="round"/>
  <path d="M165.979 87.8135H175.553" stroke="#2E324F" stroke-linecap="round" stroke-linejoin="round"/>
  <path fill-rule="evenodd" clip-rule="evenodd" d="M182.444 8.86395C182.444 13.5635 178.634 17.3754 173.933 17.3754C169.233 17.3754 165.423 13.5635 165.423 8.86395C165.423 4.16435 169.233 0.352539 173.933 0.352539C178.634 0.352539 182.444 4.16435 182.444 8.86395Z" fill="#67EC88"/>
  <path fill-rule="evenodd" clip-rule="evenodd" d="M35.9356 94.9078C35.9356 96.4579 34.6797 97.7138 33.1314 97.7138C31.5813 97.7138 30.3253 96.4579 30.3253 94.9078C30.3253 93.3594 31.5813 92.1035 33.1314 92.1035C34.6797 92.1035 35.9356 93.3594 35.9356 94.9078Z" fill="#67EC88"/>
  <path fill-rule="evenodd" clip-rule="evenodd" d="M219.282 139.203C219.282 141.45 217.461 143.274 215.211 143.274C212.966 143.274 211.144 141.45 211.144 139.203C211.144 136.957 212.966 135.134 215.211 135.134C217.461 135.134 219.282 136.957 219.282 139.203Z" fill="#67EC88"/>
  <path d="M113.593 44.5433C102.795 47.3 100.039 36.2715 100.039 36.2715V75.332V82.9134" stroke="#2E324F" stroke-linecap="round" stroke-linejoin="round"/>
  <path fill-rule="evenodd" clip-rule="evenodd" d="M100.095 82.2231C100.095 85.5224 97.421 88.198 94.1218 88.198C90.8226 88.198 88.1487 85.5224 88.1487 82.2231C88.1487 78.9239 90.8226 76.25 94.1218 76.25C97.421 76.25 100.095 78.9239 100.095 82.2231Z" stroke="#2E324F" stroke-linecap="round" stroke-linejoin="round"/>
  <path fill-rule="evenodd" clip-rule="evenodd" d="M100.268 82.1371C100.268 85.5262 97.52 88.2723 94.131 88.2723C90.7419 88.2723 87.9958 85.5262 87.9958 82.1371C87.9958 78.7481 90.7419 76.002 94.131 76.002C97.52 76.002 100.268 78.7481 100.268 82.1371Z" fill="#2E324F"/>
  <path fill-rule="evenodd" clip-rule="evenodd" d="M184.703 123.005L192.152 127.275V119.635L184.817 119.56L184.703 123.005Z" fill="#2E324F"/>
  <path fill-rule="evenodd" clip-rule="evenodd" d="M184.267 136.567C184.83 136.638 186.584 136.567 188.089 136.567C189.592 136.567 192.267 136.371 192.267 136.371V140.371L184.297 138.261L184.267 136.567Z" fill="#2E324F"/>
  <path d="M160.233 119.755C160.233 119.755 165.979 136.299 187.804 136.299C211.009 136.299 215.834 120.673 215.834 120.673" stroke="#2E324F" stroke-linecap="round" stroke-linejoin="round"/>
  <path d="M47.4239 101.096V69.6631" stroke="#2E324F" stroke-linecap="round" stroke-linejoin="round"/>
  <path d="M47.4239 151.096V105.663" stroke="#2E324F" stroke-linecap="round" stroke-linejoin="round"/>
  <path d="M34.0855 70.4934L22.3964 32.2589L61.3284 20.5117" stroke="#2E324F" stroke-linecap="round" stroke-linejoin="round"/>
</svg>
